<svg viewBox="0 0 47.49 104" xmlns="http://www.w3.org/2000/svg"><path d="m47.49 23.5a23.62 23.62 0 0 0 -23.74-23.5 23.62 23.62 0 0 0 -23.75 23.5v57a23.62 23.62 0 0 0 23.75 23.5 23.62 23.62 0 0 0 23.74-23.5z" fill="#a78668"/><path d="m38.54 15.93v72.41a16.24 16.24 0 0 1 -5 11.77 14.22 14.22 0 0 1 -19.22.3l-.67-.64a15.92 15.92 0 0 1 -4.2-7.58 5.29 5.29 0 0 1 -.17-.79 16.44 16.44 0 0 1 -.28-3.06v-72.69a15.92 15.92 0 0 1 1.27-6.39 16.38 16.38 0 0 1 3.7-5.38 14.25 14.25 0 0 1 19.55 0 16.24 16.24 0 0 1 5 11.17z" fill="#e8bcbc"/><g fill="#ed9ca7"><path d="m38.54 61.62-.21-.08a6.14 6.14 0 0 0 -2.23-.46c-1.85 0-3.6 1.1-5.45 2.26-2.07 1.3-4.2 2.63-6.82 2.72s-5-1.24-7.24-2.51c-2-1.15-3.92-2.24-5.89-2.08a5.79 5.79 0 0 0 -1.62.38h-.12v-3.1h.12a9.94 9.94 0 0 1 1.38-.22c2.88-.24 5.28 1.13 7.61 2.46 1.95 1.11 3.76 2.13 5.68 2.12s3.51-1.14 5.32-2.27c2.12-1.33 4.32-2.71 7-2.71a8.23 8.23 0 0 1 2.23.31l.21.06z"/><path d="m38.54 77a1.29 1.29 0 0 0 -.21-.06 8.23 8.23 0 0 0 -2.23-.31c-2.71 0-4.91 1.38-7 2.71-1.81 1.13-3.53 2.21-5.32 2.27s-3.73-1-5.68-2.13c-2.33-1.32-4.73-2.69-7.61-2.45a8.64 8.64 0 0 0 -1.38.22h-.12v3.14h.12a5.79 5.79 0 0 1 1.59-.39c2-.17 3.86.93 5.89 2.08 2.21 1.27 4.54 2.57 7.24 2.51s4.75-1.42 6.82-2.72c1.85-1.16 3.6-2.26 5.45-2.26a6.14 6.14 0 0 1 2.23.46l.21.08z"/><path d="m38.54 49.06-.21-.06a8.63 8.63 0 0 0 -2.23-.3c-2.71 0-4.91 1.37-7 2.71-1.81 1.13-3.53 2.21-5.32 2.27s-3.73-1-5.68-2.12c-2.33-1.33-4.74-2.7-7.61-2.47a7.65 7.65 0 0 0 -1.38.24h-.12v3.13h.12a5.81 5.81 0 0 1 1.62-.39c2-.16 3.86.94 5.89 2.09 2.21 1.26 4.47 2.58 7.24 2.51s4.75-1.42 6.82-2.72c1.85-1.16 3.6-2.25 5.45-2.25a6.12 6.12 0 0 1 2.23.45l.21.08z"/><path d="m38.54 70.75-.21-.08a6.14 6.14 0 0 0 -2.23-.46c-1.85 0-3.6 1.1-5.45 2.26-2.07 1.3-4.2 2.63-6.82 2.72s-5-1.25-7.24-2.51c-2-1.15-3.92-2.25-5.89-2.09a5.81 5.81 0 0 0 -1.62.41h-.08v-3.11h.12a7.65 7.65 0 0 1 1.38-.24c2.88-.23 5.28 1.14 7.61 2.47 1.95 1.11 3.76 2.13 5.68 2.12s3.51-1.14 5.32-2.27c2.12-1.34 4.32-2.71 7-2.71a8.23 8.23 0 0 1 2.23.31h.21z"/><path d="m38.54 39.66-.21-.06a8.63 8.63 0 0 0 -2.23-.3c-2.71 0-4.91 1.37-7 2.71-1.81 1.13-3.53 2.21-5.32 2.27s-3.73-1-5.68-2.12c-2.33-1.34-4.73-2.7-7.61-2.47a7.65 7.65 0 0 0 -1.38.24l-.11.07v3.14h.12a5.81 5.81 0 0 1 1.62-.39c2-.15 3.87.94 5.89 2.09 2.21 1.26 4.54 2.57 7.24 2.51s4.75-1.43 6.82-2.72c1.85-1.16 3.6-2.25 5.45-2.25a6.33 6.33 0 0 1 2.23.45l.21.08z"/><path d="m38.54 30.26-.21-.06a8.63 8.63 0 0 0 -2.23-.3c-2.71 0-4.91 1.37-7 2.71-1.81 1.13-3.53 2.21-5.32 2.27s-3.73-1-5.68-2.12c-2.33-1.34-4.74-2.7-7.61-2.47a7.65 7.65 0 0 0 -1.38.24h-.12v3.13h.12a5.77 5.77 0 0 1 1.62-.37c2-.17 3.86.92 5.89 2.08 2.21 1.26 4.47 2.59 7.24 2.51s4.75-1.43 6.82-2.72c1.85-1.16 3.6-2.25 5.45-2.25a6.14 6.14 0 0 1 2.23.46l.21.07z"/><path d="m38.54 20.86a1.29 1.29 0 0 0 -.21-.06 8.23 8.23 0 0 0 -2.23-.31c-2.71 0-4.91 1.38-7 2.72-1.81 1.13-3.53 2.2-5.32 2.26s-3.73-1-5.68-2.12c-2.33-1.33-4.73-2.7-7.61-2.46a7.65 7.65 0 0 0 -1.38.24h-.12v3.13h.12a6.14 6.14 0 0 1 1.62-.37c2-.16 3.87.92 5.89 2.08 2.21 1.26 4.54 2.58 7.24 2.51s4.75-1.43 6.82-2.72c1.85-1.17 3.6-2.26 5.45-2.26a6.14 6.14 0 0 1 2.23.46l.21.08z"/></g></svg>