<svg viewBox="0 0 47.49 104.45" xmlns="http://www.w3.org/2000/svg"><path d="m47.49 23.56a23.62 23.62 0 0 0 -23.74-23.5 23.62 23.62 0 0 0 -23.75 23.5v57a23.62 23.62 0 0 0 23.75 23.5 23.62 23.62 0 0 0 23.74-23.5z" fill="#fff"/><path d="m37.85 16v72.72a16.29 16.29 0 0 1 -5.05 11.83 14.29 14.29 0 0 1 -19.3.3l-.68-.65a16 16 0 0 1 -4.21-7.61 5.29 5.29 0 0 1 -.17-.79 15.84 15.84 0 0 1 -.3-3.08v-73a16.07 16.07 0 0 1 1.28-6.42 16.26 16.26 0 0 1 3.72-5.4 14.3 14.3 0 0 1 19.63 0 16.32 16.32 0 0 1 5 11.22z" fill="#fce2e3"/><g fill="#f08b9c"><path d="m37.85 61.89-.21-.08a6.14 6.14 0 0 0 -2.24-.46c-1.86 0-3.61 1.1-5.47 2.27-2.08 1.3-4.22 2.64-6.85 2.73s-5-1.25-7.27-2.52c-2-1.16-3.94-2.25-5.92-2.09a5.94 5.94 0 0 0 -1.63.38h-.12v-3.12h.12a9 9 0 0 1 1.39-.23c2.89-.24 5.3 1.14 7.64 2.47 2 1.12 3.78 2.14 5.71 2.13s3.52-1.14 5.34-2.28c2.13-1.33 4.34-2.72 7.06-2.72a8.24 8.24 0 0 1 2.24.31l.21.06z"/><path d="m37.85 49.27-.21-.06a8.65 8.65 0 0 0 -2.24-.3c-2.72 0-4.93 1.38-7.06 2.72-1.82 1.14-3.54 2.22-5.34 2.28s-3.75-1-5.71-2.13c-2.29-1.33-4.76-2.71-7.64-2.48a7.92 7.92 0 0 0 -1.39.24h-.12v3.15h.12a6 6 0 0 1 1.63-.39c2-.16 3.88.94 5.92 2.1 2.19 1.25 4.49 2.6 7.27 2.51s4.77-1.43 6.85-2.74c1.86-1.16 3.61-2.26 5.47-2.26a6.14 6.14 0 0 1 2.24.46l.21.08z"/><path d="m37.85 71.06-.21-.06a6.14 6.14 0 0 0 -2.24-.46c-1.86 0-3.61 1.1-5.47 2.26-2.08 1.31-4.22 2.65-6.85 2.74s-5.08-1.28-7.27-2.54c-2-1.16-3.94-2.26-5.92-2.1a6 6 0 0 0 -1.63.39h-.12v-3.11h.12a7.92 7.92 0 0 1 1.39-.24c2.89-.23 5.3 1.15 7.64 2.48 2 1.12 3.78 2.14 5.71 2.13s3.52-1.14 5.34-2.28c2.13-1.34 4.34-2.72 7.06-2.72a8.24 8.24 0 0 1 2.24.31h.21z"/><path d="m37.85 39.83-.21-.06a8.65 8.65 0 0 0 -2.24-.3c-2.72 0-4.93 1.38-7.06 2.72-1.82 1.14-3.54 2.22-5.34 2.28s-3.75-1-5.71-2.13c-2.29-1.34-4.75-2.71-7.64-2.48a7.92 7.92 0 0 0 -1.39.24h-.12v3.16h.12a6 6 0 0 1 1.63-.39c2-.16 3.89.94 5.92 2.09 2.22 1.27 4.56 2.59 7.27 2.53s4.77-1.44 6.85-2.74c1.86-1.16 3.61-2.26 5.47-2.26a6.14 6.14 0 0 1 2.24.46l.21.08z"/><path d="m37.85 30.39-.21-.06a8.65 8.65 0 0 0 -2.24-.33c-2.72 0-4.93 1.38-7.06 2.72-1.82 1.17-3.54 2.28-5.34 2.28s-3.75-1-5.71-2.13c-2.34-1.34-4.76-2.71-7.64-2.48a7.92 7.92 0 0 0 -1.39.24h-.12v3.15h.12a5.94 5.94 0 0 1 1.63-.38c2-.17 3.88.93 5.92 2.09 2.19 1.28 4.49 2.61 7.27 2.51s4.77-1.43 6.85-2.73c1.86-1.14 3.61-2.27 5.47-2.27a6.14 6.14 0 0 1 2.24.46l.21.08z"/></g></svg>