<svg viewBox="0 0 47 104.01" xmlns="http://www.w3.org/2000/svg"><path d="m0 0h47v104h-47z" fill="none"/><path d="m47 23.46a23.5 23.5 0 0 0 -47 0v56.76a23.5 23.5 0 0 0 47 0z" fill="#fff"/><path d="m38.1 15.94v72.4a16.2 16.2 0 0 1 -5.05 11.78 14.32 14.32 0 0 1 -19.3.3l-.68-.65a16 16 0 0 1 -4.21-7.58 6.76 6.76 0 0 1 -.17-.78 15.82 15.82 0 0 1 -.3-3.07v-72.68a16.1 16.1 0 0 1 5-11.77 14.33 14.33 0 0 1 19.61 0 16.18 16.18 0 0 1 5 11.17z" fill="#fce2e3"/><g fill="#ed9ca7"><path d="m16.52 17.35a2.16 2.16 0 1 0 -2.17-2.16 2.16 2.16 0 0 0 2.17 2.16z"/><path d="m19.89 15.24a1.1 1.1 0 1 0 -1.1-1.1 1.1 1.1 0 0 0 1.1 1.1z"/><path d="m15.33 19.87a1.1 1.1 0 1 0 -1.1-1.1 1.1 1.1 0 0 0 1.1 1.1z"/><path d="m12.84 17.67a1.1 1.1 0 1 0 -1.1-1.1 1.1 1.1 0 0 0 1.1 1.1z"/><path d="m13.5 14.38a1.1 1.1 0 1 0 0-2.2 1.1 1.1 0 1 0 0 2.2z"/><path d="m17.13 12.72a1.1 1.1 0 1 0 -1.13-1.1 1.1 1.1 0 0 0 1.13 1.1z"/><path d="m19.32 19.16a1.1 1.1 0 1 0 -1.1-1.1 1.1 1.1 0 0 0 1.1 1.1z"/><path d="m31.77 26.7a2.16 2.16 0 1 0 -2.16-2.16 2.17 2.17 0 0 0 2.16 2.16z"/><path d="m35.15 24.59a1.1 1.1 0 1 0 -1.15-1.1 1.1 1.1 0 0 0 1.15 1.1z"/><path d="m30.59 29.22a1.1 1.1 0 1 0 -1.11-1.1 1.1 1.1 0 0 0 1.11 1.1z"/><path d="m28.1 27a1.1 1.1 0 0 0 0-2.2 1.1 1.1 0 1 0 0 2.2z"/><path d="m28.76 23.72a1.1 1.1 0 1 0 -1.1-1.09 1.09 1.09 0 0 0 1.1 1.09z"/><path d="m32.38 22.07a1.1 1.1 0 1 0 0-2.2 1.1 1.1 0 1 0 0 2.2z"/><path d="m34.58 28.51a1.1 1.1 0 1 0 -1.11-1.1 1.1 1.1 0 0 0 1.11 1.1z"/><path d="m16.52 41.89a2.16 2.16 0 1 0 -2.17-2.16 2.16 2.16 0 0 0 2.17 2.16z"/><path d="m19.89 39.78a1.1 1.1 0 1 0 -1.1-1.1 1.1 1.1 0 0 0 1.1 1.1z"/><path d="m15.33 44.41a1.1 1.1 0 1 0 -1.1-1.1 1.1 1.1 0 0 0 1.1 1.1z"/><path d="m12.84 42.21a1.1 1.1 0 1 0 -1.1-1.1 1.1 1.1 0 0 0 1.1 1.1z"/><path d="m13.5 38.91a1.1 1.1 0 1 0 -1.1-1.09 1.1 1.1 0 0 0 1.1 1.09z"/><path d="m17.13 37.26a1.1 1.1 0 1 0 -1.13-1.1 1.11 1.11 0 0 0 1.13 1.1z"/><path d="m19.32 43.7a1.1 1.1 0 1 0 -1.1-1.1 1.1 1.1 0 0 0 1.1 1.1z"/><path d="m31.77 52.4a2.15 2.15 0 1 0 -2.16-2.15 2.16 2.16 0 0 0 2.16 2.15z"/><path d="m35.15 50.29a1.1 1.1 0 1 0 -1.15-1.1 1.1 1.1 0 0 0 1.15 1.1z"/><path d="m30.59 54.93a1.1 1.1 0 1 0 -1.11-1.1 1.11 1.11 0 0 0 1.11 1.1z"/><path d="m28.1 52.73a1.1 1.1 0 1 0 -1.1-1.1 1.1 1.1 0 0 0 1.1 1.1z"/><path d="m28.76 49.43a1.1 1.1 0 1 0 -1.1-1.1 1.1 1.1 0 0 0 1.1 1.1z"/><path d="m32.38 47.77a1.1 1.1 0 1 0 -1.1-1.1 1.11 1.11 0 0 0 1.1 1.1z"/><path d="m34.58 54.21a1.1 1.1 0 1 0 -1.11-1.09 1.09 1.09 0 0 0 1.11 1.09z"/><path d="m16.52 65.26a2.16 2.16 0 1 0 -2.17-2.16 2.16 2.16 0 0 0 2.17 2.16z"/><path d="m19.89 63.15a1.1 1.1 0 1 0 -1.1-1.1 1.1 1.1 0 0 0 1.1 1.1z"/><path d="m15.33 67.78a1.1 1.1 0 1 0 -1.1-1.1 1.1 1.1 0 0 0 1.1 1.1z"/><path d="m12.84 65.58a1.1 1.1 0 1 0 -1.1-1.1 1.1 1.1 0 0 0 1.1 1.1z"/><path d="m13.5 62.29a1.1 1.1 0 1 0 0-2.2 1.1 1.1 0 1 0 0 2.2z"/><path d="m17.13 60.63a1.1 1.1 0 1 0 -1.13-1.1 1.1 1.1 0 0 0 1.13 1.1z"/><path d="m19.32 67.07a1.1 1.1 0 1 0 -1.1-1.1 1.1 1.1 0 0 0 1.1 1.1z"/><path d="m31.77 74.61a2.16 2.16 0 1 0 -2.16-2.16 2.17 2.17 0 0 0 2.16 2.16z"/><path d="m35.15 72.5a1.1 1.1 0 1 0 -1.15-1.1 1.1 1.1 0 0 0 1.15 1.1z"/><path d="m30.59 77.13a1.1 1.1 0 1 0 -1.11-1.13 1.1 1.1 0 0 0 1.11 1.13z"/><path d="m28.1 74.93a1.1 1.1 0 1 0 0-2.2 1.1 1.1 0 1 0 0 2.2z"/><path d="m28.76 71.63a1.1 1.1 0 1 0 -1.1-1.09 1.09 1.09 0 0 0 1.1 1.09z"/><path d="m32.38 70a1.1 1.1 0 1 0 0-2.2 1.1 1.1 0 1 0 0 2.2z"/><path d="m34.58 76.42a1.1 1.1 0 1 0 -1.11-1.1 1.1 1.1 0 0 0 1.11 1.1z"/><path d="m17.69 89.8a2.16 2.16 0 1 0 -2.16-2.16 2.16 2.16 0 0 0 2.16 2.16z"/><path d="m21.06 87.69a1.1 1.1 0 1 0 0-2.2 1.1 1.1 0 0 0 0 2.2z"/><path d="m16.5 92.32a1.1 1.1 0 1 0 -1.1-1.1 1.11 1.11 0 0 0 1.1 1.1z"/><path d="m14 90.12a1.1 1.1 0 1 0 -1.1-1.1 1.11 1.11 0 0 0 1.1 1.1z"/><path d="m14.68 86.82a1.1 1.1 0 1 0 -1.11-1.09 1.09 1.09 0 0 0 1.11 1.09z"/><path d="m18.3 85.17a1.1 1.1 0 1 0 -1.1-1.1 1.1 1.1 0 0 0 1.1 1.1z"/><path d="m20.5 91.61a1.1 1.1 0 1 0 -1.11-1.1 1.1 1.1 0 0 0 1.11 1.1z"/></g></svg>