<svg viewBox="0 0 47 104.01" xmlns="http://www.w3.org/2000/svg" xmlns:xlink="http://www.w3.org/1999/xlink"><clipPath id="a"><path d="m0 0h47v104h-47z"/></clipPath><g clip-path="url(#a)"><path d="m47 23.46a23.5 23.5 0 0 0 -47 0v56.75a23.5 23.5 0 0 0 47 0z" fill="#a78568"/><path d="m38.1 15.93v72.41a16.2 16.2 0 0 1 -5.05 11.78 14.35 14.35 0 0 1 -19.3.3l-.68-.65a16.12 16.12 0 0 1 -4.21-7.58 7.25 7.25 0 0 1 -.17-.78 15.82 15.82 0 0 1 -.3-3.07v-72.69a16.14 16.14 0 0 1 5-11.77 14.35 14.35 0 0 1 19.61 0 16.18 16.18 0 0 1 5 11.18z" fill="#e8bcbc"/><g fill="#ed9ca7"><path d="m16.52 17.34a2.15 2.15 0 1 0 -2.17-2.15 2.16 2.16 0 0 0 2.17 2.15z"/><path d="m19.89 15.23a1.1 1.1 0 1 0 -1.1-1.09 1.09 1.09 0 0 0 1.1 1.09z"/><path d="m15.33 19.87a1.1 1.1 0 1 0 -1.1-1.1 1.1 1.1 0 0 0 1.1 1.1z"/><path d="m12.84 17.67a1.1 1.1 0 1 0 -1.1-1.1 1.1 1.1 0 0 0 1.1 1.1z"/><path d="m13.5 14.37a1.1 1.1 0 1 0 -1.1-1.1 1.11 1.11 0 0 0 1.1 1.1z"/><path d="m17.13 12.71a1.1 1.1 0 1 0 -1.13-1.09 1.1 1.1 0 0 0 1.13 1.09z"/><path d="m19.32 19.15a1.1 1.1 0 1 0 -1.1-1.09 1.09 1.09 0 0 0 1.1 1.09z"/><path d="m31.77 26.69a2.16 2.16 0 1 0 -2.16-2.15 2.16 2.16 0 0 0 2.16 2.15z"/><path d="m35.15 24.58a1.1 1.1 0 0 0 0-2.2 1.1 1.1 0 1 0 0 2.2z"/><path d="m30.59 29.21a1.1 1.1 0 1 0 -1.11-1.09 1.1 1.1 0 0 0 1.11 1.09z"/><path d="m28.1 27a1.1 1.1 0 1 0 -1.1-1.08 1.1 1.1 0 0 0 1.1 1.08z"/><path d="m28.76 23.72a1.1 1.1 0 1 0 -1.1-1.1 1.1 1.1 0 0 0 1.1 1.1z"/><path d="m32.38 22.06a1.1 1.1 0 1 0 -1.1-1.1 1.11 1.11 0 0 0 1.1 1.1z"/><path d="m34.58 28.5a1.1 1.1 0 1 0 -1.11-1.1 1.1 1.1 0 0 0 1.11 1.1z"/><path d="m16.52 41.88a2.15 2.15 0 1 0 -2.17-2.15 2.16 2.16 0 0 0 2.17 2.15z"/><path d="m19.89 39.77a1.1 1.1 0 1 0 -1.1-1.1 1.1 1.1 0 0 0 1.1 1.1z"/><path d="m15.33 44.4a1.1 1.1 0 1 0 -1.1-1.09 1.09 1.09 0 0 0 1.1 1.09z"/><path d="m12.84 42.21a1.1 1.1 0 1 0 -1.1-1.1 1.1 1.1 0 0 0 1.1 1.1z"/><path d="m13.5 38.91a1.1 1.1 0 1 0 -1.1-1.1 1.11 1.11 0 0 0 1.1 1.1z"/><path d="m17.13 37.25a1.1 1.1 0 1 0 -1.13-1.1 1.1 1.1 0 0 0 1.13 1.1z"/><path d="m19.32 43.69a1.1 1.1 0 1 0 -1.1-1.09 1.09 1.09 0 0 0 1.1 1.09z"/><path d="m31.77 52.4a2.16 2.16 0 1 0 -2.16-2.15 2.16 2.16 0 0 0 2.16 2.15z"/><path d="m35.15 50.29a1.1 1.1 0 1 0 -1.15-1.1 1.1 1.1 0 0 0 1.15 1.1z"/><path d="m30.59 54.92a1.1 1.1 0 1 0 -1.11-1.1 1.1 1.1 0 0 0 1.11 1.1z"/><path d="m28.1 52.72a1.1 1.1 0 1 0 -1.1-1.09 1.09 1.09 0 0 0 1.1 1.09z"/><path d="m28.76 49.43a1.1 1.1 0 1 0 -1.1-1.1 1.1 1.1 0 0 0 1.1 1.1z"/><path d="m32.38 47.77a1.1 1.1 0 1 0 -1.1-1.1 1.11 1.11 0 0 0 1.1 1.1z"/><path d="m34.58 54.21a1.1 1.1 0 0 0 0-2.2 1.1 1.1 0 1 0 0 2.2z"/><path d="m16.52 65.25a2.15 2.15 0 1 0 -2.17-2.15 2.16 2.16 0 0 0 2.17 2.15z"/><path d="m19.89 63.14a1.1 1.1 0 1 0 -1.1-1.09 1.09 1.09 0 0 0 1.1 1.09z"/><path d="m15.33 67.78a1.1 1.1 0 1 0 -1.1-1.1 1.1 1.1 0 0 0 1.1 1.1z"/><path d="m12.84 65.58a1.1 1.1 0 1 0 -1.1-1.1 1.1 1.1 0 0 0 1.1 1.1z"/><path d="m13.5 62.28a1.1 1.1 0 1 0 -1.1-1.1 1.11 1.11 0 0 0 1.1 1.1z"/><path d="m17.13 60.62a1.1 1.1 0 1 0 -1.13-1.09 1.1 1.1 0 0 0 1.13 1.09z"/><path d="m19.32 67.06a1.1 1.1 0 1 0 -1.1-1.06 1.09 1.09 0 0 0 1.1 1.06z"/><path d="m31.77 74.6a2.16 2.16 0 1 0 -2.16-2.15 2.16 2.16 0 0 0 2.16 2.15z"/><path d="m35.15 72.49a1.1 1.1 0 1 0 0-2.2 1.1 1.1 0 1 0 0 2.2z"/><path d="m30.59 77.12a1.1 1.1 0 1 0 -1.11-1.12 1.1 1.1 0 0 0 1.11 1.12z"/><path d="m28.1 74.93a1.1 1.1 0 1 0 -1.1-1.1 1.1 1.1 0 0 0 1.1 1.1z"/><path d="m28.76 71.63a1.1 1.1 0 1 0 -1.1-1.1 1.1 1.1 0 0 0 1.1 1.1z"/><path d="m32.38 70a1.1 1.1 0 1 0 -1.1-1.1 1.11 1.11 0 0 0 1.1 1.1z"/><path d="m34.58 76.41a1.1 1.1 0 1 0 -1.11-1.1 1.1 1.1 0 0 0 1.11 1.1z"/><path d="m17.69 89.79a2.15 2.15 0 1 0 -2.16-2.15 2.15 2.15 0 0 0 2.16 2.15z"/><path d="m21.06 87.68a1.1 1.1 0 1 0 -1.1-1.1 1.11 1.11 0 0 0 1.1 1.1z"/><path d="m16.5 92.31a1.1 1.1 0 1 0 -1.1-1.09 1.1 1.1 0 0 0 1.1 1.09z"/><path d="m14 90.12a1.1 1.1 0 1 0 -1.1-1.1 1.11 1.11 0 0 0 1.1 1.1z"/><path d="m14.68 86.82a1.1 1.1 0 1 0 0-2.2 1.1 1.1 0 1 0 0 2.2z"/><path d="m18.3 85.16a1.1 1.1 0 1 0 -1.1-1.1 1.1 1.1 0 0 0 1.1 1.1z"/><path d="m20.5 91.6a1.1 1.1 0 1 0 -1.11-1.09 1.1 1.1 0 0 0 1.11 1.09z"/></g></g></svg>