<svg width="50" height="50" viewBox="0 0 50 50" fill="none" xmlns="http://www.w3.org/2000/svg">
<path d="M49.9768 24.9854V25.1947C49.9297 31.7977 47.2646 38.1124 42.5666 42.7525C42.3225 42.9966 42.0725 43.2291 41.8168 43.4615C41.5611 43.694 41.3228 43.9032 41.0671 44.1183C37.5293 47.1116 33.2218 49.0509 28.6354 49.7152C27.4272 49.8955 26.2071 49.9849 24.9855 49.9825C20.2716 49.991 15.6521 48.6608 11.6646 46.1466C10.4436 45.3743 9.29056 44.4994 8.2181 43.5313C7.29794 42.6973 6.44121 41.7959 5.65505 40.8345C5.46907 40.6079 5.28309 40.3812 5.10873 40.1429C4.8007 39.7419 4.52754 39.3293 4.22532 38.9108C3.88823 38.4052 3.56857 37.8937 3.26635 37.359C2.96413 36.8243 2.72003 36.371 2.47593 35.8595C1.8986 34.6728 1.42039 33.4403 1.0462 32.1748C0.347738 29.8464 -0.0047423 27.428 5.01562e-05 24.9971C-0.0112802 19.3435 1.89734 13.8536 5.41337 9.42637C8.9294 4.99912 13.8445 1.8969 19.3537 0.627688C19.9349 0.48239 20.5801 0.366153 21.2077 0.26735C21.8529 0.174359 22.5096 0.0988027 23.1664 0.0523074C23.5035 0.0523074 23.8405 0.0116238 24.1835 0H24.9564C25.247 0 25.5376 0 25.8224 0C26.2002 0 26.5838 0.0348719 26.9848 0.0639315C28.8157 0.208871 30.6248 0.557812 32.3783 1.10427C38.2657 2.92891 43.2735 6.86063 46.4431 12.1469C46.6698 12.5247 46.8906 12.9083 47.094 13.3093C49.0035 16.9007 50.0014 20.9063 50 24.9738L49.9768 24.9854Z" fill="#C8D1D3"/>
<path d="M42.7294 35.6573C41.0207 34.6867 39.033 34.2973 37.3243 33.3325C36.1733 32.6751 35.1835 31.7691 34.427 30.6807C33.6706 29.5922 33.1665 28.3486 32.9516 27.0407C32.7366 25.7327 32.8163 24.3932 33.1846 23.1199C33.553 21.8466 34.2008 20.6715 35.0809 19.6803C36.2433 18.4017 37.6963 17.4776 38.8645 16.228C40.5196 14.4145 41.4791 12.0734 41.5728 9.6199C37.6997 5.41682 32.3854 2.82709 26.6885 2.36662C26.1073 2.32012 25.468 2.29688 24.8519 2.29688C24.2359 2.29688 23.6547 2.29687 23.0619 2.36662C20.5205 2.55846 18.0304 3.18149 15.6982 4.209C15.6982 4.209 15.6982 4.209 15.6982 4.209C14.2146 4.85901 12.8057 5.6677 11.4961 6.62095C8.5235 8.7651 6.11128 11.594 4.46373 14.8681C4.46373 14.8681 4.46373 14.9262 4.46373 14.9552V15.0192C4.12227 16.4804 4.21519 18.0096 4.73108 19.4188C5.31227 20.7904 6.72456 21.8889 8.21823 21.7436C10.636 21.5111 12.0657 18.361 14.4951 18.3494C15.2044 18.3774 15.8964 18.5768 16.5118 18.9306C18.5809 19.9942 20.5802 22.226 19.7491 24.3996C18.9877 26.4396 16.4014 26.922 14.5183 27.9856C10.8743 30.0314 9.56659 34.6402 9.28762 38.8132C9.21694 39.7646 9.20141 40.7194 9.24112 41.6726V41.6726C13.1366 45.3505 18.207 47.5327 23.5559 47.8333C23.1839 44.4624 20.8475 41.2019 21.4345 37.8135C21.6488 36.6815 22.1846 35.6351 22.9779 34.7995C23.7711 33.9639 24.7883 33.3744 25.9077 33.1016C27.0271 32.8288 28.2014 32.8842 29.2901 33.2612C30.3789 33.6381 31.336 34.3207 32.0471 35.2272C33.4652 37.0522 33.6977 39.4932 34.058 41.7831C34.2211 43.0614 34.5655 44.31 35.0809 45.4911C35.6621 45.2121 36.2026 44.9099 36.7431 44.567C39.4477 42.909 41.7774 40.7061 43.5838 38.0983C43.8453 37.7263 44.0952 37.3428 44.3335 36.9359C43.8708 36.4265 43.3292 35.9948 42.7294 35.6573V35.6573ZM25.4099 28.1715C23.5791 29.4734 21.4694 30.4963 20.1094 32.298C18.424 34.524 18.2089 37.5287 18.5518 40.3068C18.6795 40.9261 18.6795 41.5648 18.5518 42.1841C18.4778 42.4895 18.3037 42.7613 18.0572 42.9561C17.8107 43.151 17.506 43.2577 17.1918 43.2593C16.6106 43.1895 16.1864 42.6142 15.9132 42.0969C14.972 40.1529 14.6255 37.9743 14.9171 35.8342C15.2086 33.6941 16.1253 31.6876 17.5522 30.0662C19.1214 28.3227 21.2311 27.1603 22.7073 25.3528C23.5334 24.386 24.1099 23.2315 24.3865 21.9904C24.6631 20.7492 24.6313 19.4592 24.294 18.2332C23.5326 15.8212 21.1149 13.9265 18.5867 14.1009C17.7556 14.159 16.9419 14.4264 16.1108 14.4031C15.2797 14.3799 14.3672 13.9614 14.1522 13.1594C14.067 12.8262 14.0771 12.4758 14.1813 12.1481C14.5242 10.8869 15.6284 9.98023 16.7443 9.29443C21.5391 6.34197 30.6232 5.10403 32.9189 11.9737C33.5524 13.8742 33.2967 15.9607 32.7329 17.8786C31.5081 22.0303 28.9305 25.6533 25.4099 28.1715V28.1715Z" fill="white"/>
<path d="M47.6279 23.4286C46.8373 25.6744 45.4942 27.6851 43.7223 29.2754C42.5599 30.2692 41.136 31.0655 39.6191 31.019C37.5849 30.9027 35.8646 29.1301 35.4868 27.125C35.3407 26.1139 35.4214 25.083 35.7229 24.1069C36.0245 23.1308 36.5394 22.2341 37.2304 21.4816C38.3928 20.1507 39.8981 19.1975 41.1302 17.948C42.5339 16.5048 43.5357 14.7196 44.0362 12.7695L44.1117 12.88C45.4773 15.0241 46.4752 17.3813 47.0642 19.8543C47.163 20.2669 47.2443 20.6796 47.3199 21.098C47.4632 21.869 47.566 22.6469 47.6279 23.4286V23.4286Z" fill="white"/>
</svg>
