<svg width="51" height="51" viewBox="0 0 51 51" fill="none" xmlns="http://www.w3.org/2000/svg">
<path d="M50.9296 25.9368C50.9296 26.0075 50.9296 26.0781 50.9296 26.1488C50.8829 32.7536 48.2168 39.0697 43.5172 43.7092C43.2699 43.9515 43.0126 44.2139 42.7653 44.4209C42.5181 44.6278 42.2607 44.86 42.0185 45.0771C37.9629 48.4869 32.9293 50.5198 27.6438 50.8827C22.3584 51.2456 17.0943 49.9196 12.611 47.0961C11.3845 46.3213 10.2265 45.4433 9.14948 44.4714C8.23054 43.6364 7.37539 42.7337 6.5912 41.7709C6.39946 41.5438 6.2178 41.3167 6.0412 41.0794C5.7334 40.6756 5.44073 40.2668 5.15816 39.8478C4.82009 39.3431 4.49715 38.8383 4.19944 38.2932C3.90173 37.7481 3.65448 37.2837 3.40723 36.7789C2.83249 35.5896 2.35494 34.3556 1.97924 33.0892C1.28188 30.7692 0.928269 28.3594 0.929692 25.9368C0.929672 24.6151 1.03258 23.2954 1.23749 21.9896C2.02596 17.0757 4.26064 12.5083 7.65618 8.8707C11.0517 5.23312 15.454 2.69042 20.3009 1.5673C20.9115 1.42597 21.5271 1.30483 22.1528 1.20893C22.7987 1.11302 23.4496 1.04236 24.1106 0.996929C24.4436 0.996929 24.7867 0.951501 25.1198 0.941406H25.8868H25.917C26.2097 0.941406 26.4973 0.941406 26.7849 0.941406C27.1634 0.941406 27.5418 0.97674 27.9203 1.00702C29.7508 1.13768 31.5604 1.47636 33.3143 2.01653C37.3418 3.25438 40.9883 5.49683 43.9107 8.5329C45.2415 9.90991 46.4113 11.434 47.3975 13.0757C47.6245 13.4593 47.8415 13.8429 48.0484 14.2366C48.9882 16.0118 49.7084 17.895 50.1929 19.8444C50.6877 21.8372 50.9352 23.8835 50.9296 25.9368Z" fill="#558DCA"/>
<path d="M25.9375 42.8818V41.3676C26.689 41.3703 27.4396 41.3163 28.1829 41.206C28.5815 41.1455 28.9802 41.0748 29.3687 40.984L29.7068 42.4629C29.2779 42.5588 28.8389 42.6395 28.4049 42.7052C27.5878 42.8232 26.7631 42.8822 25.9375 42.8818ZM22.1682 42.4629C20.9304 42.1852 19.7284 41.7669 18.5856 41.2161L19.2416 39.8483C20.2827 40.3477 21.3759 40.7303 22.5012 40.989L22.1682 42.4629ZM33.2692 41.206L32.6082 39.8432C33.6484 39.3413 34.6285 38.7232 35.5298 38.0009L36.4733 39.182C35.4905 39.9729 34.4226 40.6518 33.2894 41.206H33.2692ZM15.3562 39.187C15.077 38.9649 14.8045 38.7328 14.5388 38.4905C13.9153 37.9257 13.3351 37.3149 12.803 36.6633L12.6718 36.5017L13.8979 35.5679L14.0191 35.7093C14.5033 36.3062 15.033 36.8648 15.6035 37.38C15.8406 37.5971 16.1081 37.8091 16.3452 38.011L15.3562 39.187ZM39.1729 36.4916L37.9922 35.5478C38.7132 34.6454 39.331 33.6651 39.8339 32.6252L41.1963 33.2814C40.6448 34.4243 39.966 35.5012 39.1729 36.4916V36.4916ZM10.6686 33.3016C10.2777 32.4881 9.95365 31.644 9.69975 30.7778C9.59379 30.4245 9.49792 30.0611 9.41214 29.6977L10.8704 29.3847C10.9478 29.7212 11.0336 30.0577 11.1277 30.3942C11.3618 31.1734 11.6571 31.9329 12.0108 32.6656L12.0461 32.7565L11.1025 33.1048L10.6686 33.3016ZM42.4578 29.7078L40.9844 29.3746C41.2292 28.2894 41.3561 27.1809 41.3628 26.0685V25.9372L42.8766 25.907V25.9372C42.8766 25.9928 42.8766 26.0483 42.8766 26.1038C42.8619 27.317 42.7181 28.5251 42.4477 29.7078H42.4578ZM8.98828 25.9524C8.98822 25.0565 9.05908 24.1619 9.20021 23.2772C9.25571 22.9188 9.32636 22.5554 9.40709 22.2021L10.8805 22.5302C10.8099 22.8583 10.7443 23.1863 10.6938 23.5397C10.5667 24.3461 10.5026 25.1612 10.5021 25.9776L8.98828 25.9524ZM40.9642 22.4746L40.8986 22.197C40.6447 21.1674 40.2827 20.1675 39.8188 19.2139L41.1812 18.5527C41.6909 19.6085 42.0884 20.7149 42.367 21.8538L42.4376 22.1566L40.9642 22.4746ZM12.0209 19.2594L10.6534 18.6032C11.2043 17.4595 11.8813 16.3811 12.6718 15.3879L13.8525 16.3318C13.1335 17.2354 12.5191 18.2175 12.0209 19.2594V19.2594ZM37.972 16.3015C37.6743 15.928 37.3564 15.5646 37.0233 15.2213C36.5495 14.734 36.0438 14.2787 35.5096 13.8585L36.4532 12.6723C37.0338 13.1408 37.5833 13.6466 38.0981 14.1866C38.4614 14.5601 38.8096 14.9589 39.1376 15.3677L37.972 16.3015ZM16.2746 13.8888L15.331 12.7077C16.3196 11.9161 17.3945 11.2388 18.5351 10.6886L19.1962 12.0515C18.1635 12.5516 17.1902 13.1662 16.2948 13.8837L16.2746 13.8888ZM32.5779 12.0262C31.8986 11.6971 31.1952 11.4203 30.4738 11.1984C30.0953 11.0824 29.7068 10.9764 29.3182 10.8905L29.6513 9.41162C30.0802 9.50752 30.5091 9.62361 30.9228 9.75485C31.7145 9.9984 32.4869 10.3004 33.2339 10.6584L32.5779 12.0262ZM22.476 10.8956L22.1379 9.41666C22.5466 9.32581 22.9604 9.24505 23.3792 9.18448H23.4398C23.8586 9.12391 24.2875 9.07343 24.7063 9.04315L25.3976 9.00781H25.9022V10.5221H25.4379C25.226 10.5221 25.0191 10.5221 24.8122 10.5574C24.4086 10.5574 24.0049 10.6281 23.5962 10.6886H23.5609C23.1976 10.7492 22.8292 10.8098 22.476 10.8956Z" fill="white"/>
</svg>
