<svg width="50" height="50" viewBox="0 0 50 50" fill="none" xmlns="http://www.w3.org/2000/svg">
<path d="M49.9768 24.9854V25.1947C49.9297 31.7977 47.2646 38.1124 42.5666 42.7525C42.3225 42.9966 42.0725 43.2291 41.8168 43.4615C41.5611 43.694 41.3228 43.9032 41.0671 44.1183C37.5293 47.1116 33.2218 49.0509 28.6354 49.7152C27.4272 49.8955 26.2071 49.9849 24.9855 49.9825C20.2716 49.991 15.6521 48.6608 11.6646 46.1466C10.4436 45.3743 9.29056 44.4994 8.2181 43.5313C7.29794 42.6973 6.44121 41.7959 5.65505 40.8345C5.46907 40.6079 5.28309 40.3812 5.10873 40.1429C4.8007 39.7419 4.52754 39.3293 4.22532 38.9108C3.88823 38.4052 3.56857 37.8937 3.26635 37.359C2.96413 36.8243 2.72003 36.371 2.47593 35.8595C1.8986 34.6728 1.42039 33.4403 1.0462 32.1748C0.347738 29.8464 -0.0047423 27.428 5.01562e-05 24.9971C-0.0112802 19.3435 1.89734 13.8536 5.41337 9.42637C8.9294 4.99912 13.8445 1.8969 19.3537 0.627688C19.9349 0.48239 20.5801 0.366153 21.2077 0.26735C21.8529 0.174359 22.5096 0.0988027 23.1664 0.0523074C23.5035 0.0523074 23.8405 0.0116238 24.1835 0H24.9564C25.247 0 25.5376 0 25.8224 0C26.2002 0 26.5838 0.0348719 26.9848 0.0639315C28.8157 0.208871 30.6248 0.557812 32.3783 1.10427C38.2657 2.92891 43.2735 6.86063 46.4431 12.1469C46.6698 12.5247 46.8906 12.9083 47.094 13.3093C49.0035 16.9007 50.0014 20.9063 50 24.9738L49.9768 24.9854Z" fill="#C8D1D3"/>
<path d="M34.7672 27.5875C34.6306 28.3759 34.3272 29.126 33.8771 29.7876C33.4271 30.4491 32.8408 31.0068 32.1576 31.4233C31.6586 31.7486 31.0735 31.9167 30.478 31.9057C29.9134 31.851 29.3727 31.6508 28.9087 31.3245C27.8317 30.513 26.7977 29.6459 25.811 28.7266C24.7648 27.8839 23.4862 27.1748 22.1495 27.2388C21.4589 27.3077 20.7924 27.5303 20.1991 27.8903C19.6057 28.2504 19.1005 28.7387 18.7204 29.3194C17.9699 30.4885 17.4382 31.7844 17.1512 33.1437C16.1516 37.0667 15.7215 41.1118 15.1054 45.1162C13.5207 44.3526 12.0305 43.4066 10.6651 42.2974C12.5037 37.1844 13.8542 31.9089 14.6986 26.5413C15.2798 22.7345 15.6401 18.8057 14.7567 15.057C14.1175 12.1305 12.5621 9.48387 10.3164 7.50149C13.6945 4.65097 17.8341 2.8532 22.2231 2.33052C26.6122 1.80784 31.0582 2.58318 35.0113 4.56066C33.628 6.33329 30.9836 6.91448 29.0947 8.30935C28.1701 9.00294 27.4051 9.88688 26.8513 10.9015C26.3912 11.655 26.1292 12.5127 26.09 13.3948C26.1371 14.7047 26.6743 15.9492 27.5952 16.8819C28.4997 17.7958 29.471 18.6408 30.5012 19.4101C33.0178 21.4443 35.3019 24.4025 34.7672 27.5875Z" fill="white"/>
<path d="M45.2866 24.1177C44.1242 28.7673 40.0559 32.0045 37.673 36.16C36.202 38.9204 35.2468 41.9259 34.8542 45.029C34.1607 45.3742 33.4486 45.6807 32.7213 45.9473C32.8409 45.1783 33 44.4159 33.1978 43.6632C34.4706 38.7115 36.685 34.0329 37.9404 29.0869C38.5739 26.6459 38.9749 24.048 38.2775 21.6244C37.4856 19.1569 35.7892 17.0805 33.5291 15.8125C32.3667 15.1151 30.8963 14.4409 30.6232 13.0983C30.35 11.7558 31.309 10.5585 32.4365 9.87854C33.564 9.19855 34.8833 8.87308 35.9992 8.16984C36.7547 7.67513 37.3901 7.01787 37.859 6.24609L38.0334 6.36815L38.1845 6.47857C39.5583 7.48449 40.8139 8.64261 41.9273 9.93085C42.4552 10.5331 42.95 11.1637 43.4094 11.8197V11.8197C43.5082 13.4877 44.2986 15.0628 44.8391 16.6611C45.7065 19.051 45.862 21.6412 45.2866 24.1177V24.1177Z" fill="white"/>
</svg>
