<svg width="50" height="51" viewBox="0 0 50 51" fill="none" xmlns="http://www.w3.org/2000/svg">
<path d="M49.9768 25.0362V25.2455C49.9297 31.8485 47.2646 38.1632 42.5666 42.8033C42.3225 43.0474 42.0725 43.2798 41.8168 43.5123C41.5611 43.7448 41.3228 43.954 41.0671 44.1691C37.5293 47.1624 33.2218 49.1017 28.6354 49.7659C27.4272 49.9463 26.2071 50.0356 24.9855 50.0333C20.2716 50.0418 15.6521 48.7116 11.6646 46.1974C10.4436 45.4251 9.29056 44.5502 8.2181 43.5821C7.29794 42.7481 6.44121 41.8467 5.65505 40.8853C5.46907 40.6587 5.28309 40.432 5.10873 40.1937C4.8007 39.7927 4.52754 39.38 4.22532 38.9616C3.88823 38.4559 3.56857 37.9445 3.26635 37.4098C2.96413 36.8751 2.72003 36.4218 2.47593 35.9103C1.8986 34.7236 1.42039 33.4911 1.0462 32.2256C0.347738 29.8972 -0.0047423 27.4788 5.01562e-05 25.0478C-0.0112802 19.3943 1.89734 13.9044 5.41337 9.47715C8.9294 5.0499 13.8445 1.94768 19.3537 0.67847C19.9349 0.533172 20.5801 0.416934 21.2077 0.318131C21.8529 0.225141 22.5096 0.149584 23.1664 0.103089C23.5035 0.103089 23.8405 0.0624051 24.1835 0.0507812H24.9564C25.247 0.0507812 25.5376 0.0507812 25.8224 0.0507812C26.2002 0.0507812 26.5838 0.0856531 26.9848 0.114713C28.8157 0.259652 30.6248 0.608593 32.3783 1.15505C38.2657 2.97969 43.2735 6.91142 46.4431 12.1977C46.6698 12.5755 46.8906 12.9591 47.094 13.3601C49.0035 16.9515 50.0014 20.9571 50 25.0246L49.9768 25.0362Z" fill="#C8D1D3"/>
<path d="M38.1838 29.0072L40.7236 28.7863C41.9163 28.6789 43.0256 28.1291 43.8334 27.245C44.6411 26.3609 45.0888 25.2065 45.0883 24.009V21.103C45.0876 20.6777 45.0024 20.2569 44.8375 19.8649C44.6727 19.4729 44.4316 19.1175 44.1282 18.8195C43.8248 18.5216 43.4652 18.2869 43.0703 18.1291C42.6754 17.9714 42.253 17.8937 41.8278 17.9006C39.2648 17.9355 36.2135 17.703 36.754 16.3082C37.2945 14.9133 40.4272 13.1058 42.6822 12.0073C42.8844 11.9148 43.0788 11.8059 43.2634 11.6819C41.6534 9.43098 39.644 7.49455 37.3352 5.96875C30.4597 11.6586 20.283 18.8015 11.8674 19.2897C8.90947 19.4752 5.94231 19.4577 2.98678 19.2374C2.62645 20.648 2.40455 22.0903 2.32422 23.544C4.32352 24.5204 5.95667 25.7583 5.75325 27.1416C5.59718 28.2495 5.08996 29.2782 4.30608 30.0766C3.96831 30.4256 3.75861 30.8786 3.71112 31.3619C3.66363 31.8453 3.78115 32.3304 4.04455 32.7385V32.7385C4.30736 33.1475 4.7004 33.4561 5.16019 33.6143C5.61998 33.7725 6.11967 33.771 6.57854 33.6102C9.37408 32.6222 13.5528 31.4773 14.5409 32.9651C14.9128 33.5463 14.3781 34.2786 13.4308 35.069C13.2623 35.1853 10.0308 37.3938 7.4329 39.1374C8.54406 40.4821 9.80574 41.6951 11.1932 42.7524C12.5183 40.4974 14.8024 37.388 17.8944 36.0687C19.2227 35.5344 20.613 35.1692 22.0324 34.9819C28.2105 34.1798 33.1623 37.0102 36.1554 38.7247C37.5445 39.5181 38.8663 40.4239 40.1075 41.4331C41.2016 40.4323 42.1926 39.3245 43.0658 38.1261C38.2768 35.9583 27.3968 30.3265 38.1838 29.0072ZM20.9107 31.0472C18.7225 30.9974 16.5594 30.5687 14.5176 29.7802C14.2688 29.6848 14.0568 29.5127 13.9123 29.2888C13.7678 29.0649 13.6983 28.8009 13.7138 28.5348C13.7293 28.2688 13.8291 28.0146 13.9987 27.8091C14.1683 27.6035 14.3989 27.4573 14.6571 27.3915C16.4119 26.9405 18.2225 26.7448 20.0331 26.8103C20.4109 26.8103 20.7654 26.8103 21.1083 26.8626C23.776 27.0428 23.6075 31.0937 20.9107 31.0472ZM20.963 23.0151C20.4303 23.0633 19.9006 23.1409 19.3764 23.2476L15.5115 23.8288H15.0639C14.8725 23.7902 14.6948 23.7016 14.5488 23.5719C14.4028 23.4423 14.2937 23.2762 14.2328 23.0907C14.1871 22.9499 14.1635 22.8028 14.1631 22.6548C14.1583 22.4314 14.2154 22.211 14.3283 22.0181C14.4412 21.8252 14.6053 21.6674 14.8024 21.5621C23.3285 17.3543 29.3903 15.9769 32.2382 15.5294H32.4242C32.6061 15.5314 32.785 15.5761 32.9465 15.6599C33.108 15.7436 33.2476 15.8642 33.3541 16.0117L33.4354 16.1396C33.4699 16.2058 33.5009 16.2737 33.5284 16.343C33.5681 16.4409 33.5992 16.542 33.6214 16.6452C33.675 16.9447 33.6343 17.2533 33.5052 17.5287L32.3428 20.0045C32.1499 20.4446 31.8509 20.8299 31.4726 21.1261C31.0943 21.4223 30.6484 21.62 30.1749 21.7016L20.963 23.0151ZM32.0987 27.0079C31.5175 27.0544 30.5527 27.3101 29.989 27.0079C28.6696 26.357 30.2098 24.5785 30.9886 24.1659C31.8524 23.7455 32.8069 23.5458 33.7667 23.5847C35.6769 23.5845 37.57 23.9453 39.3461 24.6483C39.4651 24.6899 39.5723 24.7597 39.6583 24.8518C39.7444 24.944 39.8068 25.0556 39.8402 25.1771C39.968 25.6944 39.4159 26.0024 38.9509 26.1419C37.2655 26.6417 35.4638 26.6766 33.7202 26.8394L32.0987 27.0079Z" fill="white"/>
</svg>
