<svg width="50" height="50" viewBox="0 0 50 50" fill="none" xmlns="http://www.w3.org/2000/svg">
<path d="M49.9768 24.9854V25.1947C49.9297 31.7977 47.2646 38.1124 42.5666 42.7525C42.3225 42.9966 42.0725 43.2291 41.8168 43.4615C41.5611 43.694 41.3228 43.9032 41.0671 44.1183C37.5293 47.1116 33.2218 49.0509 28.6354 49.7152C27.4272 49.8955 26.2071 49.9849 24.9855 49.9825C20.2716 49.991 15.6521 48.6608 11.6646 46.1466C10.4436 45.3743 9.29056 44.4994 8.2181 43.5313C7.29794 42.6973 6.44121 41.7959 5.65505 40.8345C5.46907 40.6079 5.28309 40.3812 5.10873 40.1429C4.8007 39.7419 4.52754 39.3293 4.22532 38.9108C3.88823 38.4052 3.56857 37.8937 3.26635 37.359C2.96413 36.8243 2.72003 36.371 2.47593 35.8595C1.8986 34.6728 1.42039 33.4403 1.0462 32.1748C0.347738 29.8464 -0.0047423 27.428 5.01562e-05 24.9971C-0.0112802 19.3435 1.89734 13.8536 5.41337 9.42637C8.9294 4.99912 13.8445 1.8969 19.3537 0.627688C19.9349 0.48239 20.5801 0.366153 21.2077 0.26735C21.8529 0.174359 22.5096 0.0988027 23.1664 0.0523074C23.5035 0.0523074 23.8405 0.0116238 24.1835 0H24.9564C25.247 0 25.5376 0 25.8224 0C26.2002 0 26.5838 0.0348719 26.9848 0.0639315C28.8157 0.208871 30.6248 0.557812 32.3783 1.10427C38.2657 2.92891 43.2735 6.86063 46.4431 12.1469C46.6698 12.5247 46.8906 12.9083 47.094 13.3093C49.0035 16.9007 50.0014 20.9063 50 24.9738L49.9768 24.9854Z" fill="#C8D1D3"/>
<path d="M5.16716 36.261C4.91144 35.8135 4.67315 35.3543 4.44648 34.8894C3.92178 33.8049 3.48638 32.6795 3.14461 31.5243C2.50922 29.403 2.1881 27.2002 2.19146 24.9859C2.18051 19.8309 3.9212 14.8252 7.12818 10.7893C10.3352 6.75337 14.8182 3.92671 19.8423 2.77269C20.4234 2.64483 20.964 2.5344 21.5335 2.45304C22.1147 2.36005 22.6959 2.29612 23.3178 2.25543C23.6278 2.23218 23.9358 2.21475 24.2419 2.20312H24.9509C27.1362 8.26496 31.6811 27.6187 5.16716 36.261Z" fill="white"/>
<path d="M31.7268 3.20716C34.6909 11.3903 34.2608 25.7748 22.7764 33.6849C16.0172 38.3344 13.5936 41.9029 12.8439 44.28C11.7212 43.577 10.6631 42.7757 9.68219 41.8855C8.8474 41.1248 8.07034 40.303 7.35742 39.427C15.2035 35.4749 22.2476 30.901 26.4147 23.0374C29.8437 16.5455 29.3439 9.19343 26.8157 2.26562C28.4826 2.39667 30.1297 2.71245 31.7268 3.20716V3.20716Z" fill="white"/>
<path d="M47.7731 24.985C47.7731 25.0489 47.7731 25.107 47.7731 25.1768C47.7576 28.1621 47.1524 31.1149 45.9925 33.8657C44.8325 36.6165 43.1406 39.111 41.0139 41.2061C40.793 41.4327 40.5663 41.6419 40.3339 41.857L39.6539 42.4382L36.0621 37.963C34.368 35.8602 33.5411 33.1897 33.7507 30.4975C33.9603 27.8053 35.1905 25.2949 37.1896 23.4797C40.9267 20.0913 44.6579 19.4113 47.0699 19.4637C47.5319 21.2679 47.7681 23.1225 47.7731 24.985V24.985Z" fill="white"/>
</svg>
