<svg width="50" height="50" viewBox="0 0 50 50" fill="none" xmlns="http://www.w3.org/2000/svg">
<path d="M49.9884 24.9826V25.1915C49.9419 31.7925 47.2782 38.1054 42.5818 42.7444C42.3323 42.9881 42.0885 43.2261 41.8273 43.4583C41.5661 43.6905 41.3339 43.8994 41.0843 44.1142C37.5428 47.1024 33.2362 49.0406 28.651 49.7098C27.4424 49.8896 26.222 49.9789 25 49.9768C18.7976 49.9737 12.8174 47.6672 8.2192 43.5047C7.30156 42.6704 6.44602 41.7703 5.65941 40.8115C5.47367 40.5851 5.28792 40.3529 5.11379 40.1149C4.80615 39.7144 4.53334 39.3023 4.2257 38.8844C3.88904 38.3774 3.56979 37.8608 3.26796 37.3346C2.98934 36.8412 2.72814 36.342 2.47854 35.8312C1.90359 34.6432 1.42605 33.4106 1.05064 32.1453C0.350791 29.8183 -0.00319842 27.401 2.17733e-05 24.971C0.0013334 23.6491 0.106135 22.3294 0.313465 21.0239C1.10206 16.1147 3.33625 11.5521 6.7306 7.91895C10.125 4.28576 14.5254 1.74696 19.3696 0.626887C19.9501 0.481775 20.5944 0.365683 21.2213 0.267007C21.8656 0.174135 22.5157 0.0986766 23.1774 0.0522406C23.5141 0.0522406 23.8507 0.011609 24.1932 0H24.9652C25.2554 0 25.5456 0 25.8301 0C26.2132 0 26.5904 0.0348274 26.991 0.0638499C33.0571 0.542614 38.7378 3.22703 42.9591 7.6097C44.29 8.98656 45.4585 10.5115 46.4418 12.1546C46.6682 12.5377 46.8888 12.9208 47.0977 13.3155C49.0049 16.9065 50.0014 20.9108 50 24.9768L49.9884 24.9826Z" fill="#C8D1D3"/>
<path d="M24.9989 42.0365C24.3141 42.0367 23.6299 41.996 22.9499 41.9146L23.1589 40.1732C24.3852 40.3183 25.6243 40.3183 26.8506 40.1732L27.0595 41.9146C26.376 41.9992 25.6877 42.04 24.9989 42.0365V42.0365ZM18.9565 40.9336C17.8957 40.5384 16.8768 40.0387 15.9149 39.4419C15.7117 39.3142 15.5144 39.1807 15.3344 39.0472L16.3212 37.6134L16.8552 37.9675C17.7204 38.5129 18.6383 38.9698 19.5949 39.3316L18.9565 40.9336ZM31.0472 40.9336L30.432 39.3084C31.586 38.8625 32.6814 38.2777 33.6941 37.567L34.6867 38.9949C33.5562 39.7841 32.3341 40.4332 31.0472 40.9278V40.9336ZM12.2406 36.29C12.0897 36.1217 11.9446 35.9475 11.7995 35.7734C11.6544 35.5993 11.5557 35.4658 11.428 35.3032C11.2191 35.0304 11.0217 34.7228 10.8476 34.4616C10.6734 34.2004 10.3948 33.7651 10.1917 33.4052C10.0988 33.2426 10.0059 33.0801 9.91884 32.9118L11.457 32.0992L11.7008 32.5403C11.8866 32.8654 12.0839 33.1846 12.2813 33.4922C12.4786 33.7999 12.6354 34.003 12.8211 34.2468C12.9256 34.3939 13.0359 34.5332 13.152 34.6647C13.2855 34.8331 13.419 34.984 13.5525 35.1349L12.2406 36.29ZM37.7805 36.29L36.4744 35.1291C37.2915 34.2031 37.9968 33.1842 38.5757 32.0934L40.1139 32.9002C39.4683 34.1199 38.6791 35.2579 37.763 36.29H37.7805ZM8.43869 29.0808C8.11259 27.751 7.94695 26.3869 7.94531 25.0177H9.68666C9.68609 26.2522 9.83618 27.4822 10.1336 28.6803L8.43869 29.0808ZM41.5534 29.0808L39.8643 28.6629C40.148 27.5057 40.296 26.3194 40.3054 25.128V25.0003L42.0468 24.9654V25.1686C42.0315 26.4814 41.866 27.7882 41.5534 29.0634V29.0808ZM39.8759 21.3666L39.841 21.2564C39.5485 20.0755 39.1118 18.935 38.5408 17.8607L40.079 17.0423C40.7184 18.254 41.2095 19.5383 41.5418 20.8675L39.8759 21.3666ZM10.122 21.3666L8.43289 20.9487C8.75942 19.6139 9.24669 18.3236 9.88402 17.1061L11.428 17.913C10.8582 18.9986 10.4198 20.1482 10.122 21.3376V21.3666ZM13.5234 14.8772L12.2174 13.7163C13.1264 12.6856 14.1575 11.7695 15.288 10.9882L16.2806 12.4161C15.2676 13.1136 14.3419 13.9302 13.5234 14.8482V14.8772ZM36.4338 14.8366C36.2945 14.6799 36.1552 14.5289 36.0043 14.378C35.2975 13.6415 34.5198 12.9766 33.6825 12.3929L34.6692 10.9592C35.6072 11.6061 36.4783 12.345 37.2697 13.1649C37.4322 13.3332 37.5889 13.5015 37.7456 13.6757L36.4338 14.8366ZM19.5427 10.7038L18.9216 9.0727C19.6508 8.79737 20.3973 8.5705 21.1564 8.39358C21.5743 8.3007 21.998 8.21944 22.4217 8.15559H22.4914L22.9151 8.09755L23.1241 9.8389L22.6829 9.89694H22.6307C22.265 9.94918 21.9051 10.0188 21.5453 10.1059C20.8654 10.249 20.1963 10.4391 19.5427 10.6747V10.7038ZM30.3971 10.7038C30.1108 10.5993 29.8205 10.5006 29.5265 10.4077C28.6421 10.1333 27.7349 9.93904 26.8157 9.82729L27.0189 8.08594C28.043 8.19022 29.0553 8.3884 30.0431 8.678C30.3681 8.77667 30.6932 8.88696 31.0124 9.00885L30.3971 10.7038Z" fill="white"/>
</svg>
