<svg width="50" height="50" viewBox="0 0 50 50" fill="none" xmlns="http://www.w3.org/2000/svg">
<path d="M50 24.9899C50 25.0606 50 25.1313 50 25.197C49.9565 31.8016 47.2923 38.1187 42.593 42.7597C42.3454 43.0022 42.0877 43.2397 41.8401 43.4721C41.5926 43.7045 41.3349 43.9117 41.0924 44.1239C38.5595 46.2563 35.6282 47.8641 32.4687 48.854C29.3092 49.8439 25.9845 50.196 22.6877 49.89C19.3909 49.584 16.1878 48.6259 13.2645 47.0713C10.3412 45.5168 7.75589 43.3969 5.65887 40.8347C5.47192 40.6073 5.29003 40.3749 5.10814 40.1425C4.80499 39.7383 4.50689 39.329 4.229 38.9046C3.95111 38.4802 3.56712 37.8941 3.26902 37.3585C2.97092 36.8229 2.72334 36.348 2.47577 35.8427C1.90114 34.6553 1.42297 33.4236 1.0459 32.1594C0.349293 29.83 -0.00305694 27.4112 1.99784e-05 24.9798C0.00386298 23.6615 0.110288 22.3456 0.318331 21.0438C1.10548 16.1327 3.33769 11.5672 6.73023 7.92994C10.1228 4.29263 14.5219 1.74829 19.3664 0.621463C19.9778 0.485044 20.5942 0.363782 21.2207 0.267784C21.8624 0.171786 22.5142 0.10105 23.176 0.0505247C23.5146 0.0505247 23.8531 0.0101051 24.1865 0C24.4392 0 24.6918 0 24.9545 0H24.9848C25.2728 0 25.5659 0 25.8539 0C26.2328 0 26.6118 0.0353664 26.9857 0.0656817C30.9601 0.38798 34.8004 1.65346 38.1878 3.7571C41.5753 5.86074 44.4122 8.7419 46.4632 12.1615C46.6906 12.5455 46.9078 12.9295 47.115 13.3236C49.0131 16.9191 50.0035 20.9241 50 24.9899Z" fill="#558DCA"/>
<path d="M42.7595 35.6639C41.0466 34.6988 39.061 34.3047 37.3482 33.3245C36.2004 32.6654 35.2138 31.759 34.4598 30.6712C33.7058 29.5833 33.2035 28.3413 32.9892 27.0352C32.7749 25.7291 32.854 24.3916 33.2208 23.1199C33.5876 21.8482 34.2329 20.674 35.1099 19.6827C36.2417 18.3993 37.7221 17.4747 38.8892 16.2267C40.5453 14.4111 41.5063 12.0686 41.6024 9.61296C37.7251 5.41092 32.4069 2.82399 26.7075 2.36761C26.0962 2.32214 25.4848 2.29688 24.8633 2.29688C24.2419 2.29688 23.6659 2.29688 23.0747 2.36761C20.532 2.57143 18.0417 3.20169 15.7081 4.232C14.2262 4.88246 12.8186 5.69046 11.5095 6.64206C8.53906 8.78337 6.1255 11.6058 4.47128 14.8727C4.47307 14.9013 4.47307 14.9299 4.47128 14.9586V15.0242C4.22371 16.4895 4.16308 18.0558 4.75928 19.425C5.35548 20.7942 6.78029 21.8906 8.24048 21.7542C10.6606 21.5218 12.0905 18.369 14.5208 18.3589C15.2324 18.3936 15.9253 18.598 16.5418 18.9551C18.6134 20.0212 20.5838 22.2544 19.7805 24.4321C19.0176 26.4531 16.4357 26.9583 14.5359 28.0143C10.888 30.0657 9.5794 34.6736 9.30657 38.847C9.24087 39.7987 9.22569 40.7533 9.26109 41.7067C10.7525 43.1007 12.4227 44.29 14.2277 45.2435C17.1117 46.788 20.2946 47.6928 23.5598 47.8961C23.1859 44.526 20.8516 41.2621 21.4377 37.8718C21.6391 36.7268 22.1687 35.6649 22.9621 34.8152C23.7556 33.9654 24.7787 33.3644 25.9072 33.0851C27.0358 32.8057 28.2212 32.8602 29.3193 33.2417C30.4175 33.6233 31.3813 34.3155 32.0935 35.2344C33.5082 37.0634 33.7407 39.5038 34.1146 41.8027C34.2767 43.0816 34.6168 44.3316 35.1251 45.5163C35.696 45.2283 36.2467 44.9201 36.7873 44.5917C39.4928 42.9314 41.8241 40.7275 43.6335 38.1194C43.8963 37.7455 44.1388 37.3615 44.3763 36.9725C43.9132 36.4501 43.3669 36.0079 42.7595 35.6639ZM25.4242 28.1811C23.5901 29.4947 21.4832 30.5052 20.1241 32.3039C18.4365 34.5321 18.2243 37.5485 18.5679 40.3173C18.6967 40.9355 18.6967 41.5736 18.5679 42.1918C18.4952 42.4978 18.3216 42.7704 18.075 42.9656C17.8284 43.1609 17.5233 43.2674 17.2087 43.268C16.6075 43.1972 16.1982 42.6263 15.9305 42.0907C14.9902 40.1458 14.644 37.9669 14.9352 35.8264C15.2263 33.6859 16.1419 31.6786 17.5675 30.0555C19.1388 28.3326 21.2508 27.1453 22.7261 25.3415C24.3379 23.3811 25.0806 20.6376 24.3126 18.2225C23.5446 15.8074 21.1346 13.9127 18.6032 14.0895C17.7746 14.1451 16.9612 14.4129 16.1275 14.3927C15.2938 14.3725 14.3844 13.948 14.1671 13.1447C14.0928 12.8239 14.105 12.4891 14.2025 12.1746C14.5461 10.9115 15.6475 10.002 16.7692 9.31991C21.564 6.36417 30.6536 5.1263 32.9373 12.0028C33.5689 13.8975 33.3163 15.9893 32.7504 17.9092C31.5177 22.0522 28.9399 25.6664 25.4242 28.1811Z" fill="white"/>
<path d="M47.6462 23.4267C46.8556 25.6722 45.5124 27.6826 43.7406 29.2725C42.5937 30.283 41.1587 31.0661 39.6379 30.9853C37.6169 30.8691 35.8839 29.0957 35.5049 27.0948C35.3584 26.0841 35.4383 25.0535 35.7389 24.0774C36.0395 23.1014 36.5532 22.2043 37.243 21.4512C38.395 20.1173 39.9108 19.1624 41.1436 17.9144C42.5545 16.4714 43.5631 14.6842 44.069 12.7305L44.1448 12.8467C45.5103 14.9937 46.5076 17.3537 47.0955 19.8293C47.1898 20.2402 47.2757 20.6545 47.3531 21.0722C47.4921 21.8514 47.5899 22.6373 47.6462 23.4267Z" fill="white"/>
</svg>
