<svg width="50" height="50" viewBox="0 0 50 50" fill="none" xmlns="http://www.w3.org/2000/svg">
<path d="M50 24.9899C50 25.0606 50 25.1313 50 25.197C49.9565 31.8016 47.2923 38.1187 42.593 42.7597C42.3454 43.0022 42.0877 43.2397 41.8401 43.4721C41.5926 43.7045 41.3349 43.9117 41.0924 44.1239C38.5595 46.2563 35.6282 47.8641 32.4687 48.854C29.3092 49.8439 25.9845 50.196 22.6877 49.89C19.3909 49.584 16.1878 48.6259 13.2645 47.0713C10.3412 45.5168 7.75589 43.3969 5.65887 40.8347C5.47192 40.6073 5.29003 40.3749 5.10814 40.1425C4.80499 39.7383 4.50689 39.329 4.229 38.9046C3.95111 38.4802 3.56712 37.8941 3.26902 37.3585C2.97092 36.8229 2.72334 36.348 2.47577 35.8427C1.90114 34.6553 1.42297 33.4236 1.0459 32.1594C0.349293 29.83 -0.00305694 27.4112 1.99784e-05 24.9798C0.00386298 23.6615 0.110288 22.3456 0.318331 21.0438C1.10548 16.1327 3.33769 11.5672 6.73023 7.92994C10.1228 4.29263 14.5219 1.74829 19.3664 0.621463C19.9778 0.485044 20.5942 0.363782 21.2207 0.267784C21.8624 0.171786 22.5142 0.10105 23.176 0.0505247C23.5146 0.0505247 23.8531 0.0101051 24.1865 0C24.4392 0 24.6918 0 24.9545 0H24.9848C25.2728 0 25.5659 0 25.8539 0C26.2328 0 26.6118 0.0353664 26.9857 0.0656817C30.9601 0.38798 34.8004 1.65346 38.1878 3.7571C41.5753 5.86074 44.4122 8.7419 46.4632 12.1615C46.6906 12.5455 46.9078 12.9295 47.115 13.3236C49.0131 16.9191 50.0035 20.9241 50 24.9899Z" fill="#558DCA"/>
<path d="M34.7873 27.599C34.6488 28.387 34.3443 29.1364 33.8939 29.7976C33.4436 30.4588 32.8576 31.0166 32.1751 31.4339C31.6779 31.7638 31.0944 31.9395 30.4977 31.9392C29.9303 31.8795 29.3886 31.6722 28.9263 31.3379C27.7946 30.6003 26.875 29.5897 25.8291 28.7409C24.7832 27.8921 23.515 27.1898 22.166 27.2252C21.4751 27.2962 20.8086 27.5203 20.2152 27.8813C19.6217 28.2423 19.1162 28.731 18.7353 29.3119C17.9828 30.4779 17.4518 31.7728 17.1691 33.1316C16.1585 37.0574 15.7341 41.1045 15.148 45.1112C13.5615 44.3472 12.0694 43.4011 10.7018 42.2918C12.5436 37.1765 13.897 31.8983 14.7438 26.5279C15.3451 22.7233 15.6836 18.7925 14.7994 15.0384C14.1644 12.1046 12.6104 9.44978 10.3633 7.45961C13.7414 4.60834 17.8814 2.81013 22.2709 2.28747C26.6605 1.76482 31.107 2.54068 35.0601 4.51903C33.6757 6.31773 31.0181 6.88867 29.1385 8.28317C28.2152 8.97812 27.4505 9.86169 26.8952 10.8751C26.4168 11.6355 26.1387 12.5046 26.0868 13.4014C26.1478 14.7025 26.6877 15.9352 27.6026 16.8624C28.5139 17.7776 29.4936 18.6221 30.533 19.3887C33.0391 21.44 35.3178 24.4109 34.7873 27.599Z" fill="white"/>
<path d="M45.2854 24.1208C44.093 28.749 40.0308 32.0129 37.6662 36.1712C36.1504 38.8844 35.3319 41.9361 34.8519 45.0434C34.1572 45.3843 33.4456 45.6896 32.7198 45.9579C32.8367 45.187 32.9952 44.4229 33.1947 43.6691C34.4679 38.7227 36.6607 34.0693 37.939 29.0925C38.5706 26.6522 38.9495 24.04 38.2776 21.6299C37.4896 19.1525 35.7902 17.0666 33.5231 15.7943C32.3358 15.092 30.8958 14.42 30.5926 13.081C30.2895 11.7421 31.2747 10.5548 32.4015 9.85752C33.5282 9.16026 34.8519 8.84701 35.9382 8.14976C36.7171 7.66908 37.3784 7.01991 37.8734 6.25L38.0451 6.37631C38.096 6.40879 38.1449 6.44422 38.1917 6.48242C39.5772 7.487 40.8435 8.64649 41.9659 9.93836C42.491 10.5345 42.9835 11.1586 43.4413 11.8078C43.5423 13.4751 44.3305 15.0515 44.8711 16.6481C45.7269 19.047 45.8707 21.6421 45.2854 24.1208Z" fill="white"/>
</svg>
