<svg width="50" height="50" viewBox="0 0 50 50" fill="none" xmlns="http://www.w3.org/2000/svg">
<path d="M50 24.9899C50 25.0606 50 25.1313 50 25.197C49.9565 31.8016 47.2923 38.1187 42.593 42.7597C42.3454 43.0022 42.0877 43.2397 41.8401 43.4721C41.5926 43.7045 41.3349 43.9117 41.0924 44.1239C38.5595 46.2563 35.6282 47.8641 32.4687 48.854C29.3092 49.8439 25.9845 50.196 22.6877 49.89C19.3909 49.584 16.1878 48.6259 13.2645 47.0713C10.3412 45.5168 7.75589 43.3969 5.65887 40.8347C5.47192 40.6073 5.29003 40.3749 5.10814 40.1425C4.80499 39.7383 4.50689 39.329 4.229 38.9046C3.95111 38.4802 3.56712 37.8941 3.26902 37.3585C2.97092 36.8229 2.72334 36.348 2.47577 35.8427C1.90114 34.6553 1.42297 33.4236 1.0459 32.1594C0.349293 29.83 -0.00305694 27.4112 1.99784e-05 24.9798C0.00386298 23.6615 0.110288 22.3456 0.318331 21.0438C1.10548 16.1327 3.33769 11.5672 6.73023 7.92994C10.1228 4.29263 14.5219 1.74829 19.3664 0.621463C19.9778 0.485044 20.5942 0.363782 21.2207 0.267784C21.8624 0.171786 22.5142 0.10105 23.176 0.0505247C23.5146 0.0505247 23.8531 0.0101051 24.1865 0C24.4392 0 24.6918 0 24.9545 0H24.9848C25.2728 0 25.5659 0 25.8539 0C26.2328 0 26.6118 0.0353664 26.9857 0.0656817C30.9601 0.38798 34.8004 1.65346 38.1878 3.7571C41.5753 5.86074 44.4122 8.7419 46.4632 12.1615C46.6906 12.5455 46.9078 12.9295 47.115 13.3236C49.0131 16.9191 50.0035 20.9241 50 24.9899Z" fill="#558DCA"/>
<path d="M38.2131 28.9872L40.7394 28.7649C41.9321 28.6575 43.0414 28.1072 43.8485 27.2225C44.6556 26.3377 45.102 25.1828 45.0997 23.9852V21.0598C45.0964 20.636 45.0094 20.2172 44.8436 19.8272C44.6778 19.4373 44.4365 19.084 44.1336 18.7877C43.8307 18.4914 43.4722 18.2579 43.0787 18.1007C42.6852 17.9434 42.2645 17.8656 41.8408 17.8716C39.2792 17.907 36.2224 17.6746 36.7883 16.2851C37.3542 14.8957 40.4615 13.0767 42.72 11.9753C42.9124 11.8834 43.0967 11.7752 43.2707 11.6519C41.6615 9.40047 39.6527 7.46356 37.3441 5.9375C30.4726 11.6115 20.2968 18.7507 11.8793 19.2459C8.91051 19.4283 5.93282 19.4097 2.96657 19.1903C2.60881 20.6025 2.38717 22.0457 2.30469 23.5001C4.3257 24.4753 5.94252 25.7081 5.73536 27.0976C5.58184 28.2056 5.07301 29.2338 4.28528 30.028C3.94986 30.3784 3.74168 30.8313 3.69404 31.314C3.64641 31.7967 3.76208 32.2815 4.02255 32.6907V32.7261C4.28618 33.1321 4.6784 33.4379 5.13643 33.5945C5.59445 33.7512 6.09179 33.7496 6.54882 33.5901C9.34288 32.5796 13.5163 31.4629 14.5116 32.9484C14.8855 33.5042 14.355 34.2621 13.4051 35.0553C13.2384 35.1665 10.0048 37.3593 7.40776 39.1378C8.51653 40.4851 9.77801 41.6991 11.1668 42.7554C12.4906 40.5019 14.7794 37.3946 17.8716 36.0709H17.9019C19.2309 35.5324 20.6232 35.1657 22.045 34.9795C28.2293 34.1762 33.1606 37.0005 36.1921 38.7235C37.5808 39.5168 38.9023 40.4226 40.1432 41.4316C41.2357 40.4277 42.2274 39.3193 43.104 38.1222C38.294 35.9142 27.4057 30.2807 38.2131 28.9872ZM20.9284 31.0082C18.7326 30.9564 16.562 30.5274 14.5116 29.74C14.2639 29.6429 14.0534 29.4698 13.9103 29.2455C13.7672 29.0212 13.6989 28.7573 13.7152 28.4918C13.7315 28.2262 13.8315 27.9727 14.0009 27.7676C14.1704 27.5624 14.4005 27.4163 14.6582 27.3502C16.4085 26.892 18.2155 26.6878 20.024 26.7439C20.3978 26.7439 20.7566 26.7439 21.0951 26.7994C23.7932 26.9965 23.6214 31.0486 20.9284 31.0082ZM20.9789 22.9696C20.4463 23.0191 19.9168 23.0967 19.3924 23.202L15.5272 23.7578H15.0775C14.8856 23.7212 14.7073 23.6332 14.5614 23.5034C14.4155 23.3735 14.3075 23.2065 14.2489 23.0201C14.2009 22.8804 14.1769 22.7334 14.1782 22.5856C14.1734 22.362 14.2302 22.1414 14.3425 21.948C14.4548 21.7546 14.6182 21.5959 14.8148 21.4892C23.3435 17.2805 29.4116 15.9062 32.2663 15.4615C32.3268 15.4561 32.3877 15.4561 32.4482 15.4615C32.632 15.4666 32.812 15.515 32.9735 15.6028C33.1351 15.6906 33.2736 15.8153 33.3778 15.9668L33.4587 16.0881C33.489 16.1588 33.5294 16.2245 33.5547 16.2952C33.5912 16.3926 33.6216 16.4921 33.6456 16.5933C33.6972 16.8942 33.6585 17.2036 33.5345 17.4826L32.3976 19.9583C32.2056 20.3999 31.9063 20.7864 31.5268 21.0829C31.1474 21.3794 30.6999 21.5764 30.225 21.656L20.9789 22.9696ZM32.0945 26.9662C31.4983 27.0167 30.5484 27.2693 29.9775 26.9662C28.6638 26.3144 30.1998 24.5359 30.988 24.1166C31.8533 23.7079 32.806 23.5188 33.7618 23.5658C35.6647 23.5661 37.5504 23.9261 39.3196 24.6269C39.4373 24.666 39.5442 24.7321 39.6319 24.8198C39.7196 24.9075 39.7857 25.0144 39.8249 25.1321C39.9512 25.6374 39.4005 25.9557 38.9356 26.0921C37.2481 26.5973 35.4595 26.6327 33.7214 26.7944L32.0945 26.9662Z" fill="white"/>
</svg>
