<svg width="50" height="50" viewBox="0 0 50 50" fill="none" xmlns="http://www.w3.org/2000/svg">
<path d="M50 24.9899C50 25.0606 50 25.1313 50 25.197C49.9565 31.8016 47.2923 38.1187 42.593 42.7597C42.3454 43.0022 42.0877 43.2397 41.8401 43.4721C41.5926 43.7045 41.3349 43.9117 41.0924 44.1239C38.5595 46.2563 35.6282 47.8641 32.4687 48.854C29.3092 49.8439 25.9845 50.196 22.6877 49.89C19.3909 49.584 16.1878 48.6259 13.2645 47.0713C10.3412 45.5168 7.75589 43.3969 5.65887 40.8347C5.47192 40.6073 5.29003 40.3749 5.10814 40.1425C4.80499 39.7383 4.50689 39.329 4.229 38.9046C3.95111 38.4802 3.56712 37.8941 3.26902 37.3585C2.97092 36.8229 2.72334 36.348 2.47577 35.8427C1.90114 34.6553 1.42297 33.4236 1.0459 32.1594C0.349293 29.83 -0.00305694 27.4112 1.99784e-05 24.9798C0.00386298 23.6615 0.110288 22.3456 0.318331 21.0438C1.10548 16.1327 3.33769 11.5672 6.73023 7.92994C10.1228 4.29263 14.5219 1.74829 19.3664 0.621463C19.9778 0.485044 20.5942 0.363782 21.2207 0.267784C21.8624 0.171786 22.5142 0.10105 23.176 0.0505247C23.5146 0.0505247 23.8531 0.0101051 24.1865 0C24.4392 0 24.6918 0 24.9545 0H24.9848C25.2728 0 25.5659 0 25.8539 0C26.2328 0 26.6118 0.0353664 26.9857 0.0656817C30.9601 0.38798 34.8004 1.65346 38.1878 3.7571C41.5753 5.86074 44.4122 8.7419 46.4632 12.1615C46.6906 12.5455 46.9078 12.9295 47.115 13.3236C49.0131 16.9191 50.0035 20.9241 50 24.9899Z" fill="#558DCA"/>
<path d="M5.17828 36.2674C4.9206 35.8177 4.67303 35.363 4.45577 34.8981C2.97006 31.816 2.19684 28.4392 2.19337 25.0177C2.18991 21.5962 2.95629 18.2178 4.43576 15.1327C5.91522 12.0476 8.06985 9.33491 10.74 7.19558C13.4102 5.05624 16.5275 3.54509 19.861 2.77406C20.4218 2.64775 20.9826 2.53659 21.5536 2.4507C22.1397 2.35975 22.7308 2.29407 23.3371 2.25365C23.6453 2.22839 23.9535 2.21323 24.2668 2.20312H24.9691C27.1518 8.27123 31.694 27.6225 5.17828 36.2674Z" fill="white"/>
<path d="M31.746 3.22149C34.7068 11.4066 34.2723 25.7912 22.7929 33.7085C16.0326 38.367 13.6074 41.929 12.8546 44.3189C11.7336 43.6169 10.6769 42.8172 9.69675 41.929C8.85718 41.1678 8.07526 40.3454 7.35742 39.4684C15.204 35.5173 22.2523 30.9397 26.4207 23.078C29.8615 16.5855 29.3663 9.22896 26.8249 2.29688C28.494 2.42494 30.1442 2.73499 31.746 3.22149Z" fill="white"/>
<path d="M47.8119 24.4406C47.8119 24.5063 47.8119 24.5669 47.8119 24.6326C47.7678 30.652 45.3384 36.4082 41.0566 40.6391C40.8343 40.8664 40.6069 41.0786 40.3695 41.2908C40.132 41.503 39.9198 41.695 39.6924 41.8921L36.1001 37.4155C34.4054 35.3135 33.5759 32.6444 33.7805 29.952C33.9852 27.2597 35.2086 24.7466 37.2015 22.9248C40.9404 19.5346 44.6742 18.8828 47.1095 18.8828C47.5751 20.6988 47.8111 22.5659 47.8119 24.4406Z" fill="white"/>
</svg>
