<svg width="90" height="42" viewBox="0 0 90 42" fill="none" xmlns="http://www.w3.org/2000/svg">
<path d="M73.9583 0.250002H16.014C11.8231 0.254588 7.80522 1.92143 4.84184 4.88482C1.87846 7.8482 0.211616 11.8661 0.207031 16.0569V25.1687C0.211616 29.3595 1.87846 33.3774 4.84184 36.3408C7.80522 39.3042 11.8231 40.971 16.014 40.9756H73.9583C76.0364 40.9779 78.0946 40.5708 80.0153 39.7777C81.9361 38.9846 83.6818 37.8209 85.1529 36.3531C86.6239 34.8852 87.7914 33.1421 88.5887 31.2231C89.3861 29.304 89.7977 27.2468 89.7999 25.1687V16.0569C89.793 11.8608 88.1207 7.83899 85.1503 4.87511C82.1799 1.91123 78.1545 0.247701 73.9583 0.250002V0.250002ZM88.0677 25.1687C88.0631 28.9024 86.5778 32.4819 83.9377 35.122C81.2975 37.7622 77.718 39.2474 73.9843 39.252H16.014C12.2818 39.2451 8.70448 37.7589 6.06621 35.119C3.42793 32.4791 1.94388 28.9009 1.9393 25.1687V16.0569C1.94388 12.3255 3.42822 8.74823 6.06674 6.10971C8.70526 3.47119 12.2825 1.98685 16.014 1.98227H73.9583C75.8089 1.97999 77.6418 2.34224 79.3524 3.04833C81.063 3.75441 82.6178 4.79052 83.928 6.09747C85.2381 7.40443 86.2781 8.95664 86.9883 10.6655C87.6986 12.3743 88.0654 14.2064 88.0677 16.0569V25.1687Z" fill="#D0D9DC"/>
<path d="M73.9594 1.07814H16.015C12.0539 1.08272 8.2563 2.65831 5.45534 5.45926C2.65439 8.26022 1.0788 12.0578 1.07422 16.0189V25.1307C1.07651 29.0933 2.65108 32.8931 5.45228 35.696C8.25348 38.4988 12.0524 40.0756 16.015 40.0802H73.9594C77.9273 40.0824 81.7338 38.509 84.542 35.7057C87.3502 32.9023 88.9302 29.0986 88.9348 25.1307V16.0189C88.9326 14.0546 88.5434 12.11 87.7896 10.296C87.0358 8.4821 85.9321 6.8344 84.5415 5.44702C83.1509 4.05964 81.5006 2.95974 79.6849 2.21013C77.8693 1.46051 75.9237 1.07586 73.9594 1.07814V1.07814ZM88.0687 25.1307C88.0641 28.8644 86.5789 32.4439 83.9387 35.084C81.2986 37.7242 77.7191 39.2094 73.9854 39.214H16.015C12.2828 39.2071 8.70554 37.7209 6.06726 35.081C3.42899 32.4411 1.94493 28.8629 1.94035 25.1307V16.0189C1.94494 12.2875 3.42927 8.71023 6.06779 6.07171C8.70631 3.43319 12.2836 1.94885 16.015 1.94427H73.9594C75.81 1.94199 77.6429 2.30424 79.3535 3.01032C81.0641 3.71641 82.6188 4.75251 83.929 6.05947C85.2392 7.36642 86.2791 8.91864 86.9894 10.6275C87.6997 12.3363 88.0664 14.1684 88.0687 16.0189V25.1307ZM73.9594 1.07814H16.015C12.0539 1.08272 8.2563 2.65831 5.45534 5.45926C2.65439 8.26022 1.0788 12.0578 1.07422 16.0189V25.1307C1.07651 29.0933 2.65108 32.8931 5.45228 35.696C8.25348 38.4988 12.0524 40.0756 16.015 40.0802H73.9594C77.9273 40.0824 81.7338 38.509 84.542 35.7057C87.3502 32.9023 88.9302 29.0986 88.9348 25.1307V16.0189C88.9326 14.0546 88.5434 12.11 87.7896 10.296C87.0358 8.4821 85.9321 6.8344 84.5415 5.44702C83.1509 4.05964 81.5006 2.95974 79.6849 2.21013C77.8693 1.46051 75.9237 1.07586 73.9594 1.07814V1.07814ZM88.0687 25.1307C88.0641 28.8644 86.5789 32.4439 83.9387 35.084C81.2986 37.7242 77.7191 39.2094 73.9854 39.214H16.015C12.2828 39.2071 8.70554 37.7209 6.06726 35.081C3.42899 32.4411 1.94493 28.8629 1.94035 25.1307V16.0189C1.94494 12.2875 3.42927 8.71023 6.06779 6.07171C8.70631 3.43319 12.2836 1.94885 16.015 1.94427H73.9594C75.81 1.94199 77.6429 2.30424 79.3535 3.01032C81.0641 3.71641 82.6188 4.75251 83.929 6.05947C85.2392 7.36642 86.2791 8.91864 86.9894 10.6275C87.6997 12.3363 88.0664 14.1684 88.0687 16.0189V25.1307ZM73.9594 1.07814H16.015C12.0539 1.08272 8.2563 2.65831 5.45534 5.45926C2.65439 8.26022 1.0788 12.0578 1.07422 16.0189V25.1307C1.07651 29.0933 2.65108 32.8931 5.45228 35.696C8.25348 38.4988 12.0524 40.0756 16.015 40.0802H73.9594C77.9273 40.0824 81.7338 38.509 84.542 35.7057C87.3502 32.9023 88.9302 29.0986 88.9348 25.1307V16.0189C88.9326 14.0546 88.5434 12.11 87.7896 10.296C87.0358 8.4821 85.9321 6.8344 84.5415 5.44702C83.1509 4.05964 81.5006 2.95974 79.6849 2.21013C77.8693 1.46051 75.9237 1.07586 73.9594 1.07814V1.07814ZM88.0687 25.1307C88.0641 28.8644 86.5789 32.4439 83.9387 35.084C81.2986 37.7242 77.7191 39.2094 73.9854 39.214H16.015C12.2828 39.2071 8.70554 37.7209 6.06726 35.081C3.42899 32.4411 1.94493 28.8629 1.94035 25.1307V16.0189C1.94494 12.2875 3.42927 8.71023 6.06779 6.07171C8.70631 3.43319 12.2836 1.94885 16.015 1.94427H73.9594C75.81 1.94199 77.6429 2.30424 79.3535 3.01032C81.0641 3.71641 82.6188 4.75251 83.929 6.05947C85.2392 7.36642 86.2791 8.91864 86.9894 10.6275C87.6997 12.3363 88.0664 14.1684 88.0687 16.0189V25.1307ZM73.9594 1.07814H16.015C12.0539 1.08272 8.2563 2.65831 5.45534 5.45926C2.65439 8.26022 1.0788 12.0578 1.07422 16.0189V25.1307C1.07651 29.0933 2.65108 32.8931 5.45228 35.696C8.25348 38.4988 12.0524 40.0756 16.015 40.0802H73.9594C77.9273 40.0824 81.7338 38.509 84.542 35.7057C87.3502 32.9023 88.9302 29.0986 88.9348 25.1307V16.0189C88.9326 14.0546 88.5434 12.11 87.7896 10.296C87.0358 8.4821 85.9321 6.8344 84.5415 5.44702C83.1509 4.05964 81.5006 2.95974 79.6849 2.21013C77.8693 1.46051 75.9237 1.07586 73.9594 1.07814V1.07814ZM88.0687 25.1307C88.0641 28.8644 86.5789 32.4439 83.9387 35.084C81.2986 37.7242 77.7191 39.2094 73.9854 39.214H16.015C12.2828 39.2071 8.70554 37.7209 6.06726 35.081C3.42899 32.4411 1.94493 28.8629 1.94035 25.1307V16.0189C1.94494 12.2875 3.42927 8.71023 6.06779 6.07171C8.70631 3.43319 12.2836 1.94885 16.015 1.94427H73.9594C75.81 1.94199 77.6429 2.30424 79.3535 3.01032C81.0641 3.71641 82.6188 4.75251 83.929 6.05947C85.2392 7.36642 86.2791 8.91864 86.9894 10.6275C87.6997 12.3363 88.0664 14.1684 88.0687 16.0189V25.1307ZM73.9594 1.07814H16.015C12.0539 1.08272 8.2563 2.65831 5.45534 5.45926C2.65439 8.26022 1.0788 12.0578 1.07422 16.0189V25.1307C1.07651 29.0933 2.65108 32.8931 5.45228 35.696C8.25348 38.4988 12.0524 40.0756 16.015 40.0802H73.9594C77.9273 40.0824 81.7338 38.509 84.542 35.7057C87.3502 32.9023 88.9302 29.0986 88.9348 25.1307V16.0189C88.9326 14.0546 88.5434 12.11 87.7896 10.296C87.0358 8.4821 85.9321 6.8344 84.5415 5.44702C83.1509 4.05964 81.5006 2.95974 79.6849 2.21013C77.8693 1.46051 75.9237 1.07586 73.9594 1.07814V1.07814ZM88.0687 25.1307C88.0641 28.8644 86.5789 32.4439 83.9387 35.084C81.2986 37.7242 77.7191 39.2094 73.9854 39.214H16.015C12.2828 39.2071 8.70554 37.7209 6.06726 35.081C3.42899 32.4411 1.94493 28.8629 1.94035 25.1307V16.0189C1.94494 12.2875 3.42927 8.71023 6.06779 6.07171C8.70631 3.43319 12.2836 1.94885 16.015 1.94427H73.9594C75.81 1.94199 77.6429 2.30424 79.3535 3.01032C81.0641 3.71641 82.6188 4.75251 83.929 6.05947C85.2392 7.36642 86.2791 8.91864 86.9894 10.6275C87.6997 12.3363 88.0664 14.1684 88.0687 16.0189V25.1307ZM73.9594 1.07814H16.015C12.0539 1.08272 8.2563 2.65831 5.45534 5.45926C2.65439 8.26022 1.0788 12.0578 1.07422 16.0189V25.1307C1.07651 29.0933 2.65108 32.8931 5.45228 35.696C8.25348 38.4988 12.0524 40.0756 16.015 40.0802H73.9594C77.9273 40.0824 81.7338 38.509 84.542 35.7057C87.3502 32.9023 88.9302 29.0986 88.9348 25.1307V16.0189C88.9326 14.0546 88.5434 12.11 87.7896 10.296C87.0358 8.4821 85.9321 6.8344 84.5415 5.44702C83.1509 4.05964 81.5006 2.95974 79.6849 2.21013C77.8693 1.46051 75.9237 1.07586 73.9594 1.07814V1.07814ZM88.0687 25.1307C88.0641 28.8644 86.5789 32.4439 83.9387 35.084C81.2986 37.7242 77.7191 39.2094 73.9854 39.214H16.015C12.2828 39.2071 8.70554 37.7209 6.06726 35.081C3.42899 32.4411 1.94493 28.8629 1.94035 25.1307V16.0189C1.94494 12.2875 3.42927 8.71023 6.06779 6.07171C8.70631 3.43319 12.2836 1.94885 16.015 1.94427H73.9594C75.81 1.94199 77.6429 2.30424 79.3535 3.01032C81.0641 3.71641 82.6188 4.75251 83.929 6.05947C85.2392 7.36642 86.2791 8.91864 86.9894 10.6275C87.6997 12.3363 88.0664 14.1684 88.0687 16.0189V25.1307ZM73.9594 1.07814H16.015C12.0539 1.08272 8.2563 2.65831 5.45534 5.45926C2.65439 8.26022 1.0788 12.0578 1.07422 16.0189V25.1307C1.07651 29.0933 2.65108 32.8931 5.45228 35.696C8.25348 38.4988 12.0524 40.0756 16.015 40.0802H73.9594C77.9273 40.0824 81.7338 38.509 84.542 35.7057C87.3502 32.9023 88.9302 29.0986 88.9348 25.1307V16.0189C88.9326 14.0546 88.5434 12.11 87.7896 10.296C87.0358 8.4821 85.9321 6.8344 84.5415 5.44702C83.1509 4.05964 81.5006 2.95974 79.6849 2.21013C77.8693 1.46051 75.9237 1.07586 73.9594 1.07814V1.07814ZM88.0687 25.1307C88.0641 28.8644 86.5789 32.4439 83.9387 35.084C81.2986 37.7242 77.7191 39.2094 73.9854 39.214H16.015C12.2828 39.2071 8.70554 37.7209 6.06726 35.081C3.42899 32.4411 1.94493 28.8629 1.94035 25.1307V16.0189C1.94494 12.2875 3.42927 8.71023 6.06779 6.07171C8.70631 3.43319 12.2836 1.94885 16.015 1.94427H73.9594C75.81 1.94199 77.6429 2.30424 79.3535 3.01032C81.0641 3.71641 82.6188 4.75251 83.929 6.05947C85.2392 7.36642 86.2791 8.91864 86.9894 10.6275C87.6997 12.3363 88.0664 14.1684 88.0687 16.0189V25.1307Z" fill="#D0D9DC"/>
<path d="M73.9678 0H16.0235C11.7752 0.00458531 7.70222 1.69424 4.69823 4.69823C1.69424 7.70222 0.00458531 11.7752 0 16.0235V25.1352C0.00458531 29.3835 1.69424 33.4565 4.69823 36.4605C7.70222 39.4644 11.7752 41.1541 16.0235 41.1587H73.9678C78.2176 41.1564 82.2928 39.4678 85.2987 36.4635C88.3046 33.4593 89.9954 29.385 90 25.1352V16.0235C89.9954 11.7737 88.3046 7.69942 85.2987 4.69518C82.2928 1.69094 78.2176 0.00229222 73.9678 0V0ZM87.826 16.0235V25.1352C87.826 28.8106 86.366 32.3355 83.767 34.9344C81.1681 37.5333 77.6433 38.9933 73.9678 38.9933H16.0235C12.3481 38.9933 8.8232 37.5333 6.22429 34.9344C3.62539 32.3355 2.16534 28.8106 2.16534 25.1352V16.0235C2.16534 12.3481 3.62539 8.8232 6.22429 6.22429C8.8232 3.62539 12.3481 2.16533 16.0235 2.16533H73.9678C75.7885 2.1642 77.5914 2.52181 79.2738 3.21774C80.9561 3.91366 82.4849 4.93427 83.7726 6.22123C85.0604 7.50819 86.082 9.03628 86.7789 10.7182C87.4759 12.4001 87.8347 14.2029 87.8347 16.0235H87.826Z" fill="#D0D9DC"/>
<path d="M73.9678 0H16.0235C11.7752 0.00458531 7.70222 1.69424 4.69823 4.69823C1.69424 7.70222 0.00458531 11.7752 0 16.0235V25.1352C0.00458531 29.3835 1.69424 33.4565 4.69823 36.4605C7.70222 39.4644 11.7752 41.1541 16.0235 41.1587H73.9678C78.2176 41.1564 82.2928 39.4678 85.2987 36.4635C88.3046 33.4593 89.9954 29.385 90 25.1352V16.0235C89.9954 11.7737 88.3046 7.69942 85.2987 4.69518C82.2928 1.69094 78.2176 0.00229222 73.9678 0V0ZM87.826 16.0235V25.1352C87.826 28.8106 86.366 32.3355 83.767 34.9344C81.1681 37.5333 77.6433 38.9933 73.9678 38.9933H16.0235C12.3481 38.9933 8.8232 37.5333 6.22429 34.9344C3.62539 32.3355 2.16534 28.8106 2.16534 25.1352V16.0235C2.16534 12.3481 3.62539 8.8232 6.22429 6.22429C8.8232 3.62539 12.3481 2.16533 16.0235 2.16533H73.9678C75.7885 2.1642 77.5914 2.52181 79.2738 3.21774C80.9561 3.91366 82.4849 4.93427 83.7726 6.22123C85.0604 7.50819 86.082 9.03628 86.7789 10.7182C87.4759 12.4001 87.8347 14.2029 87.8347 16.0235H87.826Z" fill="#D0D9DC"/>
<path d="M71.4286 5.17188H18.5944C14.4963 5.17188 10.5661 6.79983 7.66832 9.69761C4.77054 12.5954 3.14258 16.5256 3.14258 20.6237C3.14258 24.7218 4.77054 28.652 7.66832 31.5498C10.5661 34.4476 14.4963 36.0755 18.5944 36.0755H71.4286C75.5267 36.0755 79.4569 34.4476 82.3547 31.5498C85.2525 28.652 86.8804 24.7218 86.8804 20.6237C86.8804 16.5256 85.2525 12.5954 82.3547 9.69761C79.4569 6.79983 75.5267 5.17188 71.4286 5.17188V5.17188ZM31.4219 33.3039H28.9707V7.9435H31.4219V33.3039ZM61.061 33.3039H58.6358V7.9435H61.0869L61.061 33.3039Z" fill="#D0D9DC"/>
</svg>
