<svg width="91" height="42" viewBox="0 0 91 42" fill="none" xmlns="http://www.w3.org/2000/svg">
<path d="M32.1639 8.78516H29.748V33.6127H32.1639V8.78516Z" fill="#AAD8D8"/>
<path d="M61.3768 8.78516H58.9609V33.6127H61.3768V8.78516Z" fill="#AAD8D8"/>
<path d="M89.4175 14.0741L86.0541 6.73349L77.8762 1.75781H18.8636L10.5747 2.99537L5.49547 6.0808L3.13087 12.1838L1.91016 17.2697V24.5001L2.58454 28.1704L4.29183 33.0698L5.70889 36.2824L9.18323 38.5201L17.3697 40.6308H28.2537L37.6438 40.19L45.5486 40.6308H71.9263L81.3164 39.4017L86.7883 35.1635L88.009 29.7301L89.7163 22.8642L89.4175 14.0741ZM19.5294 36.3163C17.4997 36.364 15.4809 36.0083 13.5917 35.27C11.7025 34.5317 9.98105 33.4258 8.52855 32.0172C7.07606 30.6087 5.92185 28.926 5.13382 27.0681C4.34579 25.2101 3.93983 23.2145 3.93983 21.1985C3.93983 19.1826 4.34579 17.1869 5.13382 15.329C5.92185 13.4711 7.07606 11.7884 8.52855 10.3799C9.98105 8.97132 11.7025 7.86539 13.5917 7.1271C15.4809 6.38881 17.4997 6.03307 19.5294 6.0808H71.6019C75.5773 6.17428 79.3583 7.80807 82.1367 10.633C84.915 13.458 86.4704 17.2499 86.4704 21.1985C86.4704 25.1471 84.915 28.9391 82.1367 31.7641C79.3583 34.589 75.5773 36.2228 71.6019 36.3163H19.5294Z" fill="#AAD8D8"/>
<path d="M74.112 0.421875H17.003C12.6454 0.428606 8.46832 2.15105 5.38781 5.21149C2.3073 8.27192 0.574828 12.4205 0.570312 16.7475V25.6563C0.574828 29.9832 2.3073 34.1318 5.38781 37.1923C8.46832 40.2527 12.6454 41.9751 17.003 41.9819H74.112C78.4741 41.9819 82.6577 40.2624 85.7438 37.2012C88.8298 34.1401 90.5658 29.9876 90.5703 25.6563V16.7475C90.5658 12.4161 88.8298 8.26367 85.7438 5.20251C82.6577 2.14135 78.4741 0.421873 74.112 0.421875V0.421875ZM3.13125 16.7475C3.13351 13.0943 4.59545 9.59116 7.19618 7.00714C9.7969 4.42311 13.3239 2.9693 17.003 2.96481H74.112C75.9359 2.96369 77.7422 3.31932 79.4277 4.01136C81.1132 4.7034 82.6449 5.71831 83.9354 6.99815C85.2259 8.278 86.2499 9.7977 86.9489 11.4705C87.6479 13.1433 88.0083 14.9364 88.0094 16.7475V25.6563C88.0049 29.3103 86.541 32.8133 83.9389 35.3971C81.3369 37.9809 77.809 39.4345 74.1291 39.4389H17.003C13.3246 39.4322 9.7989 37.9777 7.19867 35.3941C4.59843 32.8106 3.13577 29.3088 3.13125 25.6563V16.7475Z" fill="#AAD8D8"/>
<path d="M32.1639 8.78516H29.748V33.6127H32.1639V8.78516Z" fill="white"/>
<path d="M61.3768 8.78516H58.9609V33.6127H61.3768V8.78516Z" fill="white"/>
<path d="M32.1639 8.78516H29.748V33.6127H32.1639V8.78516Z" fill="#AAD8D8"/>
<path d="M61.3768 8.78516H58.9609V33.6127H61.3768V8.78516Z" fill="#AAD8D8"/>
</svg>
