<svg width="90" height="42" viewBox="0 0 90 42" fill="none" xmlns="http://www.w3.org/2000/svg">
<path d="M73.9679 0H16.0235C11.7752 0.00458531 7.70222 1.69424 4.69823 4.69823C1.69424 7.70222 0.00458531 11.7752 0 16.0235V25.1352C0.00458531 29.3835 1.69424 33.4565 4.69823 36.4605C7.70222 39.4645 11.7752 41.1541 16.0235 41.1587H73.9679C78.2176 41.1564 82.2928 39.4678 85.2987 36.4635C88.3046 33.4593 89.9954 29.385 90 25.1352V16.0235C89.9931 11.7744 88.3015 7.70145 85.2962 4.6977C82.2908 1.69396 78.2169 0.0045806 73.9679 0ZM87.826 16.0235V25.1352C87.826 28.8106 86.366 32.3355 83.767 34.9344C81.1681 37.5333 77.6433 38.9934 73.9679 38.9934H16.0235C12.3481 38.9934 8.8232 37.5333 6.22429 34.9344C3.62539 32.3355 2.16534 28.8106 2.16534 25.1352V16.0235C2.16534 12.3481 3.62539 8.8232 6.22429 6.2243C8.8232 3.62539 12.3481 2.16534 16.0235 2.16534H73.9679C75.7885 2.1642 77.5915 2.52181 79.2738 3.21774C80.9562 3.91367 82.4849 4.93427 83.7726 6.22123C85.0604 7.50819 86.082 9.03629 86.7789 10.7182C87.4759 12.4001 87.8347 14.2029 87.8347 16.0235H87.826Z" fill="#D0D9DC"/>
<path d="M71.4018 5.13714H18.5676C16.5083 5.08838 14.4599 5.45188 12.5431 6.20627C10.6262 6.96066 8.87959 8.09072 7.40585 9.52998C5.9321 10.9692 4.76101 12.6886 3.96145 14.5871C3.16189 16.4855 2.75 18.5247 2.75 20.5846C2.75 22.6446 3.16189 24.6838 3.96145 26.5822C4.76101 28.4807 5.9321 30.2001 7.40585 31.6393C8.87959 33.0786 10.6262 34.2086 12.5431 34.963C14.4599 35.7174 16.5083 36.0809 18.5676 36.0321H71.4018C73.4612 36.0809 75.5096 35.7174 77.4264 34.963C79.3432 34.2086 81.0899 33.0786 82.5636 31.6393C84.0374 30.2001 85.2085 28.4807 86.008 26.5822C86.8076 24.6838 87.2195 22.6446 87.2195 20.5846C87.2195 18.5247 86.8076 16.4855 86.008 14.5871C85.2085 12.6886 84.0374 10.9692 82.5636 9.52998C81.0899 8.09072 79.3432 6.96066 77.4264 6.20627C75.5096 5.45188 73.4612 5.08838 71.4018 5.13714ZM61.0082 33.2692H58.5484V7.90011H61.0082V33.2692Z" fill="#D0D9DC"/>
</svg>
