<svg width="91" height="42" viewBox="0 0 91 42" fill="none" xmlns="http://www.w3.org/2000/svg">
<path d="M61.7171 8.78516H59.3008V33.6127H61.7171V8.78516Z" fill="#AAD8D8"/>
<path d="M89.7813 14.0741L86.366 6.73349L78.2207 1.75781H19.1627L10.8722 2.99537L5.82623 6.0808L3.46118 12.1838L2.24023 17.2697V24.5001L2.91474 28.1704L4.62236 33.0698L6.03968 36.2824L9.52322 38.5541L17.7113 40.6647H28.5802L37.9721 40.2239L45.8784 40.6647H72.2611L81.653 39.4356L87.1259 35.1974L88.3383 29.7301L90.0972 22.8303L89.7813 14.0741ZM19.8629 36.3163C17.8328 36.364 15.8136 36.0083 13.924 35.27C12.0345 34.5317 10.3127 33.4258 8.85989 32.0172C7.40711 30.6087 6.25269 28.926 5.46451 27.0681C4.67633 25.2101 4.2703 23.2145 4.2703 21.1985C4.2703 19.1826 4.67633 17.1869 5.46451 15.329C6.25269 13.4711 7.40711 11.7884 8.85989 10.3799C10.3127 8.97132 12.0345 7.86539 13.924 7.1271C15.8136 6.38881 17.8328 6.03307 19.8629 6.0808H71.9452C75.9214 6.17428 79.7031 7.80807 82.482 10.633C85.2609 13.458 86.8165 17.2499 86.8165 21.1985C86.8165 25.1471 85.2609 28.9391 82.482 31.7641C79.7031 34.589 75.9214 36.2228 71.9452 36.3163H19.8629Z" fill="#BB8ABE"/>
<path d="M74.456 0.421875H17.3362C12.9778 0.428606 8.79989 2.15105 5.7188 5.21149C2.63771 8.27192 0.904907 12.4205 0.900391 16.7475V25.6563C0.904907 29.9832 2.63771 34.1318 5.7188 37.1923C8.79989 40.2527 12.9778 41.9751 17.3362 41.9819H74.456C78.816 41.9774 82.996 40.2559 86.079 37.1953C89.1619 34.1346 90.8959 29.9847 90.9004 25.6563V16.7475C90.8959 12.4191 89.1619 8.26918 86.079 5.2085C82.996 2.14782 78.816 0.426363 74.456 0.421875V0.421875ZM3.46182 16.7475C3.46408 13.0943 4.92629 9.59116 7.52751 7.00714C10.1287 4.42311 13.6564 2.9693 17.3362 2.96481H74.456C78.1373 2.96705 81.6672 4.41988 84.2702 7.00415C86.8733 9.58842 88.3367 13.0928 88.339 16.7475V25.6563C88.3344 29.3103 86.8703 32.8133 84.2678 35.3971C81.6652 37.9809 78.1366 39.4345 74.456 39.4389H17.3362C13.6571 39.4322 10.1307 37.9777 7.53 35.3941C4.92927 32.8106 3.46633 29.3088 3.46182 25.6563V16.7475Z" fill="#BB8ABE"/>
<path d="M61.7171 8.78516H59.3008V33.6127H61.7171V8.78516Z" fill="#BB8ABE"/>
</svg>
