<svg width="50" height="50" viewBox="0 0 50 50" fill="none" xmlns="http://www.w3.org/2000/svg">
<path d="M25.0028 49.9548C18.8055 49.9516 12.8298 47.6489 8.23276 43.4927C7.31604 42.6546 6.4605 41.7519 5.67271 40.7916C5.48663 40.5717 5.30619 40.3349 5.10883 40.0981C4.79869 39.6977 4.50547 39.2804 4.22352 38.8688C3.88519 38.3613 3.56377 37.8369 3.26491 37.3181C2.96605 36.7993 2.73486 36.3539 2.47547 35.8182C0.847533 32.431 0.00153564 28.7214 0 24.9633C0.00123527 23.6415 0.104927 22.3219 0.31014 21.0161C1.11991 16.1127 3.36303 11.5588 6.7568 7.92816C10.1506 4.29757 14.5431 1.75282 19.3808 0.614638C19.9842 0.473666 20.6101 0.355249 21.2304 0.259388H21.2811C21.9183 0.163527 22.5555 0.095861 23.1814 0.05075C23.5198 0.0225556 23.8581 0.00563888 24.2021 0C24.766 0 25.3298 0 25.8937 0C26.2772 0 26.655 0.0338327 27.0215 0.0676659C28.8511 0.210704 30.6592 0.556804 32.4123 1.09958C38.2958 2.93068 43.2985 6.86535 46.4644 12.1518C46.7125 12.5691 46.9268 12.9469 47.1185 13.3134C49.0196 16.9058 50.0091 20.9102 49.9999 24.9746V25.2001C49.9796 28.4662 49.3146 31.6961 48.0431 34.7045C46.7716 37.713 44.9186 40.4408 42.5905 42.7314C42.348 42.9683 42.0999 43.2051 41.8405 43.4419C41.5811 43.6788 41.3499 43.8818 41.0962 44.096C37.5631 47.0804 33.2663 49.0178 28.6906 49.6898C27.4698 49.8715 26.237 49.9601 25.0028 49.9548V49.9548ZM21.3939 1.66347C20.83 1.75369 20.2661 1.86083 19.7022 1.99052C15.1393 3.0659 10.9967 5.46787 7.79663 8.89374C4.59654 12.3196 2.48213 16.6161 1.71986 21.2417C1.52588 22.4746 1.42785 23.7208 1.42664 24.969C1.42258 28.5147 2.22066 32.0155 3.76113 35.2092C4.00924 35.7167 4.25172 36.179 4.50547 36.6245C4.75921 37.07 5.06935 37.6113 5.41333 38.0906C5.67271 38.4797 5.97721 38.8688 6.24788 39.2522C6.41141 39.4722 6.58057 39.6864 6.76102 39.9007C8.36988 41.8734 10.2898 43.5704 12.445 44.9249C16.2045 47.2946 20.5588 48.5499 25.0028 48.5451C26.156 48.5468 27.3077 48.462 28.4481 48.2914C32.773 47.6585 36.8352 45.8306 40.177 43.0134C40.4138 42.8104 40.6507 42.6074 40.8819 42.3931C41.1131 42.1788 41.3555 41.9533 41.5867 41.7221C43.7857 39.5594 45.5355 36.9834 46.7355 34.1422C47.9355 31.3009 48.562 28.2505 48.5789 25.1663V24.969C48.5829 21.1351 47.6499 17.3584 45.861 13.9675C45.6636 13.5897 45.4606 13.2288 45.2464 12.8736C43.3236 9.64771 40.6567 6.92891 37.4685 4.94437C34.2802 2.95982 30.6633 1.76718 26.92 1.46611C26.5648 1.46611 26.2039 1.41536 25.8486 1.40408C25.2847 1.40408 24.7603 1.40408 24.2754 1.40408C23.954 1.40408 23.6325 1.40408 23.3168 1.45483C22.7078 1.49994 22.0819 1.56761 21.4672 1.66347H21.3939Z" fill="#BB8ABE"/>
<path d="M33.2635 14.9219H27.416V15.8579H33.2635V14.9219Z" fill="#BB8ABE"/>
<path d="M42.9064 20.4918C42.5521 19.0543 42.0218 17.6661 41.3275 16.3585C41.1752 16.0653 41.0117 15.7946 40.8482 15.5014C40.1209 14.2806 39.2583 13.1457 38.2768 12.1181C35.1607 8.88072 30.9656 6.89852 26.486 6.54684C26.2097 6.54684 25.9221 6.50737 25.6458 6.49609H25.0029H24.439C24.1853 6.49609 23.9372 6.49609 23.6834 6.53557C23.1985 6.5694 22.7192 6.62015 22.2399 6.69345C21.7606 6.76676 21.3207 6.85134 20.8696 6.95284C17.2877 7.77927 14.0334 9.65463 11.5224 12.3394C9.01145 15.0241 7.3577 18.3964 6.77243 22.0256C6.62275 22.9901 6.54734 23.9648 6.54688 24.9409C6.54604 26.734 6.80628 28.5177 7.3194 30.2358C7.59668 31.1688 7.94934 32.0778 8.37387 32.9537C8.55432 33.3315 8.75168 33.7037 8.93776 34.0815C9.12385 34.4593 9.40015 34.854 9.64826 35.2093C9.89637 35.5645 10.0712 35.8239 10.3024 36.1228C10.4302 36.2919 10.5655 36.4611 10.7084 36.6303C11.2865 37.3409 11.918 38.0063 12.5974 38.6208C13.3917 39.3394 14.2463 39.9884 15.1518 40.5606C18.0949 42.4121 21.5033 43.3898 24.9804 43.38C25.8825 43.3828 26.7836 43.3169 27.6758 43.1826C31.0656 42.7123 34.2547 41.2975 36.8784 39.1001C37.0645 38.9422 37.2506 38.7843 37.4423 38.6151C37.634 38.446 37.8145 38.2712 38.0062 38.0907C39.7264 36.3952 41.0951 34.3767 42.0337 32.1512C42.9723 29.9256 43.4624 27.5367 43.4759 25.1213C43.4787 25.0706 43.4787 25.0198 43.4759 24.9691C43.4715 23.4589 43.2802 21.955 42.9064 20.4918ZM32.3617 19.5557C32.221 19.6269 32.076 19.689 31.9275 19.7418C31.4211 19.9329 30.8842 20.0303 30.3429 20.0294C29.6534 20.0301 28.9727 19.8739 28.3524 19.5727C28.0314 19.4225 27.7302 19.2331 27.4558 19.0088C26.9249 18.5707 26.4977 18.0203 26.2052 17.3972C25.9126 16.7741 25.762 16.0939 25.7642 15.4055C25.7642 15.2533 25.7642 15.1067 25.7642 14.9657C25.8779 13.7596 26.4538 12.6442 27.3713 11.853C28.1957 11.1465 29.2459 10.7584 30.3317 10.7591C31.045 10.758 31.7485 10.9262 32.3842 11.2497C32.5811 11.3512 32.7696 11.4681 32.9481 11.5993H32.9819H33.0158C33.2959 11.8062 33.5513 12.0446 33.777 12.3098C33.8823 12.4338 33.9838 12.5635 34.0815 12.6989L34.121 12.7609C34.4871 13.3114 34.7324 13.9331 34.8407 14.5853C34.9491 15.2374 34.9181 15.9051 34.7498 16.5444C34.5814 17.1837 34.2796 17.7801 33.8641 18.2943C33.4485 18.8084 32.9288 19.2288 32.3391 19.5275L32.3617 19.5557Z" fill="#BB8ABE"/>
<path d="M33.2635 14.9219H27.416V15.8579H33.2635V14.9219Z" fill="white"/>
<path d="M33.2635 14.9219H27.416V15.8579H33.2635V14.9219Z" fill="#BB8ABE"/>
</svg>
