<svg width="51" height="51" viewBox="0 0 51 51" fill="none" xmlns="http://www.w3.org/2000/svg">
<path d="M25.2597 50.7802C21.5605 50.7838 17.9069 49.9637 14.5639 48.3794C11.2208 46.7952 8.27219 44.4864 5.93184 41.6207C5.74578 41.4008 5.56535 41.1695 5.36802 40.9326C5.05791 40.5266 4.75909 40.1092 4.48281 39.6975C4.14452 39.1955 3.82314 38.671 3.52431 38.1464C3.22548 37.6219 2.98868 37.1707 2.73496 36.6462C1.10501 33.2591 0.258988 29.5481 0.259766 25.789C0.261001 24.4669 0.364681 23.147 0.569871 21.8409C1.37774 16.9367 3.61929 12.3815 7.01184 8.74996C10.4044 5.11841 14.796 2.57312 19.6328 1.43508C20.2473 1.29408 20.8676 1.17 21.4878 1.07976H21.5441C22.1813 0.989515 22.824 0.916194 23.4442 0.871073C23.7825 0.871073 24.1208 0.831593 24.4648 0.820312C25.0286 0.820312 25.5924 0.820312 26.1562 0.820312C26.5396 0.820312 26.9174 0.859793 27.2839 0.887993C29.1134 1.03055 30.9212 1.37674 32.674 1.92013C38.5593 3.75017 43.5625 7.68852 46.7245 12.9804C46.9557 13.3582 47.17 13.7474 47.3786 14.1422C49.2786 17.7337 50.2679 21.7369 50.2597 25.8003V26.0259C50.2394 29.2926 49.5744 32.5232 48.3031 35.5323C47.0317 38.5414 45.179 41.2698 42.8511 43.5609C42.6086 43.8034 42.3605 44.0347 42.1012 44.2716C41.8418 44.5085 41.6107 44.7115 41.3569 44.9258C36.8522 48.7202 31.1487 50.7945 25.2597 50.7802V50.7802ZM21.6513 2.4785C21.0874 2.56874 20.5236 2.6759 19.9598 2.80562C15.3966 3.88161 11.2539 6.28494 8.05411 9.71263C4.85431 13.1403 2.74059 17.4389 1.97943 22.0665C1.78548 23.2979 1.68745 24.5425 1.68624 25.789C1.68434 28.081 2.01674 30.3611 2.67294 32.5571C3.02873 33.7493 3.47935 34.9111 4.02048 36.0314C4.26292 36.5277 4.511 37.0071 4.76472 37.4471C5.01845 37.887 5.32855 38.4397 5.67248 38.9135C5.93184 39.3027 6.23631 39.6918 6.50694 40.0753C6.67045 40.2953 6.84524 40.5153 7.02002 40.724C8.6287 42.6971 10.5484 44.3945 12.7034 45.7493C16.4624 48.1195 20.8162 49.375 25.2597 49.3702C26.4128 49.3722 27.5644 49.2873 28.7047 49.1164C33.0305 48.4884 37.0935 46.6595 40.4323 43.8373C40.6691 43.6342 40.9059 43.4312 41.137 43.2225L41.8418 42.5513C44.0402 40.3868 45.7896 37.8092 46.9894 34.9665C48.1891 32.1238 48.8158 29.072 48.8332 25.9864V25.789C48.8323 23.8707 48.5975 21.9596 48.1341 20.0981C47.6795 18.2607 47.0017 16.4859 46.1156 14.8134C45.9183 14.4411 45.7097 14.0745 45.501 13.7192C43.5818 10.4874 40.9166 7.76248 37.7285 5.77247C34.5404 3.78247 30.9223 2.58528 27.1767 2.2811C26.8215 2.2811 26.4607 2.23034 26.1055 2.21905C25.5417 2.21905 25.0173 2.21905 24.5324 2.21905C24.211 2.21905 23.8896 2.21905 23.5739 2.26982C22.965 2.3093 22.3448 2.38262 21.7246 2.47286L21.6513 2.4785Z" fill="#D0D9DC"/>
<path d="M31.0624 15.7312H33.5263V16.6675H31.0624V19.166H30.1377V16.6675H27.6738V15.7312H30.1377V13.2383H31.0624V15.7312Z" fill="#C8D1D3"/>
<path d="M41.5836 17.1762C42.2793 18.484 42.8114 19.8725 43.1679 21.3104C43.5362 22.771 43.7256 24.271 43.7317 25.7773C43.7345 25.8299 43.7345 25.8826 43.7317 25.9352C43.7182 28.3511 43.2282 30.7406 42.2897 32.9666C41.3512 35.1926 39.9827 37.2115 38.2626 38.9074C38.0709 39.0879 37.8905 39.2628 37.6988 39.432C37.5071 39.6012 37.3267 39.7591 37.135 39.917C34.5224 42.1238 31.3449 43.5558 27.9616 44.0512C27.0673 44.1827 26.1647 44.2486 25.2608 44.2486C20.6777 44.2516 16.257 42.551 12.8567 39.4771C12.1787 38.8611 11.5474 38.1956 10.9679 37.4861C10.8269 37.3169 10.6916 37.1477 10.5619 36.9729C10.3438 36.6892 10.1678 36.4371 9.932 36.0993L9.9079 36.0648C9.65982 35.7095 9.38918 35.3147 9.20312 34.9368C9.01706 34.5589 8.81972 34.1867 8.6393 33.8088C8.21481 32.9327 7.86219 32.0235 7.58494 31.0903C7.07141 29.3699 6.8112 27.584 6.8125 25.7886C6.81319 24.8141 6.88859 23.8412 7.03803 22.8783C7.62108 19.2475 9.27391 15.8734 11.785 13.1877C14.296 10.5019 17.5511 8.62685 21.1336 7.80233C21.5847 7.70081 22.0414 7.61057 22.5037 7.54289C22.9774 7.46957 23.4566 7.4188 23.9471 7.37932L24.697 7.33984H25.2608H25.9036C26.1799 7.34548 26.4674 7.38496 26.7437 7.38496C29.6761 7.62086 32.5095 8.55482 35.0076 10.1089C37.5057 11.6631 39.5961 13.7922 41.1043 16.3189C41.2678 16.6122 41.4313 16.8829 41.5836 17.1762Z" fill="#D0D9DC"/>
<path d="M33.5263 15.7312V16.6675H31.0624V19.166H30.1377V16.6675H27.6738V15.7312H30.1377V13.2383H31.0624V15.7312H33.5263Z" fill="white"/>
<path d="M33.5263 15.7312V16.6675H31.0624V19.166H30.1377V16.6675H27.6738V15.7312H30.1377V13.2383H31.0624V15.7312H33.5263Z" fill="#D0D9DC"/>
</svg>
