<svg width="50" height="50" viewBox="0 0 50 50" fill="none" xmlns="http://www.w3.org/2000/svg">
<path d="M25.0028 49.9548C18.8055 49.9516 12.8298 47.6489 8.23276 43.4927C7.31604 42.6546 6.4605 41.7519 5.67271 40.7916C5.48663 40.5717 5.30619 40.3349 5.10883 40.1037C4.79869 39.6977 4.50547 39.2804 4.22352 38.8688C3.88519 38.3613 3.56377 37.8369 3.26491 37.3181C2.96605 36.7993 2.72922 36.3426 2.47547 35.8182C0.847533 32.431 0.00153564 28.7214 0 24.9633C0.00123527 23.6415 0.104927 22.3219 0.31014 21.0161C1.12021 16.1137 3.36274 11.5607 6.75533 7.93027C10.1479 4.29987 14.5389 1.75448 19.3752 0.614638C19.9842 0.473666 20.6101 0.355249 21.2304 0.259388H21.2811C21.9183 0.163527 22.5555 0.095861 23.1814 0.05075C23.5198 0.0225556 23.8581 0.00563888 24.2021 0C24.766 0 25.3298 0 25.8937 0C26.2772 0 26.655 0.0338327 27.0215 0.0676659C28.8511 0.210704 30.6592 0.556804 32.4123 1.09958C38.2958 2.93068 43.2985 6.86535 46.4644 12.1518C46.6956 12.5352 46.9098 12.9187 47.1185 13.3134C49.0196 16.9058 50.0091 20.9102 49.9999 24.9746V25.2001C49.9796 28.4662 49.3146 31.6961 48.0431 34.7045C46.7716 37.713 44.9186 40.4408 42.5905 42.7314C42.348 42.9683 42.0999 43.2051 41.8405 43.4419C41.5811 43.6788 41.3499 43.8818 41.0962 44.096C37.5631 47.0804 33.2663 49.0178 28.6906 49.6898C27.4698 49.8715 26.237 49.9601 25.0028 49.9548V49.9548ZM21.3939 1.66347C20.83 1.75369 20.2661 1.86083 19.7022 1.99052C15.1393 3.0659 10.9967 5.46787 7.79663 8.89374C4.59654 12.3196 2.48213 16.6161 1.71986 21.2417C1.52588 22.4746 1.42785 23.7208 1.42664 24.969C1.42258 28.5147 2.22066 32.0155 3.76113 35.2092C4.00361 35.7054 4.25172 36.179 4.50547 36.6245C4.75921 37.07 5.06935 37.6113 5.41333 38.0906C5.67271 38.4797 5.97721 38.8688 6.24788 39.2522C6.41141 39.4722 6.58057 39.6864 6.76102 39.9007C8.36988 41.8734 10.2898 43.5704 12.445 44.9249C16.2045 47.2946 20.5588 48.5499 25.0028 48.5451C26.156 48.5468 27.3077 48.462 28.4481 48.2914C32.7737 47.6612 36.8366 45.8329 40.177 43.0134C40.4138 42.8104 40.6507 42.6074 40.8819 42.3931C41.1131 42.1788 41.3555 41.9533 41.5867 41.7221C43.7857 39.5594 45.5355 36.9834 46.7355 34.1422C47.9355 31.3009 48.562 28.2505 48.5789 25.1663V24.969C48.581 23.0416 48.3461 21.1212 47.8797 19.2511C47.4251 17.4141 46.7472 15.6397 45.861 13.9675C45.6636 13.5897 45.455 13.2288 45.2464 12.8736C43.3236 9.64771 40.6567 6.92891 37.4685 4.94437C34.2802 2.95982 30.6633 1.76718 26.92 1.46611C26.5648 1.46611 26.2039 1.41536 25.8486 1.40408C25.2847 1.40408 24.7603 1.40408 24.2754 1.40408C23.954 1.40408 23.6325 1.40408 23.3168 1.45483C22.7078 1.49994 22.0819 1.56761 21.4672 1.66347H21.3939Z" fill="#AAD8D8"/>
<path d="M30.805 14.9199H33.2692V15.856H30.805V18.3483H29.8802V15.856H27.416V14.9199H29.8802V12.4219H30.805V14.9199Z" fill="#AAD8D8"/>
<path d="M42.9122 20.4918C42.5557 19.0542 42.0235 17.666 41.3277 16.3585C41.1755 16.0653 41.0119 15.7946 40.8484 15.5014C40.123 14.2793 39.2603 13.1442 38.2771 12.1181C36.1214 9.88136 33.4347 8.22666 30.4672 7.30809C29.1727 6.90702 27.8374 6.65169 26.4862 6.54684C26.2099 6.54684 25.9223 6.50737 25.646 6.49609H25.0031H24.4393C24.1855 6.49609 23.9374 6.49609 23.6893 6.53557C23.1987 6.5694 22.7194 6.62015 22.2457 6.69345C21.7833 6.76112 21.3266 6.85134 20.8755 6.95284C17.2936 7.77927 14.0393 9.65463 11.5283 12.3394C9.0173 15.0241 7.36356 18.3964 6.77829 22.0256C6.62861 22.9901 6.5532 23.9648 6.55274 24.9409C6.5519 26.734 6.81214 28.5177 7.32526 30.2358C7.60254 31.1688 7.95519 32.0778 8.37973 32.9537C8.56018 33.3315 8.75754 33.7037 8.94362 34.0815C9.12971 34.4593 9.40037 34.854 9.64848 35.2093C9.89659 35.5645 10.077 35.8239 10.3026 36.1228C10.4304 36.2919 10.5657 36.4611 10.7086 36.6303C11.2867 37.3409 11.9182 38.0063 12.5976 38.6208C13.3919 39.3394 14.2465 39.9884 15.152 40.5606C18.0958 42.4107 21.5037 43.3883 24.9806 43.38C25.8846 43.3828 26.7876 43.3169 27.6816 43.1826C31.0694 42.711 34.2563 41.2963 36.8786 39.1001C37.0704 38.9422 37.2508 38.7843 37.4425 38.6151C37.6342 38.446 37.8147 38.2712 38.0064 38.0907C39.7266 36.3952 41.0953 34.3767 42.0339 32.1512C42.9725 29.9256 43.4626 27.5367 43.4761 25.1213C43.4789 25.0706 43.4789 25.0198 43.4761 24.9691C43.4705 23.4593 43.2811 21.9558 42.9122 20.4918V20.4918ZM32.3619 19.5557C32.2227 19.6259 32.0796 19.688 31.9333 19.7418C31.3571 19.9574 30.743 20.0535 30.1284 20.0245C29.5139 19.9954 28.9116 19.8417 28.3583 19.5727C28.0355 19.4225 27.7324 19.2331 27.4561 19.0088C26.9248 18.571 26.4974 18.0206 26.2048 17.3975C25.9123 16.7743 25.7618 16.0939 25.7644 15.4055C25.7644 15.2552 25.7644 15.1085 25.7644 14.9657C25.8781 13.7596 26.454 12.6442 27.3715 11.853C28.1959 11.1465 29.2461 10.7584 30.3319 10.7591C31.0452 10.758 31.7487 10.9262 32.3844 11.2497C32.5813 11.3512 32.7698 11.4681 32.9483 11.5993H32.9878C33.2685 11.8076 33.5256 12.0458 33.7547 12.3098C33.8618 12.4338 33.9577 12.5635 34.0536 12.6989L34.093 12.7609C34.4591 13.3114 34.7044 13.9331 34.8128 14.5853C34.9212 15.2374 34.8902 15.9051 34.7218 16.5444C34.5535 17.1837 34.2516 17.7801 33.8361 18.2943C33.4206 18.8084 32.9008 19.2288 32.3111 19.5275L32.3619 19.5557Z" fill="#AAD8D8"/>
<path d="M33.2692 14.9199V15.856H30.805V18.3483H29.8802V15.856H27.416V14.9199H29.8802V12.4219H30.805V14.9199H33.2692Z" fill="white"/>
<path d="M33.2692 14.9199V15.856H30.805V18.3483H29.8802V15.856H27.416V14.9199H29.8802V12.4219H30.805V14.9199H33.2692Z" fill="#AAD8D8"/>
</svg>
