<svg width="51" height="51" viewBox="0 0 51 51" fill="none" xmlns="http://www.w3.org/2000/svg">
<path d="M25.2682 50.7803C21.5677 50.7838 17.9129 49.9637 14.5687 48.3795C11.2245 46.7952 8.2749 44.4865 5.93376 41.6208C5.74763 41.4008 5.56715 41.1696 5.36974 40.9327C5.05954 40.5266 4.76061 40.1092 4.48424 39.6975C4.14583 39.1955 3.82434 38.671 3.52541 38.1465C3.22649 37.6219 2.99524 37.182 2.73579 36.6462C1.10529 33.2591 0.258987 29.5481 0.259766 25.789C0.261002 24.467 0.364717 23.147 0.569976 21.8409C1.37852 16.9359 3.62166 12.3803 7.01643 8.74863C10.4112 5.11701 14.8055 2.57214 19.645 1.43508C20.2541 1.29408 20.8745 1.17 21.4949 1.07976H21.5513C22.1887 0.989515 22.8317 0.916194 23.4521 0.871073C23.7905 0.871073 24.1289 0.831593 24.4729 0.820312C25.037 0.820312 25.601 0.820312 26.165 0.820312C26.5485 0.820312 26.9264 0.859793 27.293 0.887993C29.1231 1.03055 30.9316 1.37674 32.685 1.92013C36.6946 3.16705 40.3257 5.40347 43.2434 8.42316C44.5754 9.79865 45.7432 11.3242 46.7233 12.9691C46.9715 13.3864 47.1858 13.7643 47.3776 14.1309C49.2783 17.7224 50.2679 21.7256 50.2597 25.789V26.0146C50.2394 29.2814 49.5742 32.512 48.3024 35.521C47.0306 38.5301 45.1772 41.2585 42.8486 43.5497C42.606 43.7922 42.3579 44.0234 42.0984 44.2603C41.839 44.4972 41.6077 44.7003 41.3539 44.9146C37.8199 47.9003 33.5225 49.84 28.9456 50.5152C27.7279 50.6936 26.4988 50.7822 25.2682 50.7803V50.7803ZM21.6585 2.4785C21.0945 2.56874 20.5305 2.6759 19.9665 2.80563C15.4017 3.88162 11.2576 6.28495 8.05675 9.71264C4.85587 13.1403 2.74143 17.4389 1.98001 22.0666C1.78599 23.2979 1.68794 24.5425 1.68673 25.789C1.68482 28.0811 2.01733 30.3611 2.67375 32.5571C3.02967 33.7493 3.48044 34.9112 4.02175 36.0314C4.26992 36.539 4.51244 37.0015 4.76625 37.4471C5.02006 37.8927 5.33026 38.4398 5.67431 38.9135C5.93376 39.3027 6.23833 39.6919 6.50906 40.0754C6.67262 40.2953 6.84746 40.5153 7.02231 40.724C8.63153 42.6971 10.5518 44.3945 12.7076 45.7493C16.4679 48.1195 20.8232 49.375 25.2682 49.3703C26.4216 49.372 27.5736 49.2872 28.7143 49.1165C33.0416 48.4885 37.106 46.6595 40.4459 43.8373C40.6827 43.6343 40.9196 43.4312 41.1509 43.2226L41.8559 42.5514C44.0551 40.3869 45.805 37.8092 47.0052 34.9665C48.2054 32.1238 48.8322 29.072 48.8497 25.9864V25.789C48.8537 21.9544 47.9204 18.1768 46.1311 14.7852C45.9337 14.4129 45.7307 14.0463 45.5163 13.691C43.5931 10.4645 40.9256 7.74508 37.7367 5.76011C34.5477 3.77513 30.93 2.58224 27.1859 2.2811C26.8305 2.2811 26.4696 2.23034 26.1142 2.21906C25.5502 2.21906 25.0257 2.21906 24.5406 2.21906C24.2191 2.21906 23.8976 2.21906 23.5818 2.26982C22.9727 2.3093 22.3522 2.38262 21.7318 2.47286L21.6585 2.4785Z" fill="#D0D9DC"/>
<path d="M33.5324 15.7344H27.6836V16.6706H33.5324V15.7344Z" fill="#C8D1D3"/>
<path d="M43.1763 21.3104C42.8219 19.8726 42.2915 18.484 41.5971 17.1762C41.4448 16.8829 41.2812 16.6122 41.1176 16.3189C40.3899 15.1067 39.5271 13.9809 38.5457 12.963C36.3911 10.7239 33.7033 9.06853 30.7341 8.15202C29.4387 7.75207 28.1035 7.49486 26.7522 7.38496C26.4758 7.38496 26.1882 7.34548 25.9118 7.33984H25.2688H24.7048L23.949 7.37932C23.464 7.4188 22.9846 7.46957 22.5051 7.54289C22.0257 7.61621 21.5858 7.70081 21.1346 7.80233C17.5509 8.62685 14.2947 10.5019 11.7828 13.1877C9.27084 15.8734 7.61745 19.2475 7.03421 22.8783C6.88471 23.8412 6.80929 24.8142 6.8086 25.7886C6.8073 27.584 7.0676 29.37 7.5813 31.0903C7.85864 32.0235 8.21137 32.9327 8.63601 33.8088C8.81649 34.1867 9.0139 34.5589 9.20002 34.9368C9.38615 35.3147 9.66252 35.7095 9.91068 36.0649C10.1589 36.4202 10.3337 36.6796 10.5649 36.9729C10.6947 37.1477 10.83 37.317 10.971 37.4862C11.5507 38.1956 12.1823 38.8611 12.8605 39.4771C16.2619 42.5511 20.6842 44.2516 25.2688 44.2486C29.615 44.2499 33.8219 42.7157 37.147 39.917C37.3331 39.7591 37.5192 39.6012 37.711 39.432C37.9028 39.2628 38.0832 39.0879 38.275 38.9075C39.9956 37.2115 41.3646 35.1927 42.3034 32.9666C43.2422 30.7406 43.7325 28.3511 43.746 25.9352C43.7488 25.8826 43.7488 25.8299 43.746 25.7773C43.7407 24.2706 43.5494 22.7702 43.1763 21.3104V21.3104ZM32.6292 20.3741C32.4882 20.4418 32.3472 20.5038 32.1949 20.5602C31.6884 20.7514 31.1514 20.8488 30.61 20.8479C29.565 20.8457 28.5536 20.4787 27.7505 19.8101C27.2186 19.3714 26.7909 18.8199 26.4983 18.1956C26.2057 17.5714 26.0554 16.8899 26.0584 16.2004C26.0584 16.0538 26.0584 15.9071 26.0584 15.7605C26.1719 14.5556 26.7481 13.4416 27.6659 12.6528C28.4905 11.9461 29.5409 11.558 30.627 11.5586C31.3405 11.5576 32.0441 11.7257 32.68 12.0493C32.8769 12.1509 33.0654 12.2678 33.244 12.399H33.2778H33.3117C33.5918 12.606 33.8473 12.8444 34.0731 13.1097C34.1784 13.2337 34.2799 13.3635 34.3777 13.4988L34.4171 13.5609C34.7833 14.1115 35.0287 14.7334 35.1371 15.3857C35.2455 16.0379 35.2145 16.7058 35.0461 17.3452C34.8777 17.9846 34.5757 18.5811 34.1601 19.0954C33.7445 19.6097 33.2247 20.0301 32.6349 20.329L32.6292 20.3741Z" fill="#D0D9DC"/>
<path d="M33.5324 15.7344H27.6836V16.6706H33.5324V15.7344Z" fill="white"/>
<path d="M33.5324 15.7344H27.6836V16.6706H33.5324V15.7344Z" fill="#D0D9DC"/>
</svg>
