<svg width="40" height="99" viewBox="0 0 40 99" fill="none" xmlns="http://www.w3.org/2000/svg">
<path d="M19.9801 98.3758C15.7053 98.394 11.5383 97.0342 8.09705 94.498C4.65577 91.9618 2.1233 88.3842 0.875069 84.2956V84.2028C0.291954 82.3088 -0.00302859 80.3378 2.34421e-05 78.356V20.02C0.00197576 18.3067 0.22026 16.6006 0.649682 14.9421C0.715973 14.7299 0.769002 14.5311 0.822035 14.3322V14.2394C2.08187 10.1346 4.61985 6.53944 8.06602 3.97807C11.5122 1.41669 15.6864 0.0229817 19.9801 9.67648e-05C22.6106 -0.00810867 25.2166 0.505616 27.6471 1.51152C30.0777 2.51742 32.2845 3.99552 34.1399 5.86021C36.5145 8.23876 38.2557 11.1741 39.2045 14.3985C39.7346 16.2206 40.0025 18.109 40 20.0067V78.3427C39.9985 80.3425 39.6991 82.331 39.1117 84.2426C37.8716 88.3455 35.3392 91.9379 31.8917 94.4847C28.4442 97.0314 24.2662 98.3963 19.9801 98.3758ZM1.94898 84.0437C3.30698 88.3507 6.16182 92.0294 9.99692 94.414C13.832 96.7987 18.394 97.7318 22.8575 97.0445C27.3209 96.3572 31.3909 94.0949 34.3309 90.667C37.271 87.2391 38.8869 82.872 38.8863 78.356V20.02C38.8984 17.5329 38.4158 15.0682 37.4667 12.7694C36.5175 10.4705 35.1208 8.38331 33.3576 6.62919C31.6053 4.86642 29.5206 3.46891 27.2242 2.51761C24.9279 1.56631 22.4657 1.08014 19.9801 1.08727C15.9391 1.10699 12.0094 2.41289 8.76029 4.81572C5.51122 7.21856 3.11162 10.5935 1.90921 14.4515V14.5443C1.90921 14.7565 1.78988 14.9686 1.72359 15.1807C1.3156 16.7478 1.11063 18.3608 1.11372 19.9802V78.3162C1.11037 80.2125 1.39193 82.0985 1.94898 83.9112V84.0437ZM30.1226 74.2459C25.0315 74.2459 19.3305 70.4143 18.641 69.937C16.0787 67.7426 12.9224 66.3583 9.57244 65.9596H8.92279L9.1084 65.058C9.4266 63.414 9.77131 61.717 10.0497 60.0332C10.0548 59.9404 10.0548 59.8475 10.0497 59.7547L10.4475 57.3152C10.7126 55.6977 10.9911 53.9477 11.2165 52.1711V51.9192C11.5554 48.3066 11.3814 44.6642 10.6994 41.1005C10.527 40.0663 10.3547 39.0455 10.1425 37.8257C9.87738 36.354 9.57244 34.8691 9.2675 33.424V33.1323C8.84324 31.1436 8.36595 28.8897 8.03449 26.6358C7.82263 25.0785 7.82263 23.4997 8.03449 21.9424C8.20254 19.9192 8.87564 17.9706 9.99213 16.275C11.1086 14.5794 12.6328 13.1912 14.4249 12.2374C20.3381 9.28083 25.4955 10.421 29.6851 15.7243C31.0713 17.5188 31.9175 19.6711 32.1246 21.9291C32.2954 23.6218 32.2374 25.3298 31.9523 27.007C31.6473 28.9295 31.2496 30.8386 30.8651 32.6948L30.7988 33.1456C30.4939 34.6703 30.1624 36.2878 29.8972 37.9185V38.0909C29.7381 39.0985 29.579 40.0929 29.4332 41.1005C29.1283 43.0759 28.9161 44.6802 28.7703 46.1784C28.6242 48.109 28.6641 50.0492 28.8896 51.9722C28.9824 52.8074 29.0885 53.656 29.1946 54.4912V54.5708C29.1946 54.9951 29.3006 55.4061 29.3404 55.8171C29.4995 57.1429 29.7116 58.4687 30.0431 60.0464C30.2552 61.1203 30.4806 62.1942 30.706 63.2416C31.3185 65.8352 31.7921 68.4597 32.1246 71.1037C32.2058 71.8256 32.2412 72.5518 32.2307 73.2781C32.2307 73.3842 32.2307 73.4902 32.2307 73.6095V74.0471L31.7136 74.1399C31.1882 74.2284 30.6552 74.264 30.1226 74.2459ZM19.2907 69.0355C19.8475 69.42 26.1452 73.6493 31.0374 73.0925C31.0462 72.4548 31.0152 71.8171 30.9446 71.1833C30.6329 68.5862 30.1904 66.0064 29.6188 63.4538C29.3802 62.4064 29.1548 61.3325 28.9426 60.2453C28.6112 58.6145 28.3858 57.2357 28.2267 55.9364C28.2267 55.5254 28.1339 55.1144 28.0809 54.7034V54.6106C27.9748 53.7886 27.8687 52.9268 27.7759 52.065C27.5366 50.0675 27.4966 48.0512 27.6566 46.0458C27.8024 44.5476 28.0146 42.9169 28.3195 40.9281L28.7968 37.892V37.7329C29.062 36.0889 29.3934 34.4449 29.6984 32.9069L29.7912 32.4959C30.1757 30.653 30.5734 28.7571 30.8783 26.8612C31.1392 25.2795 31.1927 23.6705 31.0374 22.075C30.8674 20.0272 30.1127 18.0714 28.8631 16.4403C25.058 11.601 20.3514 10.5271 14.8625 13.2318C13.2358 14.1076 11.8544 15.377 10.8447 16.9241C9.83488 18.4712 9.22884 20.2466 9.08189 22.0882C8.87676 23.5439 8.87676 25.0211 9.08189 26.4767C9.41334 28.7041 9.87738 30.9314 10.2884 32.9069V33.1986C10.5933 34.6437 10.8983 36.1419 11.1634 37.6401C11.3756 38.8598 11.5612 39.8807 11.7335 40.9149C12.4357 44.5923 12.6187 48.35 12.2771 52.0783V52.3434C12.0385 54.1333 11.76 55.8966 11.4949 57.5141L11.0971 59.9536C11.1035 60.0552 11.1035 60.157 11.0971 60.2585C10.8452 61.823 10.527 63.414 10.2221 64.9652C13.5565 65.4883 16.6889 66.8987 19.2907 69.0487V69.0355Z" fill="#D0D9DC"/>
<path d="M5.92733 39.0313C5.64891 37.5597 5.34397 36.0747 5.02577 34.6031C4.58825 32.4553 4.05793 30.334 3.5276 28.2126C2.81166 25.3091 2.08246 22.4056 1.56539 19.4622C1.26477 17.7826 1.19342 16.0699 1.35326 14.3711C0.808726 16.1907 0.53182 18.0799 0.53125 19.9793V78.3153C0.532018 80.2698 0.822435 82.2133 1.39303 84.0826C1.25899 82.6652 1.29014 81.237 1.48584 79.8268C1.48584 79.3495 1.64494 78.8589 1.73775 78.3684C2.69234 73.8606 3.92535 69.4324 4.81365 64.9246C4.81365 64.792 4.81365 64.6727 4.81365 64.5533C5.10533 63.0154 5.41026 61.4907 5.70195 59.9527C6.07317 58.0701 6.41789 56.1609 6.70957 54.2517V53.907C7.28534 48.9397 7.0209 43.9109 5.92733 39.0313Z" fill="#D0D9DC"/>
<path d="M34.0211 39.0313C34.2995 37.5597 34.6044 36.0747 34.9226 34.6031C35.3601 32.4553 35.8905 30.334 36.4208 28.2126C37.1367 25.3091 37.8659 22.4056 38.383 19.4622C38.6836 17.7826 38.755 16.0699 38.5951 14.3711C39.1397 16.1907 39.4166 18.0799 39.4171 19.9793V78.3153C39.4164 80.2698 39.126 82.2133 38.5554 84.0826C38.6894 82.6652 38.6582 81.237 38.4625 79.8268C38.4625 79.3495 38.3034 78.8589 38.2106 78.3684C37.256 73.8606 36.023 69.4324 35.1347 64.9246C35.1347 64.792 35.1347 64.6727 35.1347 64.5533C34.8431 63.0154 34.5381 61.4907 34.2464 59.9527C33.8752 58.0701 33.5438 56.1609 33.2521 54.2517C33.2521 54.1324 33.2521 54.0131 33.2521 53.907C32.672 48.9404 32.9319 43.9116 34.0211 39.0313Z" fill="#D0D9DC"/>
<path d="M31.5811 73.5835C31.5877 73.7116 31.5877 73.8399 31.5811 73.968C31.316 78.8205 28.9295 82.9968 24.2891 84.8264C22.9008 85.3314 21.4307 85.5741 19.9537 85.5424C17.8255 85.6459 15.7161 85.0988 13.9066 83.9738C12.0971 82.8487 10.6731 81.1992 9.82444 79.2447C9.06161 77.6432 8.61162 75.9107 8.49862 74.1403C8.45879 73.4913 8.45879 72.8404 8.49862 72.1914C8.49862 71.8334 8.49862 71.4754 8.59143 71.1175C8.68424 70.7595 8.68424 70.4015 8.75053 70.0435C9.01569 68.4923 9.33389 66.9676 9.63883 65.4297C13.1032 65.8273 16.3732 67.2386 19.0389 69.4867C19.0389 69.4867 26.185 74.5115 31.5944 73.5967L31.5811 73.5835Z" fill="#D0D9DC"/>
<path d="M31.5811 73.5835C31.5877 73.7116 31.5877 73.8399 31.5811 73.968C31.316 78.8205 28.9295 82.9968 24.2891 84.8264C22.9008 85.3314 21.4307 85.5741 19.9537 85.5424C17.8255 85.6459 15.7161 85.0988 13.9066 83.9738C12.0971 82.8487 10.6731 81.1992 9.82444 79.2447C9.06161 77.6432 8.61162 75.9107 8.49862 74.1403C8.45879 73.4913 8.45879 72.8404 8.49862 72.1914C8.49862 71.8334 8.49862 71.4754 8.59143 71.1175C8.68424 70.7595 8.68424 70.4015 8.75053 70.0435C9.01569 68.4923 9.33389 66.9676 9.63883 65.4297C13.1032 65.8273 16.3732 67.2386 19.0389 69.4867C19.0389 69.4867 26.185 74.5115 31.5944 73.5967L31.5811 73.5835Z" fill="white"/>
<path d="M19.9537 86.0975C17.7228 86.1943 15.515 85.6126 13.6215 84.4291C11.728 83.2457 10.2376 81.516 9.3471 79.4684C8.54245 77.8049 8.05249 76.0068 7.90196 74.1651C7.86211 73.4939 7.86211 72.821 7.90196 72.1498C7.90196 71.7786 7.90196 71.4074 7.98151 71.0494C8.06106 70.6914 8.08757 70.3202 8.15386 69.9357C8.43228 68.3447 8.75048 66.7803 9.04216 65.3086L9.13498 64.8711H9.58575C13.1792 65.2607 16.5757 66.7098 19.3438 69.0342C19.9139 69.4319 26.5297 73.8601 31.4618 73.0116L32.1247 72.9188V73.595C32.1247 73.7408 32.1247 73.8734 32.1247 73.9927C31.8197 79.3888 29.0355 83.5254 24.4879 85.3417C23.0353 85.8682 21.4985 86.1243 19.9537 86.0975ZM9.9835 66.0246C9.71834 67.3504 9.42665 68.6762 9.188 70.1346C9.12082 70.4809 9.07213 70.8305 9.04216 71.182C9.04216 71.5267 8.96261 71.8714 8.94935 72.2161C8.90949 72.8431 8.90949 73.4719 8.94935 74.0988C9.06651 75.8049 9.51694 77.4715 10.2752 79.0043C11.0729 80.8705 12.426 82.4457 14.1507 83.5155C15.8753 84.5854 17.8876 85.0981 19.9139 84.9838C21.3183 85.0158 22.7165 84.7865 24.0372 84.3076C26.0511 83.49 27.7825 82.1022 29.0189 80.3147C30.2554 78.5271 30.9431 76.4175 30.9977 74.2446C25.6944 74.7352 19.3703 70.4793 18.6411 69.9755C16.1759 67.8835 13.1791 66.5159 9.9835 66.0246Z" fill="#D0D9DC"/>
<path d="M31.5811 73.5835C31.5877 73.7116 31.5877 73.8399 31.5811 73.968C31.316 78.8205 28.9295 82.9968 24.2891 84.8264C22.9008 85.3314 21.4307 85.5741 19.9537 85.5424C17.8255 85.6459 15.7161 85.0988 13.9066 83.9738C12.0971 82.8487 10.6731 81.1992 9.82444 79.2447C9.06161 77.6432 8.61162 75.9107 8.49862 74.1403C8.45879 73.4913 8.45879 72.8404 8.49862 72.1914C8.49862 71.8334 8.49862 71.4754 8.59143 71.1175C8.68424 70.7595 8.68424 70.4015 8.75053 70.0435C9.01569 68.4923 9.33389 66.9676 9.63883 65.4297C13.1032 65.8273 16.3732 67.2386 19.0389 69.4867C19.0389 69.4867 26.185 74.5115 31.5944 73.5967L31.5811 73.5835Z" fill="#D0D9DC"/>
</svg>
