<svg width="109" height="267" viewBox="0 0 109 267" fill="none" xmlns="http://www.w3.org/2000/svg">
<path d="M105.07 39.5202C101.901 28.6021 95.2871 19.0014 86.2144 12.1508C77.1418 5.30013 66.0972 1.567 54.7288 1.50851C43.3604 1.45002 32.2779 5.06931 23.1353 11.8262C13.9927 18.5831 7.28016 28.1153 3.99956 39.0002V39.0002C3.81956 39.5902 3.64957 40.1902 3.48957 40.7902C2.34489 45.1614 1.76682 49.6616 1.76957 54.1802V212.29C1.76351 217.582 2.55574 222.845 4.11956 227.9V227.9C7.85068 239.942 15.7767 250.247 26.4582 256.944C37.1398 263.64 49.8686 266.283 62.3333 264.394C74.7979 262.505 86.1718 256.209 94.3896 246.648C102.607 237.088 107.124 224.897 107.12 212.29V54.2902C107.14 49.2946 106.45 44.3214 105.07 39.5202V39.5202ZM85.8696 73.0002C84.9896 78.5402 83.8696 84.0002 82.6896 89.4302C81.7996 93.7402 80.9296 98.0602 80.2396 102.43C79.7796 105.31 79.3196 108.18 78.8896 111.05C78.1896 115.62 77.5596 120.19 77.0996 124.85C76.6633 130.181 76.7706 135.542 77.4196 140.85C77.6696 143.22 77.9696 145.58 78.2696 147.95C78.4096 149.06 78.5496 150.18 78.6796 151.3C79.0396 154.3 79.5096 157.21 80.0596 160.13C67.5196 162.45 56.0596 149.62 55.9696 149.5L55.5396 149.07C47.8696 142.55 40.2996 139.17 33.0496 139.07C33.9496 129.5 32.8796 120.29 31.3896 111.07C30.9096 108.07 30.3896 105.17 29.8596 102.2C29.1096 97.9202 28.2196 93.6802 27.3396 89.4402C26.1196 83.6402 24.9096 77.8402 24.0396 71.9502C23.4244 67.8764 23.3772 63.737 23.8996 59.6502C25.3096 48.6502 30.9796 39.1302 40.3596 34.5102C55.0896 27.2402 68.7796 29.1902 80.1296 43.6002C83.6705 48.2565 85.817 53.8222 86.3196 59.6502C86.7545 64.1007 86.6032 68.5891 85.8696 73.0002V73.0002Z" stroke="#BBBDBF" stroke-width="3" stroke-miterlimit="10"/>
<path d="M16.4196 105.83C15.6496 101.83 14.8196 97.83 13.9796 93.83C12.7696 88.02 11.3396 82.28 9.91956 76.53C7.91956 68.67 5.99957 60.81 4.59957 52.83C3.77625 48.2682 3.57441 43.616 3.99956 39C2.51594 43.9336 1.7646 49.0582 1.76957 54.21V212.29C1.76351 217.582 2.55574 222.844 4.11956 227.9C3.75032 224.067 3.83423 220.204 4.36956 216.39C4.53956 215.08 4.76956 213.77 5.04956 212.39C7.60956 200.19 10.9496 188.21 13.3496 175.98C13.4196 175.64 13.4796 175.31 13.5396 174.98C14.3396 170.82 15.1696 166.69 15.9596 162.55C16.9596 157.42 17.8696 152.28 18.6596 147.09C18.6596 146.78 18.7496 146.46 18.7896 146.16C20.7496 132.32 18.9996 119.08 16.4196 105.83Z" fill="#BBBDBF"/>
<path d="M92.4696 105.829C93.2396 101.829 94.0696 97.829 94.9096 93.829C96.1196 88.019 97.5496 82.2791 98.9696 76.5291C100.97 68.6691 102.89 60.809 104.29 52.829C105.099 48.279 105.291 43.6404 104.86 39.0391C106.343 43.9726 107.095 49.0972 107.09 54.2491V212.289C107.096 217.581 106.303 222.843 104.74 227.899C105.109 224.066 105.025 220.203 104.49 216.389C104.32 215.079 104.09 213.769 103.81 212.389C101.25 200.189 97.9096 188.209 95.5096 175.979C95.4396 175.639 95.3796 175.309 95.3196 174.979C94.5196 170.819 93.6896 166.689 92.8996 162.549C91.8996 157.419 90.9896 152.279 90.1996 147.089C90.1996 146.779 90.1096 146.459 90.0696 146.159C88.1396 132.319 89.8996 119.079 92.4696 105.829Z" fill="#BBBDBF"/>
<path d="M66.6804 229.811C62.9202 231.177 58.9403 231.838 54.9404 231.761C43.6204 231.631 33.7304 227.441 27.5004 214.711C24.9351 209.475 23.6044 203.721 23.6104 197.891C23.6123 196.16 23.7125 194.43 23.9104 192.711C24.0204 191.711 24.1604 190.771 24.3304 189.781C25.3304 183.921 26.6104 178.141 27.7604 172.321C27.7604 172.321 27.7604 172.271 27.7604 172.241C28.3804 169.141 28.9604 166.041 29.4804 162.911C29.4804 162.661 29.5704 162.421 29.6104 162.171L30.6904 155.561C31.4504 150.921 32.1804 146.281 32.7804 141.561L32.8704 140.871C32.8704 140.761 32.8704 140.651 32.8704 140.541C32.9304 140.041 32.9804 139.541 33.0104 139.051C40.2604 139.191 47.8304 142.571 55.5004 149.051L55.9304 149.481C56.0404 149.601 67.4804 162.431 80.0204 160.111C80.1004 160.604 80.1904 161.094 80.2904 161.581C80.3604 162.001 80.4504 162.431 80.5304 162.851C82.5304 172.791 85.0704 182.531 86.1604 192.651C88.0004 209.001 81.5504 223.901 66.6804 229.811Z" stroke="#BBBDBF" stroke-width="3" stroke-miterlimit="10"/>
<path d="M66.6804 229.811C62.9202 231.177 58.9403 231.838 54.9404 231.761C43.6204 231.631 33.7304 227.441 27.5004 214.711C24.9351 209.475 23.6044 203.721 23.6104 197.891C23.6123 196.16 23.7125 194.43 23.9104 192.711C24.0204 191.711 24.1604 190.771 24.3304 189.781C25.3304 183.921 26.6104 178.141 27.7604 172.321C27.7604 172.321 27.7604 172.271 27.7604 172.241C28.3804 169.141 28.9604 166.041 29.4804 162.911C29.4804 162.661 29.5704 162.421 29.6104 162.171L30.6904 155.561C31.4504 150.921 32.1804 146.281 32.7804 141.561L32.8704 140.871C32.8704 140.761 32.8704 140.651 32.8704 140.541C32.9304 140.041 32.9804 139.541 33.0104 139.051C40.2604 139.191 47.8304 142.571 55.5004 149.051L55.9304 149.481C56.0404 149.601 67.4804 162.431 80.0204 160.111C80.1004 160.604 80.1904 161.094 80.2904 161.581C80.3604 162.001 80.4504 162.431 80.5304 162.851C82.5304 172.791 85.0704 182.531 86.1604 192.651C88.0004 209.001 81.5504 223.901 66.6804 229.811Z" fill="#BBBDBF"/>
</svg>
