<svg width="109" height="267" viewBox="0 0 109 267" fill="none" xmlns="http://www.w3.org/2000/svg">
<path d="M104.83 39.52C101.638 28.6305 95.0176 19.0619 85.9518 12.2372C76.886 5.4125 65.8595 1.6963 54.5122 1.64125C43.1649 1.58619 32.1029 5.19524 22.9713 11.9316C13.8397 18.668 7.12636 28.1719 3.82964 39.0299V39.0299C3.64964 39.6199 3.47965 40.22 3.31965 40.82C2.17497 45.1912 1.59689 49.6913 1.59964 54.2099V212.29C1.59359 217.582 2.38582 222.844 3.94963 227.9V227.9C7.68076 239.942 15.6067 250.247 26.2883 256.943C36.9699 263.64 49.6987 266.283 62.1633 264.394C74.628 262.505 86.0019 256.209 94.2197 246.648C102.437 237.088 106.954 224.897 106.95 212.29V54.29C106.948 49.291 106.234 44.3177 104.83 39.52V39.52ZM84.9996 72.9999C84.1196 78.5399 82.9996 83.9999 81.8196 89.4299C80.9296 93.7399 80.0596 98.0599 79.3696 102.43L79.0396 104.51C78.6896 106.7 78.3496 108.87 78.0396 111.05C77.8896 112.05 77.7396 113 77.6096 113.98C65.0796 113.13 52.6996 102.3 52.5596 102.18C41.2596 92.1799 32.6896 89.4199 26.3696 88.8399C25.1896 83.2299 24.0296 77.6199 23.1896 71.9299C22.5744 67.8561 22.5273 63.7167 23.0496 59.63C24.4596 48.63 30.1296 39.11 39.5096 34.49C54.2396 27.22 67.9296 29.17 79.2796 43.58C82.8206 48.2362 84.9671 53.8019 85.4696 59.63C85.8997 64.088 85.7417 68.5831 84.9996 72.9999V72.9999Z" stroke="#BBBDBF" stroke-width="3" stroke-miterlimit="10"/>
<path d="M16.1796 105.829C15.4096 101.829 14.5796 97.8291 13.7396 93.8291C12.5296 88.0191 11.0996 82.2791 9.6796 76.5291C7.6796 68.6691 5.75961 60.8091 4.35961 52.8291C3.54992 48.279 3.35818 43.6404 3.7896 39.0391C2.30598 43.9726 1.55464 49.0973 1.5596 54.2491V212.289C1.55355 217.581 2.3458 222.844 3.90961 227.899C3.54037 224.066 3.62428 220.203 4.15961 216.389C4.32961 215.079 4.5596 213.769 4.8396 212.389C7.3996 200.189 10.7396 188.209 13.1396 175.979C13.2096 175.639 13.2696 175.309 13.3296 174.979C14.1296 170.819 14.9596 166.689 15.7496 162.549C16.7496 157.419 17.6596 152.279 18.4496 147.089C18.4496 146.779 18.5396 146.459 18.5796 146.159C20.5096 132.319 18.7496 119.079 16.1796 105.829Z" fill="#BBBDBF"/>
<path d="M92.2304 105.829C93.0004 101.829 93.8304 97.8291 94.6704 93.8291C95.8804 88.0191 97.3104 82.2791 98.7304 76.5291C100.73 68.6691 102.65 60.8091 104.05 52.8291C104.86 48.279 105.052 43.6404 104.62 39.0391C106.104 43.9726 106.855 49.0973 106.85 54.2491V212.289C106.856 217.581 106.064 222.844 104.5 227.899C104.87 224.066 104.786 220.203 104.25 216.389C104.08 215.079 103.85 213.769 103.57 212.389C101.01 200.189 97.6703 188.209 95.2703 175.979C95.2003 175.639 95.1403 175.309 95.0803 174.979C94.2803 170.819 93.4504 166.689 92.6604 162.549C91.6604 157.419 90.7503 152.279 89.9603 147.089C89.9603 146.779 89.8703 146.459 89.8303 146.159C87.9003 132.319 89.6604 119.079 92.2304 105.829Z" fill="#BBBDBF"/>
<path d="M85.5897 198.511C85.4097 212.441 78.8797 224.611 65.7897 229.811C62.0295 231.177 58.0496 231.838 54.0497 231.761C42.7297 231.631 32.8397 227.441 26.6097 214.711C24.4819 210.38 23.2022 205.683 22.8397 200.871C22.6414 198.152 22.7017 195.419 23.0197 192.711C23.1297 191.711 23.2697 190.771 23.4397 189.781C25.0297 180.781 27.1097 171.941 28.5997 162.911C28.6497 162.661 28.6897 162.421 28.7297 162.171L29.8097 155.561C30.5697 150.921 31.2997 146.281 31.8997 141.561L31.9897 140.871C33.1897 130.641 32.0897 120.871 30.4997 111.081C30.3897 110.401 30.2797 109.711 30.1497 109.031C29.7797 106.761 29.3797 104.491 28.9697 102.211C28.2197 97.9311 27.3297 93.6911 26.4497 89.4511L26.3297 88.8711C32.6497 89.4511 41.2197 92.2111 52.5197 102.211C52.6597 102.331 65.0397 113.161 77.5697 114.011C77.0397 117.611 76.5697 121.221 76.2097 124.881C75.7735 130.211 75.8807 135.572 76.5297 140.881C76.7797 143.251 77.0797 145.611 77.3797 147.981C77.5197 149.091 77.6597 150.211 77.7897 151.331C78.2597 155.231 78.9297 159.081 79.6897 162.901C81.6897 172.841 84.2297 182.581 85.3197 192.701C85.5294 194.63 85.6196 196.571 85.5897 198.511V198.511Z" stroke="#BBBDBF" stroke-width="3" stroke-miterlimit="10"/>
<path d="M85.5897 198.511C85.4097 212.441 78.8797 224.611 65.7897 229.811C62.0295 231.177 58.0496 231.838 54.0497 231.761C42.7297 231.631 32.8397 227.441 26.6097 214.711C24.4819 210.38 23.2022 205.683 22.8397 200.871C22.6414 198.152 22.7017 195.419 23.0197 192.711C23.1297 191.711 23.2697 190.771 23.4397 189.781C25.0297 180.781 27.1097 171.941 28.5997 162.911C28.6497 162.661 28.6897 162.421 28.7297 162.171L29.8097 155.561C30.5697 150.921 31.2997 146.281 31.8997 141.561L31.9897 140.871C33.1897 130.641 32.0897 120.871 30.4997 111.081C30.3897 110.401 30.2797 109.711 30.1497 109.031C29.7797 106.761 29.3797 104.491 28.9697 102.211C28.2197 97.9311 27.3297 93.6911 26.4497 89.4511L26.3297 88.8711C32.6497 89.4511 41.2197 92.2111 52.5197 102.211C52.6597 102.331 65.0397 113.161 77.5697 114.011C77.0397 117.611 76.5697 121.221 76.2097 124.881C75.7735 130.211 75.8807 135.572 76.5297 140.881C76.7797 143.251 77.0797 145.611 77.3797 147.981C77.5197 149.091 77.6597 150.211 77.7897 151.331C78.2597 155.231 78.9297 159.081 79.6897 162.901C81.6897 172.841 84.2297 182.581 85.3197 192.701C85.5294 194.63 85.6196 196.571 85.5897 198.511Z" fill="#BBBDBF"/>
</svg>
