<svg width="40" height="99" viewBox="0 0 40 99" fill="none" xmlns="http://www.w3.org/2000/svg">
<path d="M20 98.3561C15.7243 98.3771 11.5558 97.0191 8.11299 94.4835C4.67019 91.948 2.13657 88.37 0.888105 84.2806C0.299852 82.3608 0.000576299 80.3641 0.000105632 78.3562V20.0264C-0.0063104 18.0687 0.279587 16.121 0.848345 14.2478C2.10358 10.1408 4.63922 6.54277 8.08485 3.97941C11.5305 1.41605 15.7055 0.0216815 20 4.42117e-06C22.6292 -0.00174425 25.2328 0.515253 27.6618 1.52138C30.0909 2.52751 32.2975 4.003 34.1554 5.86332C36.0132 7.72364 37.4858 9.93224 38.4887 12.3626C39.4916 14.7929 40.0052 17.3973 39.9999 20.0264V78.3429C40.0069 80.9719 39.4945 83.5764 38.492 86.0068C37.4896 88.4372 36.0169 90.6457 34.1585 92.5053C32.3001 94.3649 30.0926 95.8391 27.6629 96.8431C25.2332 97.8472 22.629 98.3613 20 98.3561ZM20 1.11332C17.5152 1.11158 15.0544 1.59949 12.7582 2.54919C10.462 3.49888 8.37551 4.89173 6.61786 6.64815C4.86021 8.40457 3.4659 10.4901 2.5146 12.7856C1.5633 15.0811 1.07366 17.5416 1.07366 20.0264V78.3429C1.07103 82.8697 2.69322 87.247 5.64519 90.6788C8.59715 94.1106 12.6828 96.3689 17.1591 97.043C21.6353 97.7171 26.2049 96.7622 30.0366 94.3519C33.8683 91.9417 36.7077 88.2363 38.0384 83.9095C38.5952 82.1066 38.8767 80.2299 38.8734 78.3429V20.0264C38.8768 17.5451 38.3913 15.0874 37.4446 12.7938C36.4978 10.5001 35.1084 8.41555 33.3557 6.65913C31.6029 4.90271 29.5213 3.50889 27.2297 2.55732C24.938 1.60574 22.4814 1.11506 20 1.11332Z" fill="#D0D9DC"/>
<path d="M5.95111 39.0441C5.65953 37.573 5.35469 36.0886 5.04985 34.6174C4.59923 32.4703 4.06908 30.3497 3.55218 28.2291C2.82323 25.3265 2.10752 22.4239 1.59062 19.4683C1.28978 17.7893 1.21845 16.0772 1.37857 14.3789C0.825251 16.2096 0.548285 18.1126 0.556833 20.025V78.3415C0.551012 80.2958 0.841478 82.2397 1.41833 84.1069C1.28433 82.6899 1.31547 81.2622 1.5111 79.8524C1.5111 79.362 1.65689 78.8849 1.76292 78.3945C2.70394 73.8882 3.93654 69.4615 4.82454 64.942L4.90406 64.5709C5.19564 63.0467 5.50048 61.5225 5.79206 59.9851C6.14991 58.0898 6.49451 56.1945 6.78609 54.2859C6.78609 54.1667 6.78609 54.0474 6.78609 53.9413C7.34049 48.9638 7.05827 43.9286 5.95111 39.0441Z" fill="#D0D9DC"/>
<path d="M34.0245 39.0441C34.3161 37.573 34.6209 36.0886 34.9257 34.6174C35.3764 32.4703 35.9065 30.3497 36.4234 28.2291C37.1524 25.3265 37.8813 22.4239 38.3982 19.4683C38.6881 17.788 38.755 16.0767 38.597 14.3789C39.1522 16.2004 39.4336 18.0943 39.432 19.9985V78.315C39.4335 80.27 39.1386 82.2139 38.5573 84.0804C38.6913 82.6634 38.6601 81.2357 38.4645 79.8259C38.4645 79.3355 38.3187 78.8584 38.2127 78.368C37.2716 73.8617 36.039 69.435 35.151 64.9155C35.1436 64.7919 35.1436 64.6679 35.151 64.5443C34.8462 63.0202 34.5414 61.496 34.2498 59.9585C33.8919 58.0633 33.5473 56.168 33.2558 54.2594C33.2632 54.1447 33.2632 54.0296 33.2558 53.9148C32.689 48.9495 32.9488 43.9246 34.0245 39.0441Z" fill="#D0D9DC"/>
<path d="M19.9487 86.0985C17.7183 86.1971 15.5104 85.6164 13.6172 84.4331C11.7239 83.2498 10.2344 81.5197 9.34571 79.4716C8.52912 77.8133 8.03868 76.0135 7.90106 74.1701C7.8023 73.1343 7.8023 72.0914 7.90106 71.0555C7.90106 70.6844 7.99383 70.3265 8.0601 69.9422C8.32517 68.418 8.64327 66.8938 8.93485 65.4226C9.2927 63.6599 9.66381 61.8309 9.96864 60.0151V59.75L10.3663 57.3113C10.6313 55.6944 10.9097 53.9581 11.1482 52.1689V51.9038C11.475 48.2867 11.2921 44.6417 10.6048 41.0755L10.4855 40.3863C10.353 39.5381 10.2072 38.7031 10.0482 37.8548C9.79634 36.3837 9.49151 34.8993 9.18668 33.4678L9.08064 32.951C8.61676 30.7376 8.2059 28.7495 7.90106 26.6687C7.68272 25.1124 7.68272 23.5332 7.90106 21.9769C8.06544 19.9431 8.74083 17.9839 9.86457 16.2809C10.9883 14.5779 12.524 13.1864 14.3291 12.2353C20.3596 9.2665 25.5285 10.4461 29.6902 15.7476C31.0704 17.5423 31.9075 19.6948 32.1024 21.9503C32.2597 23.6429 32.2017 25.3485 31.9301 27.0265C31.6253 28.9483 31.2277 30.8569 30.8433 32.6991L30.7505 33.1232C30.4324 34.6474 30.1011 36.2644 29.8493 37.8946L29.73 38.6633C29.5975 39.4718 29.4782 40.2803 29.3456 41.0755V41.155C29.3456 41.4864 29.2396 41.8177 29.1998 42.1491C28.9745 43.6202 28.8155 44.9324 28.6962 46.1252C28.5366 48.0504 28.5766 49.9869 28.8155 51.9038C28.895 52.7653 29.0143 53.6268 29.1203 54.4618L29.2794 55.7076C29.4251 57.033 29.6505 58.3584 29.9686 59.9356C30.1806 60.9959 30.4192 62.0827 30.6445 63.1297C31.2568 65.7224 31.7302 68.346 32.0626 70.9892C32.1396 71.7111 32.1706 72.4371 32.1554 73.1628C32.0892 78.915 29.2926 83.3152 24.4948 85.2238C23.0468 85.795 21.5052 86.0916 19.9487 86.0985ZM20.3861 11.7715C18.4346 11.8224 16.521 12.3212 14.793 13.2294C13.1686 14.1056 11.7897 15.375 10.7825 16.9217C9.77534 18.4684 9.17198 20.2428 9.02763 22.0829C8.82256 23.538 8.82256 25.0147 9.02763 26.4699C9.31921 28.5109 9.73007 30.446 10.194 32.6859L10.3 33.2028C10.5916 34.6474 10.9097 36.1451 11.1747 37.6295C11.3205 38.4645 11.4663 39.3128 11.5989 40.1477C11.5989 40.3731 11.6916 40.6116 11.7314 40.8502C12.4447 44.5249 12.6321 48.2824 12.288 52.0098V52.2749C12.0627 54.0774 11.7844 55.8269 11.5193 57.4439L11.1217 59.8826C11.1217 59.9886 11.1217 60.0814 11.1217 60.1742C10.8169 61.9899 10.4458 63.8322 10.0879 65.6082C9.79635 67.0661 9.47825 68.5903 9.21318 70.088C9.21318 70.4458 9.10715 70.7904 9.06739 71.135C8.9819 72.1051 8.9819 73.0808 9.06739 74.0508C9.19723 75.7542 9.64686 77.4179 10.3928 78.9547C11.18 80.8111 12.5161 82.3824 14.2217 83.4579C15.9274 84.5334 17.9211 85.0617 19.9355 84.9719C21.3438 85.0041 22.7459 84.7749 24.0706 84.296C28.4179 82.5597 30.9626 78.5439 31.0289 73.2424C31.0391 72.5516 31.0037 71.8609 30.9228 71.1748C30.6176 68.5776 30.1752 65.9983 29.5974 63.4478C29.3721 62.4008 29.1336 61.314 28.9215 60.2404C28.6034 58.6102 28.3781 57.2318 28.2191 55.933L28.06 54.7004V54.6208C27.954 53.7859 27.8347 52.9111 27.7552 52.0496C27.4915 50.0551 27.4338 48.0387 27.5829 46.0324C27.7022 44.7998 27.8612 43.4877 28.0865 42.0563C28.0865 41.7249 28.1793 41.3803 28.2323 41.0357C28.3516 40.2273 28.4709 39.4188 28.6034 38.6103L28.7227 37.8416C28.9878 36.1849 29.3191 34.5547 29.6372 33.0172L29.73 32.5931C30.1144 30.7641 30.512 28.8688 30.8035 26.9735C31.0684 25.3929 31.1263 23.7845 30.9758 22.1889C30.7939 20.1405 30.0409 18.1844 28.8022 16.5428C26.3635 13.3222 23.6068 11.7715 20.3861 11.7715Z" fill="#D0D9DC"/>
<path d="M20.0022 43.1938C21.759 43.1938 23.1831 41.7697 23.1831 40.0129C23.1831 38.2562 21.759 36.832 20.0022 36.832C18.2454 36.832 16.8213 38.2562 16.8213 40.0129C16.8213 41.7697 18.2454 43.1938 20.0022 43.1938Z" stroke="#D0D9DC" stroke-miterlimit="10"/>
<path d="M20.0005 50.6572C21.1204 50.6572 22.0283 49.7493 22.0283 48.6294C22.0283 47.5094 21.1204 46.6016 20.0005 46.6016C18.8805 46.6016 17.9727 47.5094 17.9727 48.6294C17.9727 49.7493 18.8805 50.6572 20.0005 50.6572Z" stroke="#D0D9DC" stroke-miterlimit="10"/>
<path d="M20 63.8321C22.701 63.8321 24.8906 61.6424 24.8906 58.9414C24.8906 56.2404 22.701 54.0508 20 54.0508C17.299 54.0508 15.1094 56.2404 15.1094 58.9414C15.1094 61.6424 17.299 63.8321 20 63.8321Z" stroke="#D0D9DC" stroke-miterlimit="10"/>
</svg>
