<svg width="109" height="267" viewBox="0 0 109 267" fill="none" xmlns="http://www.w3.org/2000/svg">
<path d="M76.6005 125.339C76.1642 130.669 76.2715 136.03 76.9205 141.339C77.1705 143.709 77.4705 146.069 77.7705 148.439C77.9105 149.549 78.0505 150.669 78.1805 151.789C78.6505 155.689 79.3205 159.539 80.0805 163.359C82.0805 173.299 84.6205 183.039 85.7105 193.159C85.9281 195.098 86.025 197.048 86.0005 198.999C86.0005 199.639 86.0005 200.269 85.9305 200.899C85.2105 214.029 78.6905 225.339 66.2005 230.299C62.4403 231.665 58.4604 232.326 54.4605 232.249C43.1405 232.119 33.2505 227.929 27.0205 215.199C24.8927 210.868 23.613 206.17 23.2505 201.359C23.1201 199.602 23.1001 197.838 23.1905 196.079C23.2438 195.132 23.3238 194.172 23.4305 193.199C23.5405 192.199 23.6805 191.259 23.8505 190.269C25.4405 181.269 27.5205 172.429 29.0105 163.399C29.0105 163.149 29.1005 162.909 29.1405 162.659L30.2005 155.999C30.9605 151.359 31.6905 146.719 32.2905 141.999L32.3805 141.309C33.5805 131.079 32.4805 121.309 30.8905 111.519C30.4105 108.519 29.8905 105.619 29.3605 102.649C28.6105 98.3688 27.7205 94.1288 26.8405 89.8888C25.6205 84.0888 24.4105 78.2888 23.5405 72.3988C22.9253 68.325 22.8782 64.1855 23.4005 60.0988C24.8105 49.0988 30.4805 39.5788 39.8605 34.9588C54.5905 27.6888 68.2805 29.6388 79.6305 44.0488C83.1714 48.705 85.318 54.2707 85.8205 60.0988C86.2562 64.5526 86.1049 69.0444 85.3705 73.4588C84.4905 78.9988 83.3705 84.4588 82.1905 89.8888C81.3005 94.1988 80.4305 98.5188 79.7405 102.889C79.2805 105.769 78.8205 108.639 78.3905 111.509C77.6905 116.109 77.0605 120.679 76.6005 125.339Z" fill="#BBBDBF"/>
<path d="M105.14 39.7591C105.285 42.0268 105.285 44.3014 105.14 46.5691C104.978 49.2378 104.643 51.8932 104.14 54.5191C102.73 62.0191 100.87 69.3891 99.0302 76.7791C97.5902 82.6091 96.2002 88.4691 95.0902 94.4091C94.3502 98.3091 93.6235 102.202 92.9102 106.089C91.8002 112.269 90.7802 118.479 90.0402 124.779C89.3301 132 89.5047 139.281 90.5602 146.459C90.5602 146.639 90.6102 146.839 90.6302 147.029C91.2102 151.539 91.9402 156.029 92.6302 160.599C93.3802 165.889 94.4501 171.099 95.6802 176.279C98.8502 189.749 102.98 202.949 104.68 216.649C104.86 218.089 104.99 219.529 105.06 220.949C105.181 223.306 105.141 225.668 104.94 228.019C106.484 222.997 107.266 217.773 107.26 212.519V54.5191C107.257 49.5234 106.543 44.5536 105.14 39.7591ZM14.0502 94.0791C12.8402 88.2691 11.4102 82.5291 9.99016 76.7791C7.99016 68.9191 6.07015 61.0591 4.67015 53.0791C4.30262 50.999 4.06218 48.8984 3.95015 46.7891C3.80945 44.2889 3.8596 41.7816 4.10016 39.2891C2.61654 44.2226 1.86519 49.3473 1.87015 54.4991V212.549C1.86409 217.841 2.65635 223.104 4.22016 228.159C3.98438 225.773 3.93423 223.373 4.07016 220.979C4.13016 219.549 4.27016 218.109 4.47016 216.649C4.64016 215.339 4.87015 214.029 5.15015 212.649C7.71015 200.449 11.0502 188.469 13.4502 176.239C13.5202 175.899 13.5802 175.569 13.6402 175.239C14.4402 171.079 15.2702 166.949 16.0602 162.809C17.0602 157.679 17.9701 152.539 18.7602 147.349C18.7602 147.039 18.8502 146.719 18.8902 146.419C20.8202 132.539 19.0602 119.299 16.4902 106.049C15.7202 102.089 14.8902 98.0891 14.0502 94.0791Z" fill="#BBBDBF"/>
<path d="M106.58 39.3384C102.94 26.8049 94.8979 16.0066 83.9323 8.92869C72.9668 1.8508 59.8148 -1.03093 46.8943 0.813289C33.9738 2.65751 22.1532 9.10373 13.6058 18.9668C5.05829 28.8299 0.35839 41.447 0.370139 54.4984V212.548C0.370139 226.918 6.07838 240.699 16.2391 250.859C26.3998 261.02 40.1807 266.728 54.5501 266.728C68.9196 266.728 82.7005 261.02 92.8612 250.859C103.022 240.699 108.73 226.918 108.73 212.548V54.5484C108.736 49.4023 108.012 44.2814 106.58 39.3384ZM54.5801 265.228C43.3337 265.227 32.3825 261.629 23.3272 254.959C14.2719 248.289 7.58716 238.898 4.25014 228.158C4.01437 225.773 3.96422 223.372 4.10015 220.978C3.63095 218.193 3.39678 215.373 3.40014 212.548V54.5484C3.39741 51.9674 3.5913 49.39 3.98014 46.8384C3.83944 44.3383 3.88959 41.831 4.13015 39.3384C7.42475 28.4798 14.1362 18.9746 23.2665 12.2364C32.3967 5.49827 43.458 1.88706 54.8053 1.93986C66.1526 1.99266 77.1798 5.70667 86.2469 12.5295C95.314 19.3524 101.937 28.9196 105.13 39.8084C105.275 42.0761 105.275 44.3507 105.13 46.6184C105.543 49.2416 105.75 51.893 105.75 54.5484V212.548C105.738 215.381 105.487 218.208 105 220.998C105.121 223.355 105.081 225.717 104.88 228.068C101.563 238.828 94.8863 248.241 85.8287 254.929C76.771 261.616 65.8091 265.226 54.5501 265.228H54.5801Z" fill="#BBBDBF"/>
<path d="M76.6005 125.339C76.1642 130.669 76.2715 136.03 76.9205 141.339C77.1705 143.709 77.4705 146.069 77.7705 148.439C77.9105 149.549 78.0505 150.669 78.1805 151.789C78.6505 155.689 79.3205 159.539 80.0805 163.359C82.0805 173.299 84.6205 183.039 85.7105 193.159C85.9281 195.098 86.025 197.048 86.0005 198.999C86.0005 199.639 86.0005 200.269 85.9305 200.899C85.2105 214.029 78.6905 225.339 66.2005 230.299C62.4403 231.665 58.4604 232.326 54.4605 232.249C43.1405 232.119 33.2505 227.929 27.0205 215.199C24.8927 210.868 23.613 206.17 23.2505 201.359C23.1201 199.602 23.1001 197.838 23.1905 196.079C23.2438 195.132 23.3238 194.172 23.4305 193.199C23.5405 192.199 23.6805 191.259 23.8505 190.269C25.4405 181.269 27.5205 172.429 29.0105 163.399C29.0105 163.149 29.1005 162.909 29.1405 162.659L30.2005 155.999C30.9605 151.359 31.6905 146.719 32.2905 141.999L32.3805 141.309C33.5805 131.079 32.4805 121.309 30.8905 111.519C30.4105 108.519 29.8905 105.619 29.3605 102.649C28.6105 98.3688 27.7205 94.1288 26.8405 89.8888C25.6205 84.0888 24.4105 78.2888 23.5405 72.3988C22.9253 68.325 22.8782 64.1855 23.4005 60.0988C24.8105 49.0988 30.4805 39.5788 39.8605 34.9588C54.5905 27.6888 68.2805 29.6388 79.6305 44.0488C83.1714 48.705 85.318 54.2707 85.8205 60.0988C86.2562 64.5526 86.1049 69.0444 85.3705 73.4588C84.4905 78.9988 83.3705 84.4588 82.1905 89.8888C81.3005 94.1988 80.4305 98.5188 79.7405 102.889C79.2805 105.769 78.8205 108.639 78.3905 111.509C77.6905 116.109 77.0605 120.679 76.6005 125.339Z" fill="white"/>
<path d="M85.7105 193.169C85.9277 195.104 86.0246 197.051 86.0005 198.999C86.0005 199.299 86.0005 199.589 86.0005 199.879C86.0005 200.169 86.0005 200.559 86.0005 200.879C85.2805 214.009 78.7605 225.319 66.2705 230.279C62.5103 231.645 58.5304 232.306 54.5305 232.229C43.2105 232.099 33.3205 227.909 27.0905 215.179C24.9627 210.848 23.683 206.15 23.3205 201.339C23.1901 199.582 23.17 197.818 23.2605 196.059C23.3138 195.112 23.3938 194.152 23.5005 193.179C23.6105 192.179 23.7505 191.239 23.9205 190.249C24.6605 186.069 25.5005 181.919 26.3505 177.779C27.3505 172.999 28.2805 168.219 29.0805 163.379C29.0805 163.129 29.1705 162.889 29.2105 162.639L30.2005 155.999C30.9605 151.359 31.6905 146.719 32.2905 141.999L32.3805 141.309C33.5805 131.079 32.4805 121.309 30.8905 111.519C30.4105 108.519 29.8905 105.619 29.3605 102.649C28.6105 98.3688 27.7205 94.1288 26.8405 89.8888C25.6205 84.0888 24.4105 78.2888 23.5405 72.3988C22.9253 68.325 22.8782 64.1855 23.4005 60.0988C24.8105 49.0988 30.4805 39.5788 39.8605 34.9588C54.5905 27.6888 68.2805 29.6388 79.6305 44.0488C83.1714 48.705 85.318 54.2707 85.8205 60.0988C86.2562 64.5526 86.1049 69.0444 85.3705 73.4588C84.4905 78.9988 83.3705 84.4588 82.1905 89.8888C81.3005 94.1988 80.4305 98.5188 79.7405 102.889C79.2805 105.769 78.8205 108.639 78.3905 111.509C77.6905 116.079 77.0605 120.649 76.6005 125.309C76.1642 130.639 76.2715 136 76.9205 141.309C77.1705 143.679 77.4705 146.039 77.7705 148.409C77.9105 149.519 78.0505 150.639 78.1805 151.759C78.6505 155.659 79.3205 159.509 80.0805 163.329C82.0805 173.269 84.6205 183.009 85.7105 193.129V193.169Z" fill="#BBBDBF"/>
<path d="M85.9996 199.83C85.9996 200.17 85.9996 200.51 85.9996 200.83C85.2796 213.96 78.7596 225.27 66.2696 230.23C62.5094 231.597 58.5296 232.258 54.5296 232.18C43.2096 232.05 33.3196 227.86 27.0896 215.13C24.9618 210.8 23.6822 206.102 23.3196 201.29C23.1892 199.533 23.1692 197.77 23.2596 196.01C23.313 195.064 23.393 194.104 23.4996 193.13C23.6096 192.13 23.7496 191.19 23.9196 190.2C24.6596 186.02 25.4996 181.87 26.3496 177.73C32.9396 178.02 43.7996 181.88 51.8196 188.73C51.9396 188.81 71.1696 202.32 85.8196 199.86L85.9996 199.83Z" fill="#FF0A0A"/>
</svg>
