<svg width="109" height="267" viewBox="0 0 109 267" fill="none" xmlns="http://www.w3.org/2000/svg">
<path d="M76.9998 125.341C76.5636 130.671 76.6708 136.032 77.3199 141.341C77.5699 143.711 77.8699 146.071 78.1699 148.441C78.3099 149.551 78.4498 150.671 78.5798 151.791C78.9998 155.261 79.5798 158.691 80.2398 162.091C80.3098 162.511 80.3999 162.941 80.4799 163.361C82.4799 173.301 85.0198 183.041 86.1098 193.161C87.8598 209.421 81.4498 224.331 66.5798 230.241C62.8196 231.607 58.8398 232.268 54.8398 232.191C43.5198 232.061 33.6298 227.871 27.3998 215.141C26.8089 213.933 26.2815 212.694 25.8199 211.431C25.6899 211.061 25.5598 210.691 25.4398 210.321C25.1698 209.501 24.9199 208.681 24.7099 207.851L24.4099 206.591C24.3199 206.171 24.2298 205.741 24.1498 205.321C23.7277 203.011 23.5136 200.669 23.5098 198.321C23.5118 196.59 23.612 194.861 23.8098 193.141C23.9198 192.141 24.0598 191.201 24.2298 190.211C25.2298 184.351 26.5099 178.571 27.6599 172.751C27.6599 172.751 27.6599 172.701 27.6599 172.671C28.2799 169.571 28.8599 166.471 29.3799 163.341C29.3799 163.091 29.4698 162.851 29.5098 162.601L30.5898 155.991C31.3498 151.351 32.0798 146.711 32.6798 141.991L32.7699 141.301C32.7699 141.191 32.7699 141.081 32.7699 140.971C33.9199 130.861 32.8198 121.181 31.2498 111.511C30.7698 108.511 30.2498 105.611 29.7198 102.641C28.9698 98.361 28.0798 94.121 27.1998 89.881C25.9798 84.081 24.7698 78.281 23.8998 72.391C23.2846 68.3172 23.2375 64.1777 23.7598 60.091C25.1698 49.091 30.8398 39.571 40.2198 34.951C54.9498 27.681 68.6398 29.631 79.9898 44.041C83.5308 48.6972 85.6773 54.2629 86.1798 60.091C86.6156 64.5448 86.4643 69.0366 85.7299 73.451C84.8499 78.991 83.7298 84.451 82.5498 89.881C81.6598 94.191 80.7899 98.511 80.0999 102.881C79.6399 105.761 79.1798 108.631 78.7498 111.501C78.0598 116.111 77.4298 120.681 76.9998 125.341Z" fill="#BBBDBF"/>
<path d="M104.93 39.7591C105.07 42.0202 105.07 44.2879 104.93 46.5491C104.769 49.2344 104.435 51.9066 103.93 54.5491C102.52 62.0491 100.66 69.4191 98.8202 76.8091C97.3802 82.6391 95.9902 88.4991 94.8802 94.4391C94.1402 98.3391 93.4136 102.232 92.7002 106.119C91.5902 112.299 90.5702 118.509 89.8302 124.809C89.1202 132.03 89.2948 139.311 90.3502 146.489C90.3502 146.669 90.4003 146.869 90.4202 147.059C91.0003 151.569 91.7302 156.059 92.4202 160.629C93.1702 165.919 94.2402 171.129 95.4702 176.309C98.6402 189.779 102.77 202.979 104.52 216.679C104.7 218.119 104.83 219.549 104.9 220.969C105.021 223.329 104.981 225.695 104.78 228.049C106.324 223.027 107.106 217.803 107.1 212.549V54.5491C107.084 49.541 106.353 44.5608 104.93 39.7591ZM13.8402 94.0791C12.6302 88.2691 11.2002 82.5291 9.78023 76.7791C7.78023 68.9191 5.86024 61.0591 4.46024 53.0791C4.09271 50.999 3.85226 48.8984 3.74024 46.7891C3.59954 44.2889 3.64967 41.7816 3.89023 39.2891C2.40661 44.2226 1.65527 49.3473 1.66024 54.4991V212.549C1.65094 217.84 2.43981 223.103 4.00023 228.159C3.76434 225.767 3.7142 223.359 3.85024 220.959C3.91024 219.539 4.05023 218.099 4.25023 216.649C4.45023 215.199 4.65023 214.029 4.93023 212.649C7.49023 200.449 10.8302 188.469 13.2302 176.239C13.3002 175.899 13.3602 175.569 13.4202 175.239C14.2202 171.079 15.0502 166.949 15.8402 162.809C16.8402 157.679 17.7502 152.539 18.5402 147.349C18.5402 147.039 18.6302 146.719 18.6702 146.419C20.6002 132.539 18.8402 119.299 16.2702 106.049C15.5102 102.089 14.6802 98.0891 13.8402 94.0791Z" fill="#BBBDBF"/>
<path d="M106.37 39.3405C103.81 30.5956 99.0921 22.6348 92.6502 16.1905C87.6322 11.142 81.6621 7.1397 75.0859 4.4155C68.5098 1.69131 61.4583 0.299434 54.3402 0.320549C47.2229 0.312654 40.174 1.70867 33.5971 4.42867C27.0201 7.14868 21.0442 11.1392 16.0115 16.1719C10.9789 21.2045 6.98832 27.1804 4.26831 33.7574C1.54831 40.3344 0.152295 47.3833 0.16019 54.5005V212.551C0.16019 226.92 5.86843 240.701 16.0291 250.862C26.1899 261.022 39.9708 266.731 54.3402 266.731C68.7096 266.731 82.4905 261.022 92.6512 250.862C102.812 240.701 108.52 226.92 108.52 212.551V54.5505C108.526 49.4044 107.802 44.2835 106.37 39.3405ZM54.3702 265.231C43.1169 265.238 32.1567 261.643 23.0933 254.973C14.03 248.303 7.33923 238.907 4.00019 228.161C3.7643 225.768 3.71415 223.361 3.85019 220.961C3.38099 218.182 3.14681 215.369 3.15018 212.551V54.5505C3.14745 51.9695 3.34134 49.3921 3.73018 46.8405C3.58948 44.3404 3.63963 41.8331 3.88019 39.3405C7.17479 28.4819 13.8863 18.9767 23.0165 12.2385C32.1467 5.50038 43.208 1.88916 54.5553 1.94196C65.9026 1.99477 76.9298 5.70877 85.9969 12.5316C95.0641 19.3545 101.687 28.9217 104.88 39.8105C105.02 42.0717 105.02 44.3394 104.88 46.6005C105.298 49.2299 105.505 51.8883 105.5 54.5505V212.551C105.504 215.372 105.269 218.189 104.8 220.971C104.921 223.331 104.881 225.696 104.68 228.051C101.366 238.815 94.6894 248.234 85.6295 254.926C76.5695 261.617 65.6034 265.229 54.3402 265.231H54.3702Z" fill="#BBBDBF"/>
<path d="M76.9998 125.341C76.5636 130.671 76.6708 136.032 77.3199 141.341C77.5699 143.711 77.8699 146.071 78.1699 148.441C78.3099 149.551 78.4498 150.671 78.5798 151.791C78.9998 155.261 79.5798 158.691 80.2398 162.091C80.3098 162.511 80.3999 162.941 80.4799 163.361C82.4799 173.301 85.0198 183.041 86.1098 193.161C87.8598 209.421 81.4498 224.331 66.5798 230.241C62.8196 231.607 58.8398 232.268 54.8398 232.191C43.5198 232.061 33.6298 227.871 27.3998 215.141C26.8089 213.933 26.2815 212.694 25.8199 211.431C25.6899 211.061 25.5598 210.691 25.4398 210.321C25.1698 209.501 24.9199 208.681 24.7099 207.851L24.4099 206.591C24.3199 206.171 24.2298 205.741 24.1498 205.321C23.7277 203.011 23.5136 200.669 23.5098 198.321C23.5118 196.59 23.612 194.861 23.8098 193.141C23.9198 192.141 24.0598 191.201 24.2298 190.211C25.2298 184.351 26.5099 178.571 27.6599 172.751C27.6599 172.751 27.6599 172.701 27.6599 172.671C28.2799 169.571 28.8599 166.471 29.3799 163.341C29.3799 163.091 29.4698 162.851 29.5098 162.601L30.5898 155.991C31.3498 151.351 32.0798 146.711 32.6798 141.991L32.7699 141.301C32.7699 141.191 32.7699 141.081 32.7699 140.971C33.9199 130.861 32.8198 121.181 31.2498 111.511C30.7698 108.511 30.2498 105.611 29.7198 102.641C28.9698 98.361 28.0798 94.121 27.1998 89.881C25.9798 84.081 24.7698 78.281 23.8998 72.391C23.2846 68.3172 23.2375 64.1777 23.7598 60.091C25.1698 49.091 30.8398 39.571 40.2198 34.951C54.9498 27.681 68.6398 29.631 79.9898 44.041C83.5308 48.6972 85.6773 54.2629 86.1798 60.091C86.6156 64.5448 86.4643 69.0366 85.7299 73.451C84.8499 78.991 83.7298 84.451 82.5498 89.881C81.6598 94.191 80.7899 98.511 80.0999 102.881C79.6399 105.761 79.1798 108.631 78.7498 111.501C78.0598 116.111 77.4298 120.681 76.9998 125.341Z" fill="white"/>
<path d="M86.0796 193.169C87.8296 209.429 81.4196 224.339 66.5496 230.249C62.7894 231.615 58.8095 232.276 54.8096 232.199C43.4896 232.069 33.5996 227.879 27.3696 215.149C26.7786 213.94 26.2512 212.702 25.7896 211.439C25.6596 211.069 25.5296 210.699 25.4096 210.329C25.1396 209.509 24.8896 208.689 24.6796 207.859L24.3796 206.599C24.2896 206.179 24.1996 205.749 24.1196 205.329C23.6975 203.019 23.4833 200.677 23.4796 198.329C23.4815 196.598 23.5817 194.868 23.7796 193.149C23.8896 192.149 24.0296 191.209 24.1996 190.219C25.1996 184.359 26.4796 178.579 27.6296 172.759C27.6296 172.759 27.6296 172.709 27.6296 172.679C28.2496 169.579 28.8296 166.479 29.3496 163.349C29.3496 163.099 29.4396 162.859 29.4796 162.609L30.5596 155.999C31.3196 151.359 32.0496 146.719 32.6496 141.999L32.7396 141.309C32.7396 141.199 32.7396 141.089 32.7396 140.979C33.8896 130.869 32.7896 121.189 31.2196 111.519C30.7396 108.519 30.2196 105.619 29.6896 102.649C28.9396 98.3688 28.0496 94.1288 27.1696 89.8888C25.9496 84.0888 24.7396 78.2888 23.8696 72.3988C23.2544 68.325 23.2073 64.1855 23.7296 60.0988C25.1396 49.0988 30.8096 39.5788 40.1896 34.9588C54.9196 27.6888 68.6096 29.6388 79.9596 44.0488C83.5005 48.705 85.647 54.2707 86.1496 60.0988C86.5853 64.5526 86.4341 69.0444 85.6996 73.4588C84.8196 78.9988 83.6996 84.4588 82.5196 89.8888C81.6296 94.1988 80.7596 98.5188 80.0696 102.889C79.6096 105.769 79.1496 108.639 78.7196 111.509C78.0196 116.079 77.3896 120.649 76.9296 125.309C76.4933 130.639 76.6006 136 77.2496 141.309C77.4996 143.679 77.7996 146.039 78.0996 148.409C78.2396 149.519 78.3796 150.639 78.5096 151.759C78.9296 155.229 79.5096 158.659 80.1696 162.059C80.2396 162.479 80.3296 162.909 80.4096 163.329C82.4096 173.269 84.9496 183.009 86.0396 193.129L86.0796 193.169Z" fill="#BBBDBF"/>
<path d="M66.5502 230.25C62.79 231.617 58.8102 232.278 54.8102 232.2C43.4902 232.07 33.6002 227.88 27.3702 215.15C26.7793 213.942 26.2519 212.704 25.7902 211.44C25.6602 211.07 25.5302 210.7 25.4102 210.33C25.1402 209.51 24.9002 208.69 24.6802 207.86L24.3802 206.6C24.2902 206.18 24.2102 205.75 24.1302 205.33C23.7081 203.021 23.4939 200.678 23.4902 198.33C23.4922 196.599 23.5924 194.87 23.7902 193.15C23.9002 192.15 24.0402 191.21 24.2102 190.22C25.2102 184.36 26.4902 178.58 27.6402 172.76C27.6402 172.76 27.6402 172.71 27.6402 172.68C28.2602 169.58 28.8402 166.48 29.3602 163.35C29.3602 163.1 29.4502 162.86 29.4902 162.61L30.5702 156C31.3302 151.36 32.0602 146.72 32.6602 142L32.7502 141.31C32.7502 141.2 32.7502 141.09 32.7502 140.98C39.6802 141.08 46.9602 144.33 54.4102 150.67L54.6702 150.93C54.7902 151.07 66.7902 164.53 80.1802 162.06C80.2502 162.48 80.3402 162.91 80.4202 163.33C82.4202 173.27 84.9602 183.01 86.0502 193.13C87.8302 209.43 81.4202 224.34 66.5502 230.25Z" fill="#FF0A0A"/>
</svg>
