<svg width="41" height="99" viewBox="0 0 41 99" fill="none" xmlns="http://www.w3.org/2000/svg">
<path d="M28.5297 46.459C28.3687 48.4267 28.4082 50.4056 28.6478 52.3652C28.7401 53.2401 28.8508 54.1113 28.9616 54.9861C29.0133 55.3959 29.065 55.8093 29.1129 56.2227C29.2864 57.6624 29.5338 59.0836 29.8143 60.4937C30.5526 64.1629 31.4902 67.7583 31.8926 71.494C31.9701 72.2073 32.0034 72.9248 31.9922 73.6423C31.9258 78.7844 29.5153 83.2768 24.6833 85.1963C23.2964 85.7069 21.8272 85.9572 20.3496 85.9346C16.1709 85.8866 12.5201 84.3399 10.2204 79.6408C9.43492 78.0422 8.96255 76.3081 8.82872 74.532C8.75551 73.5281 8.77776 72.5195 8.89517 71.5198C8.93577 71.1507 8.98746 70.8037 9.05021 70.4382C9.63714 67.116 10.4049 63.8528 10.955 60.5195C10.9734 60.4272 10.9882 60.3386 11.003 60.2463L11.4016 57.8063C11.6822 56.0935 11.9516 54.3807 12.1731 52.6384L12.2063 52.3837C12.6493 48.6074 12.2433 45.001 11.6563 41.3871C11.6157 41.1361 11.5751 40.8814 11.5271 40.6304C11.3906 39.7924 11.2429 38.9545 11.0915 38.1128C10.8147 36.5329 10.4862 34.9678 10.1613 33.4026L10.117 33.1886C9.68144 31.1177 9.25323 29.0468 8.94316 26.9464C8.71606 25.4426 8.69867 23.9146 8.89148 22.406C9.41196 18.3455 11.505 14.8313 14.9675 13.1259C20.4049 10.4423 25.4585 11.1621 29.6482 16.4814C30.9553 18.2002 31.7477 20.2547 31.9332 22.406C32.094 24.0501 32.0382 25.7082 31.7671 27.3377C31.4422 29.3827 31.0288 31.3982 30.5932 33.4026C30.2646 34.9936 29.9435 36.5883 29.6888 38.2014L29.567 38.9693C29.4378 39.7777 29.3123 40.5787 29.1978 41.3834C29.1425 41.7525 29.0871 42.1032 29.0391 42.465C28.8361 43.7754 28.67 45.108 28.5297 46.459Z" fill="#BBBDBF"/>
<path d="M39.0644 14.8688C39.116 15.7035 39.116 16.5406 39.0644 17.3753C39.0048 18.3665 38.8815 19.3529 38.6953 20.3284C38.1748 23.0969 37.4882 25.8174 36.809 28.5454C36.2774 30.6974 35.7643 32.8606 35.3545 35.0532C35.0814 36.4929 34.8131 37.9301 34.5498 39.3648C34.1401 41.6461 33.7636 43.9384 33.4904 46.264C33.2283 48.9295 33.2927 51.617 33.6823 54.2669C33.6823 54.3333 33.6823 54.4071 33.7082 54.4773C33.9223 56.1421 34.1918 57.7995 34.4465 59.4865C34.7233 61.4392 35.1183 63.3624 35.5723 65.2745C36.7425 70.2468 38.2671 75.1195 38.9131 80.1766C38.9795 80.7119 39.0275 81.2434 39.0533 81.7713C39.0979 82.6388 39.0831 83.5083 39.009 84.3737C39.5788 82.52 39.8675 80.5914 39.8654 78.6521V20.3284C39.8594 18.4797 39.5897 16.6413 39.0644 14.8688V14.8688ZM5.43949 34.9204C4.99283 32.7757 4.46496 30.6568 3.94078 28.5343C3.2025 25.6329 2.49376 22.7314 1.97696 19.7857C1.84129 19.0179 1.75253 18.2425 1.71118 17.4638C1.65924 16.5409 1.67775 15.6154 1.76655 14.6953C1.21889 16.5165 0.94154 18.4082 0.943372 20.3099V78.6521C0.941136 80.6055 1.23359 82.5481 1.81085 84.4143C1.7238 83.5324 1.70529 82.645 1.75548 81.7602C1.77763 81.2361 1.82931 80.7045 1.90314 80.1656C1.97696 79.6266 2.05079 79.1984 2.15415 78.689C3.09915 74.1855 4.33207 69.7633 5.21801 65.2487C5.24385 65.1232 5.266 65.0014 5.28814 64.8796C5.58346 63.344 5.88984 61.8194 6.18146 60.2912C6.5506 58.3975 6.88652 56.5001 7.17814 54.5843C7.17814 54.4699 7.21136 54.3518 7.22613 54.241C7.93857 49.1174 7.28888 44.23 6.34019 39.3389C6.05595 37.8772 5.74957 36.4006 5.43949 34.9204Z" fill="#BBBDBF"/>
<path d="M39.596 14.7148C38.2522 10.0882 35.2836 6.10211 31.2358 3.48939C27.1879 0.876674 22.333 -0.187081 17.5635 0.49369C12.7941 1.17446 8.43065 3.554 5.27544 7.19484C2.12023 10.8357 0.38532 15.4931 0.389657 20.3109V78.6531C0.389656 81.2795 0.906971 83.8802 1.91206 86.3067C2.91716 88.7332 4.39035 90.938 6.24751 92.7951C8.10468 94.6523 10.3095 96.1255 12.736 97.1306C15.1625 98.1357 17.7632 98.653 20.3896 98.653C23.0161 98.653 25.6168 98.1357 28.0433 97.1306C30.4698 96.1255 32.6746 94.6523 34.5317 92.7951C36.3889 90.938 37.8621 88.7332 38.8672 86.3067C39.8723 83.8802 40.3896 81.2795 40.3896 78.6531V20.3294C40.3936 18.4296 40.1263 16.539 39.596 14.7148V14.7148ZM20.4007 98.0993C16.2492 98.0988 12.2067 96.7705 8.864 94.3085C5.52132 91.8465 3.05375 88.3799 1.82192 84.4153C1.73487 83.5334 1.71636 82.646 1.76655 81.7612C1.59334 80.7343 1.50691 79.6946 1.50815 78.6531V20.3294C1.50714 19.3766 1.57871 18.4252 1.72225 17.4833C1.67031 16.5604 1.68882 15.6349 1.77762 14.7148C2.99378 10.7064 5.47126 7.19771 8.84158 4.7104C12.2119 2.22309 16.2951 0.890058 20.4838 0.90955C24.6725 0.929042 28.7431 2.30001 32.0902 4.81859C35.4372 7.33716 37.8819 10.8688 39.0607 14.8883C39.1123 15.723 39.1123 16.56 39.0607 17.3947C39.2148 18.3653 39.2913 19.3466 39.2896 20.3294V78.6531C39.2908 79.6982 39.2044 80.7416 39.0312 81.7723C39.0757 82.6398 39.0609 83.5093 38.9869 84.3747C37.7628 88.3508 35.2959 91.8295 31.9486 94.2998C28.6012 96.7701 24.5498 98.1018 20.3896 98.0993H20.4007Z" fill="#BBBDBF"/>
<path d="M28.5297 46.459C28.3687 48.4267 28.4082 50.4056 28.6478 52.3652C28.7401 53.2401 28.8508 54.1113 28.9616 54.9861C29.0133 55.3959 29.065 55.8093 29.1129 56.2227C29.2864 57.6624 29.5338 59.0836 29.8143 60.4937C30.5526 64.1629 31.4902 67.7583 31.8926 71.494C31.9701 72.2073 32.0034 72.9248 31.9922 73.6423C31.9258 78.7844 29.5153 83.2768 24.6833 85.1963C23.2964 85.7069 21.8272 85.9572 20.3496 85.9346C16.1709 85.8866 12.5201 84.3399 10.2204 79.6408C9.43492 78.0422 8.96255 76.3081 8.82872 74.532C8.75551 73.5281 8.77776 72.5195 8.89517 71.5198C8.93577 71.1507 8.98746 70.8037 9.05021 70.4382C9.63714 67.116 10.4049 63.8528 10.955 60.5195C10.9734 60.4272 10.9882 60.3386 11.003 60.2463L11.4016 57.8063C11.6822 56.0935 11.9516 54.3807 12.1731 52.6384L12.2063 52.3837C12.6493 48.6074 12.2433 45.001 11.6563 41.3871C11.6157 41.1361 11.5751 40.8814 11.5271 40.6304C11.3906 39.7924 11.2429 38.9545 11.0915 38.1128C10.8147 36.5329 10.4862 34.9678 10.1613 33.4026L10.117 33.1886C9.68144 31.1177 9.25323 29.0468 8.94316 26.9464C8.71606 25.4426 8.69867 23.9146 8.89148 22.406C9.41196 18.3455 11.505 14.8313 14.9675 13.1259C20.4049 10.4423 25.4585 11.1621 29.6482 16.4814C30.9553 18.2002 31.7477 20.2547 31.9332 22.406C32.094 24.0501 32.0382 25.7082 31.7671 27.3377C31.4422 29.3827 31.0288 31.3982 30.5932 33.4026C30.2646 34.9936 29.9435 36.5883 29.6888 38.2014L29.567 38.9693C29.4378 39.7777 29.3123 40.5787 29.1978 41.3834C29.1425 41.7525 29.0871 42.1032 29.0391 42.465C28.8361 43.7754 28.67 45.108 28.5297 46.459Z" fill="white"/>
<path d="M31.8926 71.4977C31.97 72.2098 32.0033 72.9261 31.9922 73.6423C31.9258 78.7844 29.5153 83.2768 24.6833 85.1963C23.2964 85.7069 21.8272 85.9572 20.3496 85.9346C16.1709 85.8866 12.5201 84.3399 10.2204 79.6408C9.43492 78.0422 8.96255 76.3081 8.82872 74.532C8.75551 73.5281 8.77776 72.5195 8.89517 71.5198C8.93577 71.1507 8.98746 70.8037 9.05021 70.4382C9.63714 67.116 10.4049 63.8528 10.955 60.5195C10.9734 60.4272 10.9882 60.3386 11.003 60.2463L11.4016 57.8063C11.6822 56.0935 11.9516 54.3807 12.1731 52.6384L12.2063 52.3837C12.6493 48.6074 12.2433 45.001 11.6563 41.3871C11.6157 41.1361 11.5751 40.8814 11.5271 40.6304C11.3906 39.7924 11.2429 38.9545 11.0915 38.1128C10.8147 36.5329 10.4862 34.9678 10.1613 33.4026L10.117 33.1886C9.68144 31.1177 9.25323 29.0468 8.94316 26.9464C8.71606 25.4426 8.69867 23.9146 8.89148 22.406C9.41196 18.3455 11.505 14.8313 14.9675 13.1259C20.4049 10.4423 25.4585 11.1621 29.6482 16.4814C30.9553 18.2002 31.7477 20.2547 31.9332 22.406C32.094 24.0501 32.0382 25.7082 31.7671 27.3377C31.4422 29.3827 31.0288 31.3982 30.5932 33.4026C30.2646 34.9936 29.9435 36.5883 29.6888 38.2014L29.567 38.9693C29.4378 39.7777 29.3123 40.5787 29.1978 41.3834C29.1425 41.7525 29.0871 42.1032 29.0391 42.465C28.8435 43.7939 28.67 45.1265 28.5371 46.4775C28.3761 48.4452 28.4156 50.4241 28.6552 52.3837C28.7475 53.2586 28.8582 54.1297 28.969 55.0046C29.0206 55.4143 29.0723 55.8278 29.1203 56.2412C29.2938 57.6808 29.5411 59.102 29.8217 60.5121C30.56 64.1813 31.4976 67.7767 31.8999 71.5124L31.8926 71.4977Z" fill="#BBBDBF"/>
<path d="M31.9918 73.6452C31.9253 78.7873 29.5148 83.2797 24.6828 85.1992C23.296 85.7098 21.8268 85.9601 20.3491 85.9375C16.1704 85.8895 12.5197 84.3428 10.2199 79.6437C9.43446 78.0451 8.96208 76.3109 8.82826 74.5348C8.75505 73.5309 8.7773 72.5223 8.8947 71.5227C8.93531 71.1535 8.98699 70.8065 9.04975 70.4411C9.63668 67.1188 10.4045 63.8557 10.9545 60.5224C10.973 60.4301 10.9877 60.3415 11.0025 60.2492L11.4012 57.8092C11.6817 56.0964 11.9512 54.3836 12.1727 52.6413L12.2059 52.3866C12.6489 48.6103 12.2428 45.0038 11.6559 41.3899C11.6153 41.1389 11.5747 40.8842 11.5267 40.6332C11.3901 39.7953 11.2424 38.9573 11.0911 38.1157C10.8142 36.5358 10.4857 34.9706 10.1609 33.4055L10.1166 33.1914C12.4495 33.4055 15.613 34.4243 19.7843 38.1157C19.836 38.16 24.4059 42.1578 29.0313 42.4715C28.8356 43.8004 28.6621 45.133 28.5292 46.4841C28.3682 48.4517 28.4078 50.4306 28.6474 52.3903C28.7396 53.2651 28.8504 54.1363 28.9611 55.0111C29.0128 55.4209 29.0645 55.8343 29.1125 56.2477C29.286 57.6874 29.5333 59.1086 29.8138 60.5187C30.5521 64.1879 31.4897 67.7833 31.8921 71.519C31.9688 72.225 32.002 72.9351 31.9918 73.6452V73.6452Z" fill="#FF0A0A"/>
</svg>
