<svg width="40" height="99" viewBox="0 0 40 99" fill="none" xmlns="http://www.w3.org/2000/svg">
<path d="M32.0361 71.6736C31.7036 69.0304 31.2302 66.4068 30.6179 63.8141C30.3926 62.7671 30.154 61.6935 29.942 60.62C29.6239 59.0163 29.3986 57.6644 29.2528 56.392L29.0937 55.1594C28.9877 54.3244 28.8684 53.4629 28.7889 52.6147C28.5502 50.6933 28.5103 48.7524 28.6696 46.8228C28.7889 45.6034 28.9479 44.3046 29.1732 42.8466C29.1732 42.5153 29.266 42.184 29.319 41.8526V41.7201C29.4516 40.9249 29.5709 40.1296 29.7034 39.3212L29.8227 38.5524C30.0745 36.909 30.4059 35.292 30.7239 33.7678L30.8167 33.357C31.2011 31.5014 31.5987 29.5929 31.9035 27.6711C32.1755 25.9931 32.2333 24.2874 32.0758 22.5949C31.8809 20.3393 31.0438 18.1868 29.6636 16.3921C25.502 11.0906 20.386 9.91103 14.3025 12.8799C12.515 13.8369 10.9952 15.2259 9.88176 16.9204C8.76829 18.6149 8.09646 20.5611 7.92745 22.5816C7.70908 24.1424 7.70908 25.726 7.92745 27.2867C8.23229 29.3543 8.64315 31.3424 9.10704 33.5558L9.21307 34.0727C9.5179 35.5173 9.82274 37.0017 10.0746 38.4729C10.2336 39.3079 10.3794 40.1429 10.5119 40.9911L10.6312 41.6803C11.3185 45.251 11.5014 48.9004 11.1746 52.5219V52.7737C10.9361 54.563 10.6577 56.2992 10.4059 57.9162L9.99505 60.3549C9.99505 60.4477 9.99505 60.5272 9.99505 60.6332C9.69021 62.4357 9.31909 64.2647 8.96124 66.0275C8.66966 67.4987 8.35157 69.0229 8.0865 70.547C8.02023 70.9314 7.96721 71.2892 7.92745 71.6604C7.82869 72.6962 7.82869 73.7391 7.92745 74.775C8.06507 76.6184 8.55552 78.4182 9.37212 80.0765C10.2608 82.1246 11.7503 83.8547 13.6436 85.038C15.5368 86.2213 17.7447 86.802 19.9751 86.7034C21.5153 86.7313 23.0474 86.4752 24.4947 85.9479C29.2925 84.0394 32.0891 79.6391 32.1553 73.887C32.1705 73.1612 32.1395 72.4352 32.0626 71.7134L32.0361 71.6736Z" fill="#D0D9DC"/>
<path d="M20 98.3695C15.7226 98.3896 11.5528 97.0297 8.10981 94.4916C4.66679 91.9535 2.13418 88.3726 0.888076 84.2807C0.298858 82.3611 -0.000440633 80.3643 7.58889e-05 78.3563V20.0397C-0.005353 18.0821 0.280523 16.1345 0.848317 14.2611C2.10121 10.1516 4.63586 6.55064 8.0817 3.98475C11.5275 1.41885 15.7038 0.0225547 20 4.40655e-06C22.628 -0.00174064 25.2306 0.514823 27.6588 1.52013C30.0869 2.52543 32.293 3.99973 34.1507 5.85864C36.0084 7.71756 37.4812 9.9246 38.4849 12.3534C39.4886 14.7822 40.0034 17.3852 40 20.0132V78.3298C40.0052 80.9583 39.4916 83.562 38.4885 85.9916C37.4854 88.4213 36.0126 90.629 34.1546 92.4883C32.2966 94.3475 30.0898 95.8218 27.6609 96.8264C25.2319 97.8311 22.6285 98.3465 20 98.343V98.3695ZM20 1.11332C17.5163 1.11158 15.0566 1.59906 12.7613 2.54792C10.4659 3.49679 8.38 4.88846 6.62252 6.64347C4.86505 8.39849 3.47046 10.4825 2.51838 12.7765C1.56629 15.0704 1.07537 17.5295 1.07363 20.0132V78.3298C1.071 82.8566 2.69319 87.2339 5.64516 90.6657C8.59714 94.0975 12.6828 96.3558 17.1591 97.0299C21.6354 97.704 26.2049 96.7491 30.0366 94.3388C33.8684 91.9286 36.7078 88.2231 38.0384 83.8964C38.5952 82.0934 38.8767 80.2168 38.8734 78.3298V20.0132C38.8699 15.0063 36.8812 10.2051 33.3432 6.6622C29.8053 3.1193 25.0069 1.12385 20 1.11332Z" fill="#D0D9DC"/>
<path d="M5.95102 39.0754C5.65944 37.6043 5.3546 36.1198 5.04976 34.6487C4.59913 32.5016 4.06899 30.3809 3.55209 28.2603C2.82313 25.3578 2.10742 22.4552 1.59053 19.5129C1.28995 17.8293 1.21862 16.1128 1.37847 14.4102C0.827757 16.2323 0.550818 18.1262 0.556733 20.0298V78.3464C0.550912 80.3006 0.841379 82.2445 1.41823 84.1117C1.28423 82.6948 1.31537 81.2671 1.51101 79.8573C1.51101 79.3669 1.65679 78.8898 1.76282 78.3994C2.70384 73.8931 3.93645 69.4663 4.82445 64.9468L4.90397 64.5889C5.19555 63.0515 5.50039 61.5273 5.79197 59.9899C6.14982 58.0946 6.49442 56.1993 6.786 54.2908C6.786 54.1715 6.786 54.0522 6.786 53.9462C7.33743 48.9773 7.05522 43.9513 5.95102 39.0754Z" fill="#D0D9DC"/>
<path d="M34.0216 39.0754C34.3131 37.6043 34.618 36.1198 34.9228 34.6487C35.3734 32.5016 35.9036 30.3809 36.4205 28.2603C37.1494 25.3578 37.8784 22.4552 38.3953 19.5129C38.685 17.828 38.7518 16.1124 38.5941 14.4102C39.1493 16.2316 39.4307 18.1255 39.4291 20.0298V78.3464C39.4306 80.3013 39.1357 82.2452 38.5543 84.1117C38.6883 82.6948 38.6572 81.2671 38.4616 79.8573C38.4616 79.3669 38.3158 78.8898 38.2097 78.3994C37.2687 73.8931 36.0361 69.4663 35.1481 64.9468C35.1418 64.8276 35.1418 64.7081 35.1481 64.5889C34.8433 63.0515 34.5384 61.5273 34.2469 59.9899C33.889 58.0946 33.5444 56.1993 33.2528 54.2908C33.2603 54.176 33.2603 54.0609 33.2528 53.9462C32.6861 48.9808 32.9458 43.9559 34.0216 39.0754Z" fill="#D0D9DC"/>
<path d="M19.9993 43.1938C21.756 43.1938 23.1802 41.7697 23.1802 40.0129C23.1802 38.2562 21.756 36.832 19.9993 36.832C18.2425 36.832 16.8184 38.2562 16.8184 40.0129C16.8184 41.7697 18.2425 43.1938 19.9993 43.1938Z" fill="#BE202E"/>
<path d="M20.0005 50.6572C21.1204 50.6572 22.0283 49.7493 22.0283 48.6294C22.0283 47.5094 21.1204 46.6016 20.0005 46.6016C18.8805 46.6016 17.9727 47.5094 17.9727 48.6294C17.9727 49.7493 18.8805 50.6572 20.0005 50.6572Z" fill="#BE202E"/>
<path d="M20 63.8321C22.701 63.8321 24.8907 61.6424 24.8907 58.9414C24.8907 56.2404 22.701 54.0508 20 54.0508C17.299 54.0508 15.1094 56.2404 15.1094 58.9414C15.1094 61.6424 17.299 63.8321 20 63.8321Z" fill="#BE202E"/>
</svg>
