<svg viewBox="0 0 41.72 41.67" xmlns="http://www.w3.org/2000/svg"><path d="m27.15 27.74-1.42 1.41c-.39.38-.77.76-1.15 1.11-6.27 6.06-10.81 9.54-14.08 10.81-.18.08-.35.14-.52.2a7.76 7.76 0 0 1 -1.68.37h-.6c-2.25 0-3.61-1.37-4.85-2.6l-.09-.04c-2-2-3.67-4.11-2.2-7.88 1.38-3.54 5.44-8.48 13.44-16.52l1.13 1.13c-7.77 7.77-11.8 12.69-13.08 15.95-1.13 2.9 0 4.32 1.84 6.17l.09.09c1.57 1.57 2.72 2.72 5.47 1.82a14.73 14.73 0 0 0 3.14-1.57 73.32 73.32 0 0 0 10.83-9c.37-.35.75-.72 1.14-1.12s.95-.92 1.43-1.4z" fill="#fff" opacity=".65"/><path d="m39 2.48c-2.24-2.2-4.47-3.33-8.22-1.73-3.54 1.52-8.54 5.62-16.21 13.25l-.57.6 1.13 1.13 8.42 8.42 1.14 1.14 2.45 2.45.56-.56c5.61-5.61 9.34-9.86 11.53-13.18a21 21 0 0 0 1.12-1.88 13 13 0 0 0 .9-2c1.39-3.95-.65-5.99-2.25-7.64zm-2.8 13.05a114.49 114.49 0 0 1 -9 10l-10.93-10.93c7.19-7.15 11.88-11 15.14-12.38 3-1.26 4.53-.49 6.41 1.39s2.91 3.18 1.93 6a15.37 15.37 0 0 1 -1.56 3.08c-.55.86-1.19 1.81-2.03 2.84z" fill="#77c5bb" opacity=".65"/></svg>