<svg viewBox="0 0 18.59 50.6" xmlns="http://www.w3.org/2000/svg"><g fill="#77c5bb"><path d="m9.53 50.6h-.24a12.22 12.22 0 0 1 -3.19-.32l.42-1.54a10.91 10.91 0 0 0 2.77.26h1v1.6zm3.06-.32-.47-1.53a4.09 4.09 0 0 0 2.42-2.27l1.42.74a5.72 5.72 0 0 1 -3.37 3.06zm-8.59-1.08a8.12 8.12 0 0 1 -2.29-3.79l1.52-.5a6.55 6.55 0 0 0 1.77 3.09zm12.76-4-1.53-.49a26.87 26.87 0 0 0 .87-3.83l1.58.25a28.3 28.3 0 0 1 -.91 4.09zm-15.58-1.83a38.56 38.56 0 0 1 -.63-4.1l1.59-.17a38 38 0 0 0 .6 3.9zm16.82-4.27-1.59-.18c.14-1.2.26-2.55.35-4l1.6.1c-.13 1.48-.25 2.86-.36 4.08zm-17.64-1.87c-.09-1.23-.17-2.61-.23-4.08l1.6-.07c.06 1.46.13 2.81.23 4zm18.07-4.23-1.59-.08c.05-1.25.09-2.59.12-4h1.6c-.03 1.43-.07 2.79-.13 4.08zm-18.36-1.89c-.07-1.28-.07-2.63-.07-4.11h1.6c0 1.44 0 2.78.07 4zm18.51-4.26h-1.58c0-.47 0-1 0-1.44 0-.9 0-1.77 0-2.61h1.6v2.63c-.01.47-.02.95-.02 1.42zm-16.98-1.85h-1.6c0-1.44 0-2.8 0-4.08h1.6c.02 1.29 0 2.64 0 4.08zm15.34-4.21c0-1.45-.08-2.79-.15-4l1.6-.08q.09 1.89.15 4.08zm-15.25-1.86-1.6-.05c.05-1.47.12-2.84.2-4.09l1.59.11c-.08 1.23-.14 2.58-.19 4.03zm15-4.2c-.11-1.46-.25-2.8-.41-4l1.59-.21c.16 1.22.3 2.59.41 4.09zm-14.69-1.84-1.55-.14c.14-1.53.32-2.9.53-4.09l1.57.28c-.2 1.14-.37 2.47-.55 3.95zm14-4.11a19.26 19.26 0 0 0 -1-3.75l1.48-.6a20.62 20.62 0 0 1 1.12 4.06zm-13-1.78-1.55-.4a12.37 12.37 0 0 1 1.67-4l1.32.92a10.77 10.77 0 0 0 -1.44 3.48zm11.1-3.59a3.92 3.92 0 0 0 -2.84-1.7l.2-1.58a5.61 5.61 0 0 1 3.9 2.35zm-8.5-1.05-.86-1.36a7.91 7.91 0 0 1 4.34-1h.24v1.6h-.24a6.2 6.2 0 0 0 -3.48.76z"/><path d="m1.16 24.5h2v1.6h-2z"/><path d="m13.6 26.1h-3.48v-1.6h3.48zm-5.22 0h-3.48v-1.6h3.48z"/><path d="m15.34 24.5h2v1.6h-2z"/></g></svg>