<svg viewBox="0 0 43.43 48.33" xmlns="http://www.w3.org/2000/svg"><path d="m29.66 34.63c-17.4 17.37-20.02 14.48-23.26 11.25-4.05-4.05-5.08-6.88 11.24-23.26" fill="#fff"/><path d="m29.66 34.63c16.94-16.94 14.93-19.86 11.24-23.56-4-4-7.7-4-23.26 11.55z" fill="#6fc2b3"/><path d="m30.4 14.4a109.4 109.4 0 0 0 -8.82 7.93" fill="none" stroke="#fff" stroke-linecap="round" stroke-miterlimit="10"/><path d="m25.79 25.8c-16.41 16.41-19.67 14.75-22.7 11.78-.19-.17-.37-.36-.55-.54-4.06-4-5.09-6.93 11.21-23.21 14.45-14.46 18.68-15.51 22.4-12.4.29.24.59.52.88.81 3.7 3.7 5.7 6.62-11.24 23.56z" fill="#4cb79e"/><path d="m25 25.1c-15 15.04-19 14.9-21.91 12.48-.19-.17-.37-.36-.55-.54-4.06-4-5.09-6.93 11.21-23.21z" fill="#fff"/><path d="m25 25.1-11.25-11.27c14.45-14.46 18.68-15.51 22.4-12.4l.11.11c3.74 3.69 5.74 6.61-11.26 23.56z" fill="#6fc2b3"/><path d="m25.76 4.86a111.82 111.82 0 0 0 -8.82 7.94" fill="none" stroke="#fff" stroke-linecap="round" stroke-miterlimit="10"/></svg>