<svg viewBox="0 0 70.84 71.36" xmlns="http://www.w3.org/2000/svg"><path d="m70.84 35.41a35.43 35.43 0 0 1 -11.23 25.87l-1.38-2.13-.55-.86-1.39-2.14a29.42 29.42 0 1 0 -41.1.63l-1.34 2.16-.54.86-1.31 2.2a35.42 35.42 0 1 1 58.84-26.59z" fill="#86bfb5"/><path d="m49.68 67.85a35.6 35.6 0 0 1 -27.59.39l.6-1 .54-.86.2-.33.54-.86.6-1 .75-1.2a29 29 0 0 0 10.1 1.78 29.34 29.34 0 0 0 10.95-2.1l1.38 2.13.55.85z" fill="#86bfb5"/><g fill="#fff"><path d="m48.3 65.71a33 33 0 0 1 -24.87.37l.54-.86a32.06 32.06 0 0 0 23.78-.36z"/><path d="m68.34 35.41a33 33 0 0 1 -10.11 23.74l-.55-.86a31.92 31.92 0 1 0 -43.83.65l-.54.86a32.92 32.92 0 1 1 55-24.39z"/><path d="m14.73 71.36a2.54 2.54 0 0 1 -1.32-.36 2.51 2.51 0 0 1 -.81-3.44l22.78-36.85 24.15 36.67a2.5 2.5 0 0 1 -4.18 2.75l-19.84-30.13-18.66 30.18a2.5 2.5 0 0 1 -2.12 1.18z"/></g></svg>