<svg viewBox="0 0 70.83 71.37" xmlns="http://www.w3.org/2000/svg"><path d="m70.83 35.42a35.4 35.4 0 0 1 -11.15 25.79l-1-1.59-.4-.6-1.96-2.92a29.41 29.41 0 1 0 -41.09.72l-.37.61-2.86 4.57a35.41 35.41 0 1 1 58.8-26.59z" fill="#89a39d"/><path d="m49.88 68.2a35.93 35.93 0 0 1 -13.61 2.64h-.69a36 36 0 0 1 -13.29-2.76l3.21-5.2a29.8 29.8 0 0 0 10.19 2 30.23 30.23 0 0 0 10.84-1.77l2.37 3.63z" fill="#89a39d"/><path d="m14.72 71.37a2.43 2.43 0 0 1 -1.31-.37 2.5 2.5 0 0 1 -.81-3.44l22.78-36.85 24.14 36.68a2.5 2.5 0 1 1 -4.17 2.75l-19.84-30.14-18.66 30.18a2.49 2.49 0 0 1 -2.13 1.19z" fill="#fff" fill-opacity=".85"/></svg>