<svg viewBox="0 0 47.43 50.09" xmlns="http://www.w3.org/2000/svg"><path d="m34 36.62c-7.49 7.74-12.65 11.9-16.23 13.09a7 7 0 0 1 -2.2.38c-2.21 0-3.59-1.35-4.85-2.57l-.08-.09c-2-2-3.76-4-2.46-7.7a5 5 0 0 1 .2-.49 7.14 7.14 0 0 0 .8-.24c.16-.06.32-.12.49-.2a8.13 8.13 0 0 0 .86-.4 12.4 12.4 0 0 0 -.87 1.91c-1 2.82.16 4.22 2 6l.08.09c1.6 1.55 2.77 2.68 5.44 1.8 3.3-1.09 8.42-5.25 15.63-12.71z" fill="#fff" opacity=".65"/><path d="m44.53 12.06c-1.67-1.61-3.41-2.71-5.64-2.49 0 0 0 .1-.08.16-.13.3-.28.61-.44.94a4.11 4.11 0 0 1 -.21.42c-.06.12-.14.24-.21.36 2.34-.74 3.77.05 5.5 1.72 1.88 1.81 3 3.12 2.12 5.84-1 3.26-4.73 8.17-11.69 15.42l-8.55-8.27-1.08 1.07 8.57 8.29 1.18 1.1.54-.54c7.55-7.83 11.46-12.94 12.55-16.55 1.18-3.85-.89-5.86-2.56-7.47z" fill="#77c5bb" opacity=".65"/><path d="m25.46 26q-.67.69-1.35 1.35c-.37.36-.73.72-1.1 1.06-6.01 5.81-10.27 9.14-13.35 10.39-.17.08-.33.14-.49.2a7.5 7.5 0 0 1 -1.58.38 5.46 5.46 0 0 1 -.56 0c-2.1 0-3.34-1.21-4.47-2.33l-.09-.05c-1.82-1.82-3.34-3.76-1.89-7.31 1.35-3.31 5.2-8 12.88-15.66l1 1c-7.39 7.43-11.25 12.11-12.46 15.18-1.12 2.72-.09 4 1.59 5.72l.08.08c1.4 1.44 2.45 2.49 5.03 1.59a14 14 0 0 0 3-1.53 71.68 71.68 0 0 0 10.3-8.67c.35-.33.72-.68 1.09-1.06s.9-.88 1.36-1.34z" fill="#fff" opacity=".65"/><path d="m37 2.22c-2-2-4.07-3-7.61-1.45-3.34 1.49-8.09 5.41-15.39 12.71l-.53.55 1 1 7.69 7.69 1 1 2.3 2.28.54-.5c5.34-5.35 8.91-9.39 11-12.53a19.28 19.28 0 0 0 1.08-1.78c.36-.69.65-1.31.88-1.88 1.5-3.67-.48-5.58-1.96-7.09zm-2.89 12.24a113.64 113.64 0 0 1 -8.6 9.46l-9.94-9.92c6.85-6.83 11.3-10.5 14.37-11.87 2.79-1.24 4.24-.55 6 1.17s2.65 2.91 1.68 5.55a14.85 14.85 0 0 1 -1.51 2.91c-.57.82-1.23 1.72-2 2.7z" fill="#77c5bb" opacity=".65"/></svg>