<svg width="91" height="137" viewBox="0 0 91 137" fill="none" xmlns="http://www.w3.org/2000/svg">
<path d="M66.9424 79.3655C97.2424 19.0155 91.8424 12.0355 77.1024 4.62553C65.3324 -1.27447 55.5324 -6.91447 23.2324 57.4155L66.9424 79.3655Z" fill="#6DC7B5"/>
<path d="M77.6627 3.51414L77.3527 3.35414C71.5027 0.414137 65.4527 -2.64586 56.9027 3.84414C48.0227 10.5441 37.1227 27.0741 22.6427 55.8441L22.0727 56.9641C21.8927 57.3141 21.7227 57.6641 21.5527 57.9641L67.4927 81.0341L68.0227 79.9841L68.5827 78.8641C83.0727 49.9141 89.5827 32.9341 90.1527 22.2041C90.8127 11.0441 84.8827 7.17414 77.6627 3.51414ZM87.6627 22.0741C87.0627 32.2941 80.5027 49.4741 66.3827 77.6841L24.9027 56.8641C39.1927 28.5241 49.8527 12.2941 58.4027 5.86414C65.7227 0.344138 70.4027 2.67414 76.2327 5.62414L76.5327 5.77414C83.4427 9.17414 88.2227 12.3841 87.6627 22.0741Z" fill="#6DC7B5"/>
<path d="M62.7543 85.0939L62.6543 85.0339C58.0743 93.9139 53.8843 101.474 50.0243 107.824L52.1643 109.094C56.0343 102.744 60.1643 95.2139 64.7543 86.4139C64.1143 85.9439 63.4443 85.5039 62.7543 85.0939ZM67.4443 78.3139L23.7343 56.3139L22.6243 55.7539L22.0543 56.8739C21.8743 57.2239 21.7043 57.5739 21.5343 57.8739C-7.46573 115.874 -3.73573 125.024 12.5343 133.174L12.8443 133.324C16.1443 134.984 19.5043 136.674 23.3443 136.674C26.6866 136.58 29.9138 135.432 32.5643 133.394C31.8143 132.904 31.0843 132.394 30.3843 131.834C23.8643 136.064 19.4543 133.834 13.9643 131.094L13.6643 130.934C0.0842743 124.234 -5.63573 117.914 23.7543 59.1739L65.2243 79.9839L63.7943 82.8039L64.0443 82.9539C64.6843 83.3339 65.3043 83.7339 65.9043 84.1639C66.4376 83.1439 66.9676 82.1039 67.4943 81.0439L68.0243 79.9939L68.5843 78.8739L67.4443 78.3139ZM48.7143 109.954C42.5043 119.954 37.1643 126.604 32.4643 130.404C33.1583 130.925 33.8793 131.409 34.6243 131.854C39.3843 127.854 44.7143 121.064 50.8543 111.224L48.7143 109.954Z" fill="#6DC7B5"/>
<path d="M50.8525 111.227L71.5325 123.577C67.677 129.452 61.6966 133.606 54.8453 135.168C47.9939 136.731 40.8038 135.58 34.7825 131.957L34.6225 131.857C33.8707 131.412 33.143 130.928 32.4425 130.407C27.1795 126.516 23.4991 120.855 22.0787 114.467C20.6584 108.078 21.5937 101.391 24.7125 95.6367L48.7125 109.957L50.8525 111.227Z" fill="#6DC7B5"/>
<path d="M72.8134 121.425L52.1634 109.095L50.0234 107.825L26.0234 93.4852C29.8777 87.6416 35.8322 83.5048 42.6533 81.9317C49.4744 80.3586 56.6393 81.4698 62.6634 85.0352L62.7634 85.0952C63.4534 85.5052 64.1234 85.9452 64.7634 86.4152C70.1198 90.282 73.8898 95.9623 75.3723 102.4C76.8548 108.838 75.9491 115.595 72.8234 121.415L72.8134 121.425Z" fill="#6DC7B5"/>
</svg>
