<svg width="49" height="138" viewBox="0 0 49 138" fill="none" xmlns="http://www.w3.org/2000/svg">
<path d="M48.8105 70.0586H43.8105V67.6986H46.4205V65.0586H48.7905V70.0586H48.8105Z" fill="#6DC7B5"/>
<path d="M46.3704 57.8601C46.3304 55.3401 46.2804 52.9301 46.2204 50.6301L48.5904 50.5501C48.6504 52.8701 48.7104 55.2901 48.7404 57.8201L46.3704 57.8601ZM2.52039 57.5401H0.150391C0.150391 55.0001 0.280388 52.5401 0.370388 50.2701L2.74039 50.3601C2.64039 52.6267 2.56706 55.0201 2.52039 57.5401ZM45.9404 43.4001C45.8204 40.8601 45.6704 38.4001 45.5004 36.2001L47.8604 36.0201C48.0304 38.2801 48.1804 40.7201 48.3104 43.2901L45.9404 43.4001ZM3.10039 43.0601L0.730389 42.9201C0.880389 40.3601 1.07039 37.9201 1.27039 35.6501L3.63039 35.8701C3.43039 38.1501 3.25039 40.5701 3.10039 43.0601ZM44.8204 29.0601C44.5304 26.4801 44.1804 24.0601 43.8204 21.9601L46.1604 21.5401C46.5504 23.7201 46.9104 26.1601 47.1604 28.7801L44.8204 29.0601ZM4.42039 28.7801L2.07039 28.4701C2.42039 25.8701 2.81039 23.4701 3.25039 21.2401L5.58039 21.7001C5.15039 23.8201 4.76039 26.2001 4.42039 28.7501V28.7801ZM42.1704 15.0601C41.5385 12.8328 40.6244 10.6955 39.4504 8.70007L41.4504 7.46007C42.7446 9.62421 43.7529 11.9469 44.4504 14.3701L42.1704 15.0601ZM7.32039 14.8301L5.06039 14.0601C5.78873 11.6608 6.79559 9.35508 8.06039 7.19007L10.0604 8.43007C8.90058 10.4316 7.9809 12.563 7.32039 14.7801V14.8301ZM34.8104 4.06007C32.7831 3.06401 30.5678 2.50849 28.3104 2.43007L28.4904 0.0600675C31.0728 0.166287 33.604 0.813587 35.9204 1.96007L34.8104 4.06007ZM14.7004 3.79007L13.5904 1.73007C15.9313 0.584606 18.5042 -0.00730692 21.1104 6.80797e-05L21.2004 2.37007C18.9518 2.35401 16.729 2.84986 14.7004 3.82007V3.79007Z" fill="#6DC7B5"/>
<path d="M5 70.0578H0V68.8178C0 67.5278 0 66.2578 0 65.0078H2.37C2.37 65.8678 2.37 66.7378 2.37 67.6178H4.98L5 70.0578Z" fill="#6DC7B5"/>
<path d="M36.0595 70.0584H28.2995V67.6784H36.0695L36.0595 70.0584ZM20.5295 70.0584H12.7695V67.6484H20.5895L20.5295 70.0584Z" fill="#6DC7B5"/>
<path d="M0.0195312 67.6797H5.01953V70.0597H2.38953C2.38953 70.9397 2.38953 71.8097 2.38953 72.6697H0.0295296C0.0295296 71.4197 0.0295296 70.1597 0.0295296 68.8597L0.0195312 67.6797Z" fill="#6DC7B5"/>
<path d="M2.45984 79.8984C2.49984 82.4184 2.55318 84.8284 2.61984 87.1284L0.249844 87.1984C0.183177 84.8851 0.129844 82.4651 0.0898438 79.9384L2.45984 79.8984ZM46.3098 80.2184H48.6798C48.6798 82.7484 48.5498 85.2184 48.4598 87.4884L46.0898 87.3984C46.1798 85.1484 46.2598 82.7384 46.3098 80.2184ZM2.88985 94.3584C3.01985 96.8984 3.16984 99.3584 3.32984 101.558L0.969845 101.738C0.799845 99.4784 0.649844 97.0384 0.519844 94.4684L2.88985 94.3584ZM45.7398 94.6584L48.1098 94.7984C47.9498 97.3584 47.7698 99.7984 47.5598 102.068L45.1998 101.848C45.3998 99.6084 45.5898 97.1884 45.7398 94.6584ZM4.00984 108.728C4.30984 111.308 4.64984 113.728 5.00984 115.828L2.66985 116.248C2.27985 114.068 1.92985 111.628 1.66985 109.008L4.00984 108.728ZM44.4098 109.008L46.7598 109.318C46.4198 111.918 46.0198 114.318 45.5798 116.548L43.2498 116.078C43.6798 113.938 44.0698 111.558 44.4098 109.058V109.008ZM6.65984 122.738C7.29869 124.966 8.21239 127.106 9.37984 129.108L7.37984 130.348C6.09348 128.18 5.08554 125.859 4.37984 123.438L6.65984 122.738ZM41.5098 122.978L43.7698 123.698C43.0458 126.099 42.0387 128.405 40.7698 130.568L38.7698 129.328C39.9297 127.327 40.8493 125.195 41.5098 122.978ZM14.0298 133.668C16.0572 134.665 18.2724 135.22 20.5298 135.298L20.3498 137.668C17.7643 137.562 15.2298 136.915 12.9098 135.768L14.0298 133.668ZM34.1298 133.938L35.2498 136.058C32.9098 137.206 30.3363 137.798 27.7298 137.788L27.6398 135.418C29.8874 135.424 32.1067 134.918 34.1298 133.938Z" fill="#6DC7B5"/>
<path d="M43.8301 67.75H48.8301V68.94C48.8301 70.23 48.8301 71.5 48.8301 72.75H46.4601C46.4601 71.89 46.4601 71.02 46.4601 70.14H43.8601L43.8301 67.75Z" fill="#6DC7B5"/>
<path d="M12.7695 67.6992H20.5895V70.0592H12.7695V67.6992ZM28.2995 67.6992H36.0595V70.0792H28.2995V67.6992Z" fill="#6DC7B5"/>
</svg>
