<svg width="41" height="61" viewBox="0 0 41 61" fill="none" xmlns="http://www.w3.org/2000/svg">
<path d="M30.4366 35.1946C43.873 8.43274 41.4784 5.33307 34.942 2.05158C29.7227 -0.56917 25.377 -3.05246 11.0537 25.461L30.4366 35.1946Z" fill="#D0D9DC"/>
<path d="M35.1902 1.55832L35.0528 1.48737C32.4586 0.183647 29.7758 -1.17329 25.9843 1.70466C22.0466 4.67573 17.213 12.0059 10.7919 24.7637L10.5392 25.2604C10.4594 25.4156 10.384 25.5708 10.3086 25.7038L30.6804 35.9341L30.9154 35.4685L31.1638 34.9718C37.5893 22.1341 40.4761 14.6044 40.7289 9.84629C41.0215 4.89746 38.3919 3.15472 35.1902 1.55832ZM39.6247 9.78864C39.3586 14.3206 36.4496 21.939 30.1882 34.4486L11.7941 25.2161C18.1309 12.6489 22.8581 5.45176 26.6495 2.60042C29.8955 0.152606 31.9708 1.18583 34.5561 2.49399L34.6891 2.56051C37.7533 4.07709 39.873 5.49167 39.6247 9.80638V9.78864Z" fill="#D0D9DC"/>
<path d="M28.58 37.7422L28.5356 37.7156C26.5046 41.6534 24.6466 45.0058 22.9349 47.8217L23.8839 48.3848C25.6 45.569 27.4314 42.2298 29.4668 38.3275C29.183 38.1102 28.8859 37.9151 28.58 37.7422ZM30.6597 34.7268L11.2768 24.971L10.7846 24.7227L10.5318 25.2193C10.452 25.3745 10.3766 25.5297 10.3012 25.6628C-2.55868 51.3825 -0.904633 55.44 6.3102 59.0541L6.44767 59.1206C7.91103 59.8567 9.40101 60.6061 11.1038 60.6061C12.586 60.5647 14.0171 60.0556 15.1924 59.1516C14.8598 58.9344 14.5361 58.7082 14.2257 58.4599C11.3344 60.3356 9.37883 59.3468 6.94433 58.1317L6.81129 58.0608C0.802627 55.0454 -1.73387 52.2428 11.2989 26.1905L29.6753 35.4673L29.0411 36.7178L29.152 36.7843C29.4358 36.9528 29.7107 37.1302 29.9768 37.3209C30.2133 36.8686 30.4483 36.4074 30.6819 35.9374L30.9169 35.4717L31.1652 34.9751L30.6597 34.7268ZM22.354 48.7573C19.6002 53.1918 17.2322 56.1407 15.148 57.8257C15.4558 58.0568 15.7755 58.2714 16.1059 58.4687C18.2167 56.695 20.5802 53.684 23.303 49.3205L22.354 48.7573Z" fill="#D0D9DC"/>
<path d="M23.3024 49.3195L32.4728 54.7961C30.7631 57.4013 28.1111 59.2435 25.0729 59.9363C22.0347 60.6291 18.8463 60.1187 16.1762 58.5121L16.1053 58.4678C15.7719 58.2707 15.4492 58.0561 15.1386 57.8248C12.8047 56.0995 11.1727 53.5893 10.5428 50.7562C9.91296 47.9231 10.3277 44.9578 11.7107 42.4062L22.3534 48.7564L23.3024 49.3195Z" fill="#D0D9DC"/>
<path d="M33.0407 53.8447L23.8836 48.386L22.9346 47.8228L12.292 41.4638C14.0011 38.8725 16.6416 37.0381 19.6664 36.3405C22.6912 35.6429 25.8684 36.1357 28.5398 37.7167L28.5841 37.7433C28.8901 37.9251 29.1872 38.1202 29.471 38.3286C31.8463 40.0434 33.518 42.5623 34.1755 45.4171C34.8329 48.2719 34.4312 51.2683 33.0452 53.8492L33.0407 53.8447Z" fill="#D0D9DC"/>
</svg>
