<svg width="39" height="59" viewBox="0 0 39 59" fill="none" xmlns="http://www.w3.org/2000/svg">
<path d="M28.7816 34.0957C41.7955 8.16656 39.4797 5.16334 33.1425 1.98396C28.0855 -0.555243 23.875 -2.97415 9.99316 24.665L28.7816 34.0957Z" fill="#D0D9DC"/>
<path d="M29.0176 34.8132L9.27539 24.9012L9.51599 24.4243C15.8576 11.8013 20.6051 4.56181 24.4634 1.64452C28.1411 -1.13099 30.7405 0.175127 33.2539 1.43829L33.3828 1.50273C40.3989 5.02583 41.9757 8.97856 29.2582 34.3362L29.0176 34.8132ZM10.719 24.4243L28.5407 33.3738C41.1809 8.10209 38.719 5.38673 32.9016 2.46514L32.7684 2.3964C30.2464 1.12894 28.2571 0.127867 25.1121 2.50381C21.4387 5.27932 16.8672 12.2525 10.719 24.4243Z" fill="#D0D9DC"/>
<path d="M10.036 58.7568C8.38617 58.7568 6.94256 58.0307 5.52473 57.3217L5.39154 57.253C2.2895 55.6977 -0.258297 54.0178 0.0209729 49.2229C0.29165 44.5613 3.11872 37.1499 9.50325 24.4496L9.74385 23.9727L29.5075 33.8803L29.2669 34.3615C22.934 46.9716 18.1864 54.2025 14.3325 57.1327C12.7084 58.3228 11.3121 58.7568 10.036 58.7568ZM10.2251 25.412C4.16705 37.5237 1.34858 44.8835 1.09079 49.2831C0.850188 53.442 2.92108 54.8126 5.87275 56.2949L6.00594 56.3593C8.52796 57.6268 10.5215 58.6279 13.6622 56.2605C17.3357 53.485 21.9071 46.5205 28.0425 34.3486L10.2251 25.412Z" fill="#D0D9DC"/>
</svg>
