<svg width="91" height="137" viewBox="0 0 91 137" fill="none" xmlns="http://www.w3.org/2000/svg">
<path d="M66.9898 79.3463C97.2798 19.0063 91.8898 12.0163 77.1398 4.61629C65.3698 -1.29371 55.5698 -6.93372 23.2598 57.3963L66.9898 79.3463Z" fill="#6DC7B5"/>
<path d="M67.5398 81.0258L21.5898 57.9558L22.1498 56.8358C36.9098 27.4558 47.9598 10.6158 56.9398 3.83582C65.4998 -2.63418 71.5498 0.405818 77.3998 3.34582L77.6998 3.50582C94.0298 11.7058 97.6998 20.9058 68.0998 79.9158L67.5398 81.0258ZM24.9498 56.8458L66.4298 77.6658C95.8498 18.8558 90.1198 12.5558 76.5798 5.72582L76.2598 5.55582C70.3898 2.60582 65.7598 0.275817 58.4398 5.79582C49.8998 12.2858 39.2598 28.5558 24.9498 56.8458Z" fill="#6DC7B5"/>
<path d="M23.3588 136.755C19.5188 136.755 16.1588 135.065 12.8588 133.405L12.5488 133.255C5.32881 129.625 -0.601186 125.715 0.0488145 114.565C0.678814 103.715 7.27881 86.4652 22.1188 56.9052L22.6788 55.7852L68.6788 78.8552L68.1188 79.9752C53.3788 109.325 42.3288 126.155 33.3588 132.975C29.5788 135.745 26.3288 136.755 23.3588 136.755ZM23.7988 59.1451C9.69881 87.3251 3.13881 104.495 2.53881 114.705C1.97881 124.385 6.79881 127.575 13.6688 131.025L13.9788 131.175C19.8488 134.125 24.4888 136.455 31.7988 130.935C40.3488 124.485 50.9888 108.275 65.2688 79.9352L23.7988 59.1451Z" fill="#6DC7B5"/>
</svg>
