<svg width="22" height="62" viewBox="0 0 22 62" fill="none" xmlns="http://www.w3.org/2000/svg">
<path d="M21.9193 31.0332H19.751V29.9794H20.8829V28.8281H21.9107V31.0421L21.9193 31.0332Z" fill="#D0D9DC"/>
<path d="M20.8617 25.6157C20.8444 24.4999 20.8227 23.4328 20.7967 22.4143L21.8245 22.3833C21.8505 23.4106 21.8765 24.4822 21.8895 25.6025L20.8617 25.6157ZM1.84519 25.4785H0.817383C0.817383 24.3538 0.873759 23.2645 0.91279 22.2594L1.9406 22.2992C1.89723 23.3029 1.86542 24.3626 1.84519 25.4785ZM20.6753 19.2174C20.6232 18.0882 20.5582 17.0034 20.4844 16.0292L21.5079 15.9495C21.5816 16.9458 21.6467 18.0307 21.7031 19.1642L20.6753 19.2174ZM2.09672 19.0845L1.06891 19.0092C1.13396 17.8801 1.21636 16.7953 1.3031 15.7946L2.30922 15.9097C2.23983 16.8927 2.16177 17.9642 2.09672 19.0845V19.0845ZM20.1895 12.85C20.0638 11.712 19.912 10.636 19.7559 9.71057L20.7707 9.52016C20.9398 10.4899 21.0959 11.5703 21.2043 12.7304L20.1895 12.85ZM2.66917 12.7304L1.65003 12.5887C1.80182 11.4419 1.97095 10.3748 2.16177 9.39175L3.17222 9.59544C2.98575 10.5474 2.81661 11.6013 2.66917 12.7304V12.7304ZM19.0403 6.64643C18.7663 5.66021 18.3699 4.71381 17.8607 3.83026L18.7281 3.28119C19.2893 4.23946 19.7266 5.26792 20.0291 6.3409L19.0403 6.64643ZM3.92682 6.54459L2.94672 6.22577C3.26258 5.16339 3.69923 4.14243 4.24773 3.18378L5.11508 3.72842C4.61294 4.61669 4.21415 5.56182 3.92682 6.54459V6.54459ZM15.8485 1.81112C14.9693 1.37007 14.0086 1.12409 13.0296 1.08936L13.1077 0.0399398C14.2276 0.0869734 15.3253 0.373594 16.3299 0.881249L15.8485 1.81112ZM7.12732 1.69156L6.64594 0.761695C7.66118 0.255118 8.77719 -0.00550841 9.90716 8.82656e-05L9.9462 1.04951C8.97103 1.0424 8.00707 1.26196 7.12732 1.69156V1.69156Z" fill="#D0D9DC"/>
<path d="M2.92032 30.9991H0.751953V30.4722C0.751953 29.8966 0.751953 29.3386 0.751953 28.7852H1.77976C1.77976 29.166 1.77976 29.5468 1.77976 29.9364H2.91164L2.92032 30.9991Z" fill="#D0D9DC"/>
<path d="M16.3903 31.0203H13.025V29.962H16.3946L16.3903 31.0203ZM9.65534 31.0203H6.29004V29.9531H9.68136L9.65534 31.0203Z" fill="#D0D9DC"/>
<path d="M0.760742 29.9688H2.92911V31.0226H1.78855C1.78855 31.4123 1.78855 31.7975 1.78855 32.1783H0.765078C0.765078 31.6292 0.765078 31.0669 0.765078 30.4957L0.760742 29.9688Z" fill="#D0D9DC"/>
<path d="M1.81882 35.3945C1.83617 36.5104 1.8593 37.5775 1.88821 38.5959L0.860403 38.6269C0.831492 37.6026 0.808363 36.531 0.791016 35.4122L1.81882 35.3945ZM20.8354 35.5362H21.8632C21.8632 36.6565 21.8068 37.7502 21.7678 38.7553L20.74 38.7111C20.779 37.7015 20.8137 36.6388 20.8354 35.5229V35.5362ZM2.0053 41.7841C2.06168 42.9088 2.12673 43.998 2.19611 44.9722L1.17265 45.0519C1.09892 44.0512 1.03387 42.9707 0.977495 41.8328L2.0053 41.7841ZM20.5882 41.9169L21.616 41.9789C21.5466 43.1124 21.4685 44.1929 21.3775 45.198L20.354 45.1006C20.4407 44.1087 20.5231 43.0372 20.5882 41.9169ZM2.49101 48.147C2.62111 49.2894 2.76856 50.361 2.92469 51.2908L1.90989 51.4768C1.74076 50.5115 1.58897 49.4311 1.47622 48.2666L2.49101 48.147ZM20.0114 48.271L21.0305 48.4083C20.8831 49.5595 20.7096 50.6222 20.5188 51.6097L19.5083 51.4015C19.6948 50.4495 19.8639 49.4001 20.0114 48.271ZM3.64025 54.3506C3.91639 55.336 4.31269 56.2821 4.81984 57.1667L3.95249 57.7158C3.39401 56.7561 2.95686 55.728 2.65147 54.6561L3.64025 54.3506ZM18.7537 54.4524L19.7338 54.7756C19.4198 55.8387 18.9831 56.8599 18.4328 57.8176L17.5655 57.2686C18.0705 56.3755 18.4694 55.4242 18.7537 54.4347V54.4524ZM6.83642 59.1903C7.71624 59.6296 8.67656 59.8755 9.65529 59.912L9.57723 60.957C8.45565 60.9121 7.35606 60.6254 6.3507 60.1157L6.83642 59.1903ZM15.5532 59.3098L16.039 60.2353C15.0241 60.7436 13.9081 61.0057 12.7777 61.0013L12.7387 59.9475C13.7127 59.9564 14.6756 59.7367 15.5532 59.3054V59.3098Z" fill="#D0D9DC"/>
<path d="M19.7598 29.9922H21.9281V30.5191C21.9281 31.0903 21.9281 31.6527 21.9281 32.2017H20.9003C20.9003 31.8254 20.9003 31.4401 20.9003 31.0505H19.7728L19.7598 29.9922Z" fill="#D0D9DC"/>
<path d="M6.29004 29.9766H9.68136V31.026H6.29004V29.9766ZM13.025 29.9766H16.3903V31.026H13.025V29.9766Z" fill="#D0D9DC"/>
</svg>
