<svg width="62" height="61" viewBox="0 0 62 61" fill="none" xmlns="http://www.w3.org/2000/svg">
<path d="M56.2719 31.4138V29.5626H61.1405C60.9963 25.0401 59.8274 20.6093 57.722 16.6041C57.4751 16.1352 57.216 15.6724 56.9445 15.2219C55.8153 13.3375 54.4827 11.5827 52.9705 9.98916L52.4213 10.5322L49.5828 13.3707L48.2746 12.0625L51.65 8.68715C48.3905 5.64869 44.4857 3.38722 40.2281 2.07217C38.142 1.42109 35.9893 1.0071 33.8105 0.83803C33.3663 0.801006 32.9158 0.776324 32.4592 0.763982H32.3543V4.70705H30.5031V0.757812C30.0958 0.757812 29.6947 0.757812 29.2689 0.819518C28.4852 0.881225 27.7077 0.967616 26.9426 1.07869C26.1959 1.18976 25.4678 1.33169 24.7396 1.4983C19.6544 2.68437 14.9705 5.18698 11.158 8.75503L11.7257 9.32273L14.5086 12.1057L13.2128 13.383L10.4298 10.6062L9.85593 10.0324C5.72286 14.3758 3.00525 19.8713 2.06235 25.7923C1.86578 27.0403 1.75035 28.2997 1.7168 29.5626H6.46823V31.4138H1.7168C1.84058 35.5712 2.8371 39.6561 4.6417 43.4035C4.9379 44.0205 5.25877 44.6067 5.57965 45.193C5.90052 45.7792 6.32013 46.4271 6.72123 47.0442C7.06061 47.544 7.40617 48.0315 7.77641 48.5066C7.98622 48.7843 8.20219 49.062 8.39348 49.3335C8.58477 49.605 8.93033 49.9506 9.21418 50.2899L13.1819 46.3222L14.521 47.6304L11.0716 51.086L10.5224 51.6352C10.8371 51.9437 11.1394 52.2522 11.4727 52.5361C12.752 53.6917 14.1291 54.7344 15.5885 55.6523C20.0617 58.4794 25.2135 60.0503 30.5031 60.2001V56.5779H32.3543V60.2001C33.4987 60.1701 34.6403 60.0712 35.7728 59.9039C41.2358 59.1123 46.367 56.8033 50.5825 53.2395C50.8869 52.9886 51.1831 52.7294 51.4711 52.462C51.7673 52.1967 52.0511 51.9313 52.3288 51.6537L48.2746 47.6304L49.5828 46.3222L53.0384 49.7716L53.5814 50.3146C58.2614 45.1093 60.9404 38.4108 61.1405 31.4138H56.2719ZM39.5431 29.7354H23.3327C23.4129 6.64465 27.1154 6.85445 31.4348 6.85445C36.8404 6.85445 39.4752 8.09476 39.5431 29.7354ZM23.3265 31.2534H39.5431C39.4629 54.3194 35.7605 54.1158 31.441 54.1158C26.017 54.1158 23.3821 52.8755 23.3265 31.2534Z" fill="#D0D9DC"/>
<path d="M9.85672 10.0274L9.34456 9.5152C5.08374 13.9619 2.27348 19.5975 1.28564 25.6762C1.07916 26.9626 0.959584 28.2614 0.927734 29.5638H2.51977C2.55182 28.342 2.6652 27.1236 2.85916 25.9169C3.78168 20.1671 6.42095 14.8305 10.4306 10.6074L9.85672 10.0274ZM40.4572 1.35138C38.315 0.697404 36.1067 0.283485 33.873 0.117242C33.4164 0.0802181 32.9536 0.049364 32.4908 0.0370226H32.3551V1.58587H32.4353C32.8734 1.58587 33.3177 1.62289 33.7496 1.65991C40.2294 2.17032 46.3465 4.85591 51.1078 9.28071L51.6508 8.7377L52.2 8.19467C48.85 5.05977 44.8361 2.72065 40.4572 1.35138V1.35138ZM61.0241 23.1031C60.4362 20.7252 59.5575 18.4288 58.4077 16.2659C58.1794 15.8216 57.9202 15.3588 57.6117 14.8467C56.452 12.9051 55.0776 11.1001 53.5144 9.46584L52.9713 10.0089L52.4221 10.5519C53.8959 12.0984 55.1935 13.8038 56.2912 15.6365C56.575 16.124 56.8218 16.5621 57.044 16.9817C58.1306 19.0358 58.9596 21.2162 59.5123 23.4733C60.0143 25.469 60.2998 27.513 60.3638 29.5699H61.9065C61.8452 27.3869 61.5493 25.2167 61.0241 23.0969V23.1031ZM51.768 51.1118C51.4965 51.3833 51.225 51.6425 50.9412 51.9017C50.6573 52.1608 50.3673 52.4077 50.0773 52.6607C45.9699 56.1251 40.9742 58.3696 35.6564 59.1399C34.5628 59.3032 33.4603 59.4 32.3551 59.4299V60.9788C39.2155 60.7668 45.8044 58.2495 51.0584 53.8331C51.367 53.5739 51.6755 53.3086 51.9717 53.0309C52.2679 52.7532 52.5887 52.4879 52.8479 52.1979L51.768 51.1118ZM16.0151 55.0055C14.5931 54.111 13.2511 53.0953 12.0041 51.9695C11.6894 51.6795 11.3871 51.3525 11.0847 51.0871L9.99248 52.1793C10.3072 52.494 10.6095 52.7964 10.9674 53.1111C12.2799 54.2977 13.6921 55.3692 15.1882 56.3137C19.7878 59.2129 25.0814 60.824 30.5162 60.9788V59.4361C25.3682 59.2844 20.3556 57.7521 16.0027 54.9994L16.0151 55.0055ZM60.3823 31.4211C60.1845 38.2125 57.5873 44.7143 53.0515 49.7728L53.5946 50.3158L54.1438 50.865C58.971 45.5176 61.7304 38.6224 61.925 31.4211H60.3823ZM9.01751 48.8657C8.79948 48.5983 8.59379 48.3329 8.40044 48.0697C8.03637 47.5883 7.69081 47.107 7.37611 46.6381C6.98735 46.058 6.61094 45.4533 6.26538 44.8362C5.91982 44.2192 5.64831 43.707 5.35212 43.1023C3.59219 39.4506 2.62683 35.4672 2.51977 31.415H0.940076C1.01548 34.0695 1.44081 36.7024 2.20507 39.2456C2.66396 40.788 3.248 42.2904 3.95137 43.7378C4.25374 44.3549 4.56844 44.972 4.914 45.5891C5.25956 46.2061 5.673 46.8664 6.08026 47.4773C6.41348 47.9771 6.77755 48.4831 7.16013 48.9829C7.38228 49.273 7.60442 49.5568 7.82657 49.8283C8.04871 50.0998 8.39427 50.5071 8.7028 50.8403L9.78884 49.7543C9.52351 49.4457 9.27051 49.1434 9.01751 48.8657ZM30.4545 0C30.041 0 29.6214 0.0370222 29.2203 0.0678756C28.449 0.123412 27.6653 0.209804 26.894 0.320876H26.8261C26.0733 0.438119 25.3143 0.586215 24.5676 0.758994C19.3531 1.9696 14.5521 4.53936 10.6527 8.20702L11.1587 8.75621L11.7264 9.32391C15.4227 5.85262 19.9691 3.41764 24.907 2.26464C25.5982 2.1042 26.3016 1.97462 26.9989 1.86355H27.0544C27.8134 1.74631 28.5724 1.66608 29.3252 1.61055C29.714 1.61055 30.1089 1.56118 30.5038 1.54884V0.00616965L30.4545 0Z" fill="#D0D9DC"/>
<path d="M23.335 29.7344C23.335 29.9812 23.335 30.228 23.335 30.481H39.5454V29.7344H23.335Z" fill="white"/>
<path d="M31.4369 6.08203H31.3259C29.1476 6.08203 26.6917 6.08203 25.0194 9.46357C23.3472 12.8451 22.6005 19.2441 22.5635 29.7343C22.5635 29.9811 22.5635 30.2279 22.5635 30.4809V31.2523H40.3042V29.7343C40.2548 8.24177 37.694 6.08203 31.4369 6.08203ZM23.3348 29.7343C23.415 6.64357 27.1174 6.85337 31.4369 6.85337C36.8425 6.85337 39.4588 8.08751 39.5267 29.7405L23.3348 29.7343Z" fill="#D0D9DC"/>
<path d="M23.3271 30.5039V31.2506H39.5437C39.5437 31.0037 39.5437 30.7569 39.5437 30.5039H23.3271Z" fill="white"/>
<path d="M39.5436 29.7344H22.5557V31.2524C22.6112 52.7325 25.1844 54.8861 31.4168 54.8923H31.6821C33.8172 54.8923 36.2052 54.8182 37.8528 51.5169C39.5004 48.2156 40.2779 41.7549 40.3211 31.2585C40.3211 31.0117 40.3211 30.7649 40.3211 30.5119V29.7344H39.5436ZM31.4168 54.1209C26.0174 54.1209 23.3949 52.8868 23.327 31.2524H39.5436C39.4387 54.3246 35.7363 54.1209 31.4168 54.1209Z" fill="#D0D9DC"/>
</svg>
