<svg width="99" height="99" viewBox="0 0 99 99" fill="none" xmlns="http://www.w3.org/2000/svg">
<path d="M89.6893 51.0003V48.0003H97.5793C97.3456 40.6713 95.4513 33.4909 92.0393 27.0003C91.6393 26.2403 91.2193 25.4903 90.7793 24.7603C88.9463 21.706 86.7833 18.8623 84.3293 16.2803L83.4393 17.1603L78.8393 21.7603L76.7193 19.6403L82.1893 14.1703C76.9071 9.2463 70.579 5.58145 63.6793 3.45031C60.2987 2.3952 56.8101 1.7243 53.2793 1.45031C52.5593 1.39031 51.8293 1.35031 51.0893 1.33031H50.9193V7.72031H47.9193V1.32031C47.2593 1.32031 46.6093 1.37031 45.9193 1.42031C44.6493 1.52031 43.3893 1.66031 42.1493 1.84031C40.9393 2.02031 39.7593 2.25031 38.5793 2.52031C30.3521 4.41531 22.7662 8.43585 16.5793 14.1803L17.4993 15.1003L22.0093 19.6103L19.8893 21.7303L15.3793 17.2203L14.4493 16.2903C7.75688 23.3344 3.35978 32.2437 1.83929 41.8403C1.51857 43.8792 1.33151 45.937 1.2793 48.0003H8.9793V51.0003H1.2793C1.47989 57.7376 3.09482 64.3575 6.01929 70.4303C6.49929 71.4303 7.0193 72.4303 7.5393 73.3303C8.0593 74.2303 8.7393 75.3303 9.3893 76.3303C9.9393 77.1403 10.4993 77.9303 11.0993 78.7003C11.4393 79.1503 11.7893 79.6003 12.0993 80.0403C12.4093 80.4803 12.9693 81.0403 13.4293 81.5903L19.8593 75.1603L21.9793 77.2803L16.3893 82.8803L15.4993 83.7703C16.0093 84.2703 16.4993 84.7703 17.0393 85.2303C19.1122 87.1066 21.3439 88.7996 23.7093 90.2903C30.9584 94.8719 39.3072 97.4177 47.8793 97.6603V91.7903H50.8793V97.6603C52.7339 97.6118 54.584 97.4515 56.4193 97.1803C65.2724 95.8975 73.5878 92.1556 80.4193 86.3803C80.9126 85.9736 81.3926 85.5536 81.8593 85.1203C82.3393 84.6903 82.7993 84.2603 83.2493 83.8103L76.7193 77.2803L78.8393 75.1603L84.4393 80.7503L85.3193 81.6303C92.9072 73.1961 97.2522 62.3407 97.5793 51.0003H89.6893ZM62.5793 48.2403H36.3093C36.4393 10.8203 42.4393 11.1603 49.4393 11.1603C58.1993 11.1503 62.4693 13.1603 62.5793 48.2403ZM36.2993 50.6903H62.5793C62.4493 88.0703 56.4493 87.7403 49.4493 87.7403C40.6593 87.7403 36.3893 85.7303 36.2993 50.6903Z" fill="#6DC7B5"/>
<path d="M14.47 16.29L13.64 15.46C6.73508 22.6661 2.18087 31.7989 0.580002 41.65C0.245388 43.7346 0.0516136 45.8394 0 47.95H2.58C2.6136 45.9577 2.78064 43.9699 3.08 42C4.59479 32.6869 8.88925 24.0492 15.4 17.22L14.47 16.29ZM64.06 2.22C60.5884 1.16019 57.0098 0.489409 53.39 0.220001C52.65 0.160001 51.9 0.11 51.15 0.0900002H50.93V2.6H51.06C51.77 2.6 52.49 2.66 53.19 2.72C63.6822 3.52777 73.5943 7.85483 81.32 15L82.2 14.12L83.09 13.24C77.6542 8.18491 71.1501 4.41845 64.06 2.22ZM97.39 37.47C96.4373 33.6165 95.0133 29.8951 93.15 26.39C92.78 25.67 92.36 24.92 91.86 24.09C89.9806 20.9435 87.7533 18.0185 85.22 15.37L84.34 16.25L83.45 17.13C85.8383 19.6363 87.9412 22.3999 89.72 25.37C90.18 26.16 90.58 26.87 90.94 27.55C92.701 30.8788 94.0444 34.4122 94.94 38.07C95.764 41.3197 96.2334 44.6492 96.34 48H98.84C98.7369 44.4481 98.2508 40.9176 97.39 37.47ZM82.39 82.86C81.95 83.3 81.51 83.72 81.05 84.14C80.59 84.56 80.12 84.96 79.65 85.37C72.9949 90.9879 64.8989 94.6289 56.28 95.88C54.5078 96.1447 52.7212 96.3016 50.93 96.35V98.86C62.0477 98.5165 72.7254 94.4371 81.24 87.28C81.74 86.86 82.24 86.43 82.72 85.98C83.2 85.53 83.72 85.1 84.14 84.63L82.39 82.86ZM24.45 89.17C22.1456 87.7204 19.9708 86.0743 17.95 84.25C17.44 83.78 16.95 83.25 16.46 82.82L14.69 84.59C15.2 85.1 15.69 85.59 16.27 86.1C18.397 88.0229 20.6854 89.7593 23.11 91.29C30.5639 95.9884 39.1425 98.5993 47.95 98.85V96.35C39.6083 96.1073 31.4851 93.6275 24.43 89.17H24.45ZM96.33 51C96.0094 62.0059 91.8005 72.5423 84.45 80.74L85.33 81.62L86.22 82.51C94.0428 73.8442 98.5146 62.6701 98.83 51H96.33ZM13.11 79.18C12.7567 78.7467 12.4233 78.3167 12.11 77.89C11.52 77.11 10.96 76.33 10.45 75.57C9.82 74.63 9.21 73.65 8.65 72.65C8.09 71.65 7.65 70.82 7.17 69.84C4.33161 63.9528 2.76754 57.533 2.58 51H0.0200005C0.14219 55.3018 0.831475 59.5686 2.07 63.69C2.81367 66.1896 3.76014 68.6244 4.9 70.97C5.39 71.97 5.9 72.97 6.46 73.97C7.02 74.97 7.69 76 8.35 77C8.89 77.81 9.48 78.63 10.1 79.44C10.46 79.91 10.82 80.37 11.18 80.81C11.54 81.25 12.1 81.91 12.6 82.45L14.36 80.69C13.93 80.17 13.52 79.68 13.11 79.18ZM47.85 0C47.18 0 46.5 0.0600006 45.85 0.110001C44.6 0.200001 43.33 0.34 42.08 0.52H41.97C40.75 0.71 39.52 0.95 38.31 1.23C29.8554 3.20333 22.0746 7.38181 15.76 13.34L16.6 14.18L17.52 15.1C23.5101 9.49576 30.8701 5.56742 38.86 3.71C39.98 3.45 41.12 3.24 42.25 3.06H42.34C43.57 2.87 44.8 2.74 46.02 2.65C46.65 2.65 47.29 2.57 47.93 2.55V0H47.85Z" fill="#6DC7B5"/>
<path d="M36.3105 48.2305C36.3105 48.6305 36.3105 49.0305 36.3105 49.4405H62.5805V48.2405L36.3105 48.2305Z" fill="#6DC7B5"/>
<path d="M49.441 9.89844H49.261C45.731 9.89844 41.751 9.89844 39.041 15.3784C36.331 20.8584 35.121 31.2084 35.041 48.2284C35.041 48.6284 35.041 49.0284 35.041 49.4384V50.6884H63.791V48.2384C63.731 13.3984 59.581 9.89844 49.441 9.89844ZM36.311 48.2284C36.441 10.8084 42.441 11.1484 49.441 11.1484C58.201 11.1484 62.441 13.1484 62.551 48.2384L36.311 48.2284Z" fill="#6DC7B5"/>
<path d="M36.3008 49.4805V50.6905H62.5808C62.5808 50.2905 62.5808 49.8905 62.5808 49.4805H36.3008Z" fill="#6DC7B5"/>
<path d="M62.5808 48.2383H35.0508V50.6983C35.1408 85.4983 39.3108 88.9983 49.4108 88.9983H49.8408C53.3008 88.9983 57.1708 88.8783 59.8408 83.5283C62.5108 78.1783 63.7708 67.7083 63.8408 50.6983C63.8408 50.2983 63.8408 49.8983 63.8408 49.4883V48.2383H62.5808ZM49.4108 87.7483C40.6608 87.7483 36.4108 85.7483 36.3008 50.6883H62.5808C62.4108 88.0783 56.4108 87.7483 49.4108 87.7483Z" fill="#6DC7B5"/>
</svg>
